<svg xmlns="http://www.w3.org/2000/svg" viewBox="0 0 248 248">
  <path d="M23.488 110.625s-8.447 0-12.2-2.815c-4.43-3.323-2.347-7.274-2.347-7.274s.717 4.223 4.693 4.223c5.4 0 6.57-2.553 6.57-6.57a8.926 8.926 0 0 0-9.151-7.743c-7.978 0-11.263 6.74-11.263 11.263 0 7.274 3.52 17.364 22.057 17.6s83.532 0 83.532 0l4.4 4.693-4.4 4.693s-65-.235-83.532 0S-.211 139.017-.211 146.291c0 4.523 3.285 11.263 11.263 11.263a8.926 8.926 0 0 0 9.151-7.743c0-4.017-1.173-6.57-6.57-6.57-3.976 0-4.693 4.223-4.693 4.223s-2.083-3.951 2.347-7.274c3.754-2.815 12.2-2.815 12.2-2.815h84.94L121.334 124l-12.906-13.375Zm202.666 18.068c-18.536-.235-83.532 0-83.532 0L138.22 124l4.4-4.693s65 .235 83.532 0 22.057-10.324 22.057-17.6c0-4.523-3.285-11.263-11.263-11.263a8.926 8.926 0 0 0-9.151 7.743c0 4.017 1.173 6.57 6.57 6.57 3.976 0 4.693-4.223 4.693-4.223s2.083 3.951-2.347 7.274c-3.754 2.815-12.2 2.815-12.2 2.815h-84.94L126.666 124l12.906 13.375h84.94s8.447 0 12.2 2.815c4.43 3.323 2.347 7.274 2.347 7.274s-.717-4.223-4.693-4.223c-5.4 0-6.57 2.553-6.57 6.57a8.926 8.926 0 0 0 9.151 7.743c7.978 0 11.263-6.74 11.263-11.263.001-7.274-3.519-17.363-22.056-17.598Z"/>
</svg>
