<svg xmlns="http://www.w3.org/2000/svg" viewBox="0 0 248 198.618">
  <path d="M235.78 99.309C245.5 96.566 248 88.336 248 85.329c0-2.541-1.452-13.8-9.8-13.8-10.167 0-10.893 7.626-7.625 11.62 2.311 2.824 8.351 1.089 8.351 1.089s-3.776 13.262-22.153 2.544c-13.072-7.625-14.887-22.513-14.887-22.513s9.441 5.084 14.524-.726c4.72-6.9.363-12.345-4.357-13.072 1.089 8.715-7.989 7.626-10.893 6.173s-9.441-13.8-22.15-21.423c-9.077-5.446-25.054-5.083-25.054-5.083s7.262-6.536 7.262-14.161C161.218 11.256 156.5 0 147.42 0c-5.083 0-11.982 1.816-9.8 11.256 12.709.726 11.974 18.993 1.453 25.781-9.013 5.812-13.599 15.344-15.073 23.946-1.474-8.6-6.06-18.134-15.069-23.946-10.521-6.788-11.256-25.055 1.453-25.781C112.562 1.816 105.663 0 100.58 0c-9.078 0-13.8 11.256-13.8 15.977 0 7.625 7.262 14.161 7.262 14.161s-15.977-.363-25.054 5.083C56.281 42.846 49.745 55.192 46.84 56.644s-11.982 2.542-10.893-6.173c-4.72.727-9.077 6.173-4.357 13.072 5.083 5.81 14.524.726 14.524.726S44.3 79.157 31.227 86.782C12.85 97.5 9.078 84.24 9.078 84.24s6.04 1.735 8.351-1.089c3.268-3.994 2.542-11.62-7.625-11.62-8.352 0-9.8 11.257-9.8 13.8 0 3.007 2.5 11.237 12.22 13.98C2.5 102.052 0 110.282 0 113.288c0 2.542 1.452 13.8 9.8 13.8 10.167 0 10.893-7.625 7.625-11.619-2.311-2.824-8.351-1.089-8.351-1.089s3.772-13.262 22.149-2.542c13.072 7.625 14.887 22.512 14.887 22.512s-9.441-5.083-14.524.727c-4.72 6.9-.363 12.345 4.357 13.071-1.089-8.714 7.989-7.625 10.893-6.172s9.441 13.8 22.15 21.423c9.077 5.446 25.054 5.083 25.054 5.083s-7.262 6.536-7.262 14.161c0 4.721 4.72 15.977 13.8 15.977 5.083 0 11.982-1.816 9.8-11.256-12.709-.727-11.974-18.993-1.453-25.781 9.009-5.812 13.6-15.345 15.069-23.946 1.474 8.6 6.06 18.134 15.069 23.946 10.521 6.788 11.256 25.054-1.453 25.781-2.178 9.44 4.721 11.256 9.8 11.256 9.078 0 13.8-11.256 13.8-15.977 0-7.625-7.262-14.161-7.262-14.161s15.977.363 25.054-5.083c12.709-7.625 19.245-19.971 22.15-21.423s11.982-2.542 10.893 6.172c4.72-.726 9.077-6.172 4.357-13.071-5.083-5.81-14.524-.727-14.524-.727s1.815-14.887 14.887-22.512c18.377-10.72 22.149 2.542 22.149 2.542s-6.04-1.735-8.351 1.089c-3.268 3.994-2.542 11.619 7.625 11.619 8.352 0 9.8-11.256 9.8-13.8.012-3.006-2.488-11.236-12.208-13.979ZM87.508 151.777c-12.345 0-20.334-1.815-30.864-24.328-9.207-19.684-18.308-26.105-27.348-28.14 9.04-2.035 18.141-8.456 27.348-28.141C67.174 48.656 75.163 46.84 87.508 46.84c10.893 0 21.06 9.071 21.06 18.519s-4.357 15.976-11.619 17.792a9.775 9.775 0 0 1-10.167-2.905s13.435.726 13.435-10.893c0-7.66-5.8-12.709-14.524-12.709-9.8 0-16.7 6.9-16.7 21.423 0 13.463 12.175 20.1 23.366 21.242-11.191 1.146-23.366 7.778-23.366 21.242 0 14.524 6.9 21.423 16.7 21.423 8.722 0 14.524-5.049 14.524-12.709 0-11.619-13.435-10.893-13.435-10.893a9.775 9.775 0 0 1 10.167-2.905c7.262 1.816 11.619 8.351 11.619 17.792s-10.168 18.518-21.06 18.518ZM124 125.019a31.575 31.575 0 0 0-25.738-25.71A31.575 31.575 0 0 0 124 73.6a31.575 31.575 0 0 0 25.738 25.71A31.575 31.575 0 0 0 124 125.019Zm67.356 2.43c-10.53 22.513-18.519 24.328-30.864 24.328-10.893 0-21.06-9.07-21.06-18.518s4.357-15.976 11.619-17.792a9.775 9.775 0 0 1 10.167 2.905s-13.435-.726-13.435 10.893c0 7.66 5.8 12.709 14.524 12.709 9.8 0 16.7-6.9 16.7-21.423 0-13.464-12.175-20.1-23.366-21.242 11.191-1.146 23.366-7.779 23.366-21.242 0-14.524-6.9-21.423-16.7-21.423-8.722 0-14.524 5.049-14.524 12.709 0 11.619 13.435 10.893 13.435 10.893a9.775 9.775 0 0 1-10.167 2.905c-7.262-1.816-11.619-8.352-11.619-17.792S149.6 46.84 160.492 46.84c12.345 0 20.334 1.816 30.864 24.328 9.207 19.685 18.308 26.106 27.348 28.141-9.04 2.035-18.141 8.456-27.348 28.14Z"/>
</svg>
