<?xml version="1.0" encoding="utf-8"?>
<!-- Generator: Adobe Illustrator 26.0.3, SVG Export Plug-In . SVG Version: 6.00 Build 0)  -->
<svg version="1.1" id="Layer_1" xmlns="http://www.w3.org/2000/svg" xmlns:xlink="http://www.w3.org/1999/xlink" x="0px" y="0px"
	 viewBox="0 0 248 248" style="enable-background:new 0 0 248 248;" xml:space="preserve">
<g>
	<path d="M183.2,105.7c-11.1,0-24.5,2.8-35.3,7c-4.2-8.9-13.3-15.1-23.9-15.1c-10.5,0-19.6,6.2-23.9,15.1c-10.8-4.2-24.2-7-35.3-7
		c-11.1,0-38.7,5.5-38.7,22.5c0,7.2,7.2,13.9,17.5,13.9s16.1-6.2,21.6-10c3.2-2.2,10.6-4.8,15-1.4c4.4,3.4,3.6,8.4,3.6,8.4
		s3-2.8,3-9.4s-7-11.2-11.6-10c-3.2,0.9-5.8,6.9-5.8,6.9s0.2-4.2-1.9-6.2c-1.9-1.9-5.5-0.8-5.5-0.8s3.3,5,0.3,9.5
		c-3.3,5-8.6,7-8.6,7s3.7-2,3.3-7.5c-0.5-5.5-5.6-7.2-10-6.7c-4.4,0.5-6.9,6.6-5,10c2.2,3.9,6.9,2.8,6.9,2.8s-0.8,2.5-4.7,2.5
		c-3.6,0-11.2-2.3-11.2-10.9c0-9.4,15.5-17,31.4-17c11.5,0,24.7,3.3,34.4,6.9c-0.7,2.4-1.2,5-1.2,7.7c0,14.6,11.8,26.4,26.4,26.4
		s26.4-11.8,26.4-26.4c0-2.7-0.4-5.3-1.2-7.7c9.7-3.6,22.9-6.9,34.4-6.9c15.9,0,31.4,7.7,31.4,17c0,8.6-7.7,10.9-11.2,10.9
		c-3.9,0-4.7-2.5-4.7-2.5s4.7,1.1,6.9-2.8c1.9-3.4-0.6-9.5-5-10c-4.4-0.5-9.5,1.2-10,6.7c-0.5,5.5,3.3,7.5,3.3,7.5s-5.3-2-8.6-7
		c-2.9-4.5,0.3-9.5,0.3-9.5s-3.6-1.1-5.5,0.8c-2,2-1.9,6.2-1.9,6.2s-2.6-6-5.8-6.9c-4.5-1.2-11.6,3.4-11.6,10s3,9.4,3,9.4
		s-0.8-5,3.6-8.4c4.4-3.4,11.8-0.8,15,1.4c5.5,3.7,11.2,10,21.6,10c10.3,0,17.5-6.7,17.5-13.9C221.9,111.2,194.3,105.7,183.2,105.7z
		 M142.5,115c-5.2,2.5-9.3,5.3-11.7,8.2c-4.3,5.4-5.3,11.1-5.5,12.6c0.1-1.8,0.1-7.7,2-13.4c1.2-3.6,3.6-8,6.1-10.9
		c-5.1-0.8-8.5-6.5-9.3-8.1C132.3,103.5,139.2,108.2,142.5,115z M123.8,103.4c-0.8,1.6-4.2,7.3-9.3,8.1c2.5,3,4.8,7.3,6.1,10.9
		c2,5.7,1.9,11.7,2,13.4c-0.1-1.6-1.1-7.2-5.5-12.6c-2.3-2.9-6.5-5.7-11.7-8.2C108.8,108.2,115.7,103.5,123.8,103.4z M103.4,124
		c0-1.9,0.3-3.7,0.8-5.5c3.3,1.5,5.8,2.9,7.2,4.1c9.2,7.8,9.4,20.9,9.4,20.9l0.1,0.8C111,142.8,103.4,134.3,103.4,124z M144.6,124
		c0,10.3-7.6,18.8-17.4,20.4l0.1-0.8c0,0,0.2-13.1,9.4-20.9c1.4-1.2,3.9-2.6,7.2-4.1C144.3,120.2,144.6,122.1,144.6,124z"/>
	<path d="M246,115.1c-0.2,0-0.5,0-0.7,0.1c-0.9-0.8-2.3-1.7-4-1.7c-1.9,0-3.3,1.4-4.6,2.7c-1.3,1.3-2.4,2.4-3.9,2.4
		c-2.5,0-4.2-1-5.1-1.6c1.9-0.8,7.3-3.5,7.6-9.8c-9.2,5.2-14.7,6.6-22.3,4.2c8.1,3.3,12.8,11.9,13.4,15.5c2.1-2.3,1.6-6.1,1.1-8.2
		c1.2,0.7,3,1.5,5.3,1.5c2.2,0,3.7-1.5,5.1-2.9c1.2-1.2,2.3-2.3,3.5-2.3c1.1,0,2.1,0.6,2.8,1.2c-0.1,0.3-0.2,0.5-0.2,0.9
		c0,1.1,0.9,2,2,2c1.1,0,2-0.9,2-2C248,116,247.1,115.1,246,115.1z"/>
	<path d="M35.1,111.5c-7.7,2.3-13.1,0.9-22.3-4.2c0.4,6.3,5.8,9,7.6,9.8c-0.9,0.7-2.7,1.6-5.1,1.6c-1.5,0-2.7-1.2-3.9-2.4
		c-1.3-1.3-2.7-2.7-4.6-2.7c-1.7,0-3.1,0.9-4,1.7c-0.2-0.1-0.4-0.1-0.7-0.1c-1.1,0-2,0.9-2,2c0,1.1,0.9,2,2,2c1.1,0,2-0.9,2-2
		c0-0.3-0.1-0.6-0.2-0.9c0.7-0.6,1.7-1.2,2.8-1.2c1.3,0,2.4,1.1,3.5,2.3c1.4,1.4,2.9,2.9,5.1,2.9c2.4,0,4.1-0.7,5.3-1.5
		c-0.5,2.1-1,5.9,1.1,8.2C22.3,123.4,27,114.8,35.1,111.5z"/>
</g>
</svg>
