<svg xmlns="http://www.w3.org/2000/svg" viewBox="0 0 248 101.345">
  <path d="M59.623 50.652h-.006v.042h.006c.49 4.683 3.619 5.673 5.732 5.673 5.716 0 11.182-3.976 18.886-3.976 9.208 0 9.443.5 9.443.5a5.391 5.391 0 0 1 2.489-2.194h.116c-.019-.006-.038-.015-.058-.021l.058-.021h-.116a5.4 5.4 0 0 1-2.489-2.2s-.235.5-9.443.5c-7.7 0-13.17-3.976-18.886-3.976-2.113-.001-5.242.989-5.732 5.673Z"/>
  <path d="M124 79.49c.009 13.163 13.421 21.855 22.613 21.855 17.4 0 15.9-10.437 28.328-7.952 0-2.485.746-4.224-3.727-6.709 4.225-7.7 19.88-22.117 28.08-8.946 0-1.739 1.491-12.177-11.431-11.928S160.28 87.926 160.28 87.926s.5-3.976-2.485-5.218c-2.485 6.212-5.964 9.691-13.667 9.194-8.2-.5-12.425-8.2-12.425-12.425 0-7.952 3.479-16.4 11.182-16.4 8.2 0 9.692 5.219 9.692 5.219a9.165 9.165 0 0 0-7.207-.5c-1.768.7-3.727 3.727-3.727 7.952 0 3.727 2.983 7.107 8.946 6.958 9.94-.248 8.449-12.425 8.449-12.425s4.472.5 6.461-1.491a6.112 6.112 0 0 0 1.491-5.964s-7.952 1.491-9.94-.994c-3.186-3.981-8.946-4.722-8.946-4.722V44.233s5.76-.74 8.946-4.722c1.988-2.485 9.94-.994 9.94-.994a6.112 6.112 0 0 0-1.491-5.964c-1.989-1.988-6.461-1.491-6.461-1.491s1.491-12.176-8.449-12.425c-5.963-.149-8.946 3.231-8.946 6.958 0 4.225 1.959 7.256 3.727 7.952a9.165 9.165 0 0 0 7.207-.5s-1.488 5.219-9.692 5.219c-7.7 0-11.182-8.449-11.182-16.4 0-4.225 4.224-11.928 12.425-12.425 7.7-.5 11.182 2.982 13.667 9.194 2.982-1.242 2.485-5.218 2.485-5.218s14.661 21.868 27.583 22.116 11.431-10.188 11.431-11.928c-8.2 13.171-23.855-1.242-28.08-8.945 4.473-2.485 3.727-4.225 3.727-6.71C162.517 10.437 164.008 0 146.613 0c-9.192 0-22.6 8.692-22.613 21.855C123.991 8.692 110.579 0 101.387 0c-17.395 0-15.9 10.437-28.328 7.952 0 2.485-.746 4.225 3.727 6.71-4.225 7.7-19.88 22.116-28.08 8.945 0 1.74-1.491 12.177 11.431 11.928S87.72 13.419 87.72 13.419s-.5 3.976 2.485 5.218c2.485-6.212 5.964-9.691 13.667-9.194 8.2.5 12.425 8.2 12.425 12.425 0 7.952-3.479 16.4-11.182 16.4-8.2 0-9.692-5.219-9.692-5.219a9.165 9.165 0 0 0 7.207.5c1.768-.7 3.727-3.727 3.727-7.952 0-3.727-2.983-7.107-8.946-6.958-9.94.249-8.449 12.425-8.449 12.425s-4.472-.5-6.461 1.491a6.112 6.112 0 0 0-1.491 5.964s7.952-1.491 9.94.994c3.186 3.982 8.946 4.722 8.946 4.722v12.877s-5.76.741-8.946 4.722c-1.988 2.485-9.94.994-9.94.994a6.112 6.112 0 0 0 1.49 5.964c1.989 1.988 6.461 1.491 6.461 1.491s-1.49 12.177 8.45 12.425c5.963.149 8.946-3.231 8.946-6.958 0-4.225-1.959-7.256-3.727-7.952a9.165 9.165 0 0 0-7.207.5s1.488-5.219 9.692-5.219c7.7 0 11.182 8.449 11.182 16.4 0 4.225-4.224 11.928-12.425 12.425-7.7.5-11.182-2.982-13.667-9.194-2.982 1.242-2.485 5.218-2.485 5.218S73.059 66.059 60.137 65.81 48.706 76 48.706 77.738c8.2-13.171 23.855 1.242 28.08 8.946-4.473 2.485-3.727 4.224-3.727 6.709 12.425-2.485 10.933 7.952 28.328 7.952 9.192 0 22.604-8.692 22.613-21.855Zm18.885-35.257v12.879h-3.727V44.233Zm-37.77 12.879V44.233h3.727v12.879Zm8.7 2.983V41.251S123.991 37.029 124 21.887c.009 15.142 10.188 19.364 10.188 19.364V60.1S124.009 64.316 124 79.458c-.009-15.142-10.188-19.358-10.188-19.358ZM8.447 50.694v-.042a4.223 4.223 0 0 0-8.445 0H0v.042a4.223 4.223 0 0 0 8.445 0Zm13.419 0v-.042a4.968 4.968 0 0 0-9.936 0v.042a4.968 4.968 0 0 0 9.936 0Zm16.649 0v-.042a5.962 5.962 0 0 0-11.924 0v.042a5.962 5.962 0 0 0 11.924 0Z"/>
  <path d="M55.415 56.367s-1.173-1.239-1.177-5.694 1.177-5.695 1.177-5.695-6.1-1.6-9.194-4.473c-3.479-3.23-3.976-6.212-3.976-6.212a6.269 6.269 0 0 0-2.982 5.715c0 4.722 6.212 7.952 6.212 7.952v5.425s-6.212 3.231-6.212 7.952a6.269 6.269 0 0 0 2.982 5.715s.5-2.981 3.976-6.212c3.09-2.869 9.194-4.473 9.194-4.473Zm132.962-5.673h.006v-.042h-.006c-.49-4.684-3.619-5.674-5.732-5.674-5.716 0-11.182 3.976-18.886 3.976-9.208 0-9.443-.5-9.443-.5a5.4 5.4 0 0 1-2.489 2.2h-.116l.058.021c-.02.006-.039.015-.058.021h.116a5.391 5.391 0 0 1 2.489 2.194s.235-.5 9.443-.5c7.7 0 13.17 3.976 18.886 3.976 2.113.001 5.242-.989 5.732-5.672Zm51.176-.042v.042a4.223 4.223 0 0 0 8.445 0v-.042a4.223 4.223 0 0 0-8.445 0Zm-13.419 0v.042a4.968 4.968 0 0 0 9.936 0v-.042a4.968 4.968 0 0 0-9.936 0Zm-16.649 0v.042a5.962 5.962 0 0 0 11.924 0v-.042a5.962 5.962 0 0 0-11.924 0Zm-16.9-5.674s1.173 1.24 1.177 5.7-1.177 5.694-1.177 5.694 6.1 1.6 9.194 4.473c3.479 3.231 3.976 6.212 3.976 6.212a6.269 6.269 0 0 0 2.982-5.715c0-4.721-6.212-7.952-6.212-7.952v-5.43s6.212-3.23 6.212-7.952a6.269 6.269 0 0 0-2.982-5.715s-.5 2.982-3.976 6.212c-3.09 2.87-9.194 4.473-9.194 4.473Z"/>
</svg>
