<?xml version="1.0" encoding="utf-8"?>
<!-- Generator: Adobe Illustrator 26.0.3, SVG Export Plug-In . SVG Version: 6.00 Build 0)  -->
<svg version="1.1" id="Layer_1" xmlns="http://www.w3.org/2000/svg" xmlns:xlink="http://www.w3.org/1999/xlink" x="0px" y="0px"
	 viewBox="0 0 248 248" style="enable-background:new 0 0 248 248;" xml:space="preserve">
<g>
	<g>
		<path d="M97.8,107.5c-9,0-9.4,6.2-9.4,9.2c0,3.2,2.5,6.4,6.8,6.4c6.6,0,5.2-8.4,5.2-8.4s3.9,2.8,2.7,8.4
			c-1.1,5.6-6.7,9.6-12.1,9.6c-6.4,0-15.4-5.4-17.2-14.8c-1.4-7.1,2.7-10.5,2.7-10.5s-4.9-1.7-8.1,0.5c-3.8,2.6-3,7.8-3,7.8
			s-9.6-14.6-25-14.6c-17.8,0-25.2,14.2-25.2,22.4c0,13.2,7.6,23.4,19.8,23.4c13.6,0,14-12.2,14-12.2s3,7.6,7.8,4.2
			c-1.2-1.2-1.2-4.2-0.2-6c1-1.8,4.5-2.8,8-1.6c4.2,1.4,14,9,25,9c15,0,20.8-9,20.8-17.8C110.4,117.3,107.6,107.5,97.8,107.5z
			 M53.8,123.3c-3.7,1.9-5,6-5,6s-2-8.2-8-8.2c-4.6,0-9,2-9,6.8c0,8.2,7.2,7.4,7.2,7.4s-3.4,1.4-5.8,0.8c-3.6-0.9-8-3.6-8-12.4
			c0-9,10.8-12.4,15.4-12.4c10.6,0,20,11.4,20,11.4S56.6,121.9,53.8,123.3z"/>
		<g>
			<g>
				<path d="M140.4,93.8c-2.5,1-3.2,2.8-4.4,3.4c-2.1,1.1-3.8,1-5.4,2.4c-1.5,1.3-1.8,5-2.2,5.2s-1.6,0.2-1.8-0.2s0.8-2.2,1.2-3
					c0.4-0.8,1-2.8,1-5.2c0-1.6-4.8-6.6-4.8-6.6v0c0,0-4.8,5-4.8,6.6c0,2.4,0.6,4.4,1,5.2c0.4,0.8,1.4,2.6,1.2,3s-1.4,0.4-1.8,0.2
					s-0.7-3.9-2.2-5.2c-1.6-1.4-3.3-1.3-5.4-2.4c-1.2-0.6-1.9-2.4-4.4-3.4c-6.2-2.6-8.6,4.6-8.6,4.6s6.8,0.4,10.2,2.6
					c3.6,2.3,6,4.2,8.8,10.4c1.6,3.6,6,3.6,6,3.6v0c0,0,4.4,0,6-3.6c2.8-6.2,5.2-8.1,8.8-10.4c3.4-2.2,10.2-2.6,10.2-2.6
					S146.6,91.2,140.4,93.8z"/>
				<circle cx="124" cy="124" r="4.6"/>
			</g>
			<path d="M140.4,154.2c-2.5-1-3.2-2.8-4.4-3.4c-2.1-1.1-3.8-1-5.4-2.4c-1.5-1.3-1.8-5-2.2-5.2c-0.4-0.2-1.6-0.2-1.8,0.2
				s0.8,2.2,1.2,3s1,2.8,1,5.2c0,1.6-4.8,6.6-4.8,6.6v0c0,0-4.8-5-4.8-6.6c0-2.4,0.6-4.4,1-5.2c0.4-0.8,1.4-2.6,1.2-3
				s-1.4-0.4-1.8-0.2c-0.4,0.2-0.7,3.9-2.2,5.2c-1.6,1.4-3.3,1.3-5.4,2.4c-1.2,0.6-1.9,2.4-4.4,3.4c-6.2,2.6-8.6-4.6-8.6-4.6
				s6.8-0.4,10.2-2.6c3.6-2.3,6-4.2,8.8-10.4c1.6-3.6,6-3.6,6-3.6v0c0,0,4.4,0,6,3.6c2.8,6.2,5.2,8.1,8.8,10.4
				c3.4,2.2,10.2,2.6,10.2,2.6S146.6,156.8,140.4,154.2z"/>
		</g>
		<path d="M0,153.1c0,0,4.6-0.4,5.2-1.5c-0.8-5.2-2.8-9.2-2.8-9.2l0.6-0.6c0,0,3.8,4.2,8.6,6.4c1.4,0,1.4-1,1.4-1s-5-4.2-7.2-9
			c-3-6.5-2.4-9.2-2.4-9.2h0.7c0.4,0,0.7-0.3,0.7-0.7l-0.1-4.5c0-0.5-0.4-0.8-0.8-0.8H3c0,0,1-11.2,2.8-15.2
			c1.7-3.8,4.6-3.6,4.6-3.6s-0.8-1.8-2.2-2.6c-1.5-0.8-3.4,0.4-3.4,0.4s0.1-0.9-0.8-2c-1-1.2-3.6-3.1-4-5"/>
		<path d="M0.4,129.3c0,0,2.8,0.3,5.2-1.5c-2-6.2-3.2-9-3.2-9"/>
	</g>
	<path d="M137.6,122.5c0,8.8,5.8,17.8,20.8,17.8c11,0,20.8-7.6,25-9c3.5-1.2,7-0.2,8,1.6c1,1.8,1,4.8-0.2,6c4.8,3.4,7.8-4.2,7.8-4.2
		s0.4,12.2,14,12.2c12.2,0,19.8-10.2,19.8-23.4c0-8.2-7.4-22.4-25.2-22.4c-15.4,0-25,14.6-25,14.6s0.8-5.2-3-7.8
		c-3.2-2.2-8.1-0.5-8.1-0.5s4,3.3,2.7,10.5c-1.8,9.4-10.8,14.8-17.2,14.8c-5.4,0-11-4-12.1-9.6c-1.1-5.6,2.7-8.4,2.7-8.4
		s-1.4,8.4,5.2,8.4c4.3,0,6.8-3.2,6.8-6.4c0-3-0.4-9.2-9.4-9.2C140.4,107.5,137.6,117.3,137.6,122.5z M187.4,122.7
		c0,0,9.4-11.4,20-11.4c4.6,0,15.4,3.4,15.4,12.4c0,8.8-4.4,11.5-8,12.4c-2.4,0.6-5.8-0.8-5.8-0.8s7.2,0.8,7.2-7.4
		c0-4.8-4.4-6.8-9-6.8c-6,0-8,8.2-8,8.2s-1.3-4.1-5-6C191.4,121.9,187.4,122.7,187.4,122.7z"/>
	<path d="M248,153.1c0,0-4.6-0.4-5.2-1.5c0.8-5.2,2.8-9.2,2.8-9.2l-0.6-0.6c0,0-3.8,4.2-8.6,6.4c-1.4,0-1.4-1-1.4-1s5-4.2,7.2-9
		c3-6.5,2.4-9.2,2.4-9.2h-0.7c-0.4,0-0.7-0.3-0.7-0.7l0.1-4.5c0-0.5,0.4-0.8,0.8-0.8h1c0,0-1-11.2-2.8-15.2
		c-1.7-3.8-4.6-3.6-4.6-3.6s0.8-1.8,2.2-2.6c1.5-0.8,3.4,0.4,3.4,0.4s-0.1-0.9,0.8-2c1-1.2,3.6-3.1,4-5"/>
	<path d="M247.6,129.3c0,0-2.8,0.3-5.2-1.5c2-6.2,3.2-9,3.2-9"/>
	<path d="M247.4,129.3c0,0-2.8,0.3-5.2-1.5c2-6.2,3.2-9,3.2-9"/>
</g>
</svg>
