<svg xmlns="http://www.w3.org/2000/svg" viewBox="0 0 248 248">
  <path d="M124 115.1a61.875 61.875 0 0 0 61.7-57.434H62.3A61.873 61.873 0 0 0 124 115.1Z"/>
  <path d="M247.763 57.666a61.888 61.888 0 0 0-61.883 61.883 61.88 61.88 0 1 1-123.76 0A61.888 61.888 0 0 0 .237 57.666c-.079 0-.158.006-.237.006v66.334c.079 0 .158-.006.237-.006a61.888 61.888 0 0 1 61.883 61.883c0 1.5.072 2.979.177 4.451H185.7c.1-1.472.177-2.952.177-4.451A61.888 61.888 0 0 1 247.763 124c.079 0 .158.006.237.006V57.672c-.079 0-.158-.006-.237-.006Z"/>
</svg>
