<svg xmlns="http://www.w3.org/2000/svg" data-name="Layer 1" viewBox="0 0 248 248">
  <path d="M124.028 111.673a22.92 22.92 0 0 0 0 24.34 22.92 22.92 0 0 0 0-24.34Zm0 36.511a31.082 31.082 0 0 1-12.989 6.178l3.8 35.088a22.157 22.157 0 0 1 8.835 7.488.149.149 0 0 0 .248 0 22.179 22.179 0 0 1 7.442-6.769l4.21-36.15a31.136 31.136 0 0 1-11.544-5.835ZM62.24 0v37.027A65.68 65.68 0 0 1 70.277 26.2a71.414 71.414 0 0 1 52.639-23.129h1.873a71.344 71.344 0 0 1 52.489 23.012 65.676 65.676 0 0 1 8.482 11.532V0Zm42.291 146.838a22.875 22.875 0 0 0 13.8-4.612 31.115 31.115 0 0 1 0-36.766 22.976 22.976 0 0 0-35.966 12.288 2198.45 2198.45 0 0 0 3.883 20.016 22.967 22.967 0 0 0 18.283 9.074Zm38.202-54.182 2.812-19.119s-11.944-7.166-20.9-7.166-21.5 7.165-21.5 7.166l2.814 19.135a31.043 31.043 0 0 1 18.069 6.83 31.043 31.043 0 0 1 18.7-6.846Zm19.174 44.985c1.222-6.4 2.5-13.223 3.742-20.049a22.974 22.974 0 0 0-35.921-12.132 31.119 31.119 0 0 1 0 36.766 22.958 22.958 0 0 0 32.179-4.585Z"/>
  <path d="M167.975 104.484C170.3 91.031 172.2 78.715 172.86 71.1c.969-11.133-2.934-22.1-10.989-30.89a51.081 51.081 0 0 0-37.082-16.235h-1.873A51.154 51.154 0 0 0 85.709 40.3C77.7 49.067 73.838 59.992 74.841 71.06c.7 7.691 2.677 20.054 5.107 33.594A31.356 31.356 0 0 1 92.8 94.932l-1.3-8.853a7.129 7.129 0 0 1-6.867-7.166 6.619 6.619 0 0 1 6.867-6.57s2.091-11.8 15.825-15.676c13.138-3.583 15.527-7.614 18.513-14.183 2.986 6.569 2.986 9.406 16.721 14.183 14.928 4.777 16.123 16.271 16.123 16.273a5.864 5.864 0 0 1 5.375 5.972c0 5.374-5.374 6.569-7.763 5.971s-1.254 8.4-1.474 9.877a31.354 31.354 0 0 1 13.155 9.724Zm7.599 71.866a952.888 952.888 0 0 0-1.889 9.107c-3.181 15.594-5.928 29.062-12.386 39.755-8.012 13.266-20.3 19.714-37.551 19.714-16.665 0-29.038-6.417-36.777-19.072-6.274-10.26-8.861-23.3-11.6-37.1-.649-3.269-1.32-6.649-2.044-10.006-.4-1.868-5.981-28.01-11.087-54.9V248h123.52V123.845c-4.724 25.841-9.8 50.629-10.167 52.417Z"/>
  <path d="M95.872 184.69c.31 1.561.613 3.057.913 4.511a21.886 21.886 0 0 1 8.749-1.819c.429 0 .855.016 1.278.04l-3.508-32.4a30.99 30.99 0 0 1-14.433-4.2c2.761 13.569 4.833 23.271 4.891 23.544.757 3.506 1.445 6.972 2.11 10.324Zm27.876 39.335c15.6.024 20.9-6.977 25.977-26.873-8.851-5.681-21.081.315-22.012 10.76a3.936 3.936 0 0 1-7.819.163 14.44 14.44 0 0 0-14.36-13.1c-2.571 0-5.224.333-7.078 1.865 4.68 19.885 9.705 27.185 25.292 27.185Zm27.728-34.525c.563-2.57 1.134-5.3 1.73-8.223.611-3 1.243-6.094 1.921-9.26.142-.7 1.894-9.264 4.253-21.313a31.007 31.007 0 0 1-15.855 4.343c-.087 0-.173-.006-.26-.007l-3.784 32.494a22.133 22.133 0 0 1 2.576-.155 21.868 21.868 0 0 1 9.419 2.121Z"/>
</svg>
