<svg xmlns="http://www.w3.org/2000/svg" viewBox="0 0 248 248">
  <path d="m129.727 28.809 7.966 7.964 7.462-7.432 13.996 14.002.056-.055 46.697.046-.046 46.658h-.009l13.785 13.809-20.265 20.168-.009.009h.14l-22.59 22.446-12.527-12.543-11.014-.036.009 11.258 6.314.027 9.252 9.259-39.346 39.299 7.966 7.955 39.337-39.29 5.507 5.505-.028 14.608-16.052-.027-7.241 7.248 3.836 4.01h3.414l16.025.027v.083l.009-.046v-.018h11.307l-.009-11.259h-.018l.027-19.277-8.81-8.809 30.571-30.417-.56-.003h.451l.009-.009 12.253-12.203 7.039 7.046 7.957-7.982-25.468-25.49.045-42.006V32.076l-53.406-.046-10.628-10.644 7.489-7.46-7.957-7.964-7.49 7.459L131.802.001 115.834 0l21.355 21.358-7.462 7.451z"/>
  <path d="M210.099 19.519h2.763l4.249-4.249-7.021-7.019-29.47-.036L172.461.03h-15.915l19.393 19.434 34.16.055zm32.33-3.955L226.909.03h-15.924l23.486 23.499 7.958-7.965zm-79.382 99.152 8.288-8.286-7.012-7.01-3.91 4.028-36.409-.036v.008h-1.541l.009 11.268h1.532v-.018l36.409.036 2.634.01zm65.127-73.91-.045 33.519h-.01v2.514l4.378 4.376 6.902-6.89.037-28.83 8.544-8.506V21.097l-19.796 19.709h-.01zm3.263 51.189 7.966 7.956L248 91.375v-15.92l-16.563 16.54zm-12.252 37.7-7.967 7.964 7.434 7.46-14.005 13.993.055.055-.046 46.685-46.67-.046v-.009l-13.813 13.782L124 199.319l-.009-.009v.14l-22.452-22.584 12.546-12.525.037-11.01-11.261.009-.028 6.313-9.26 9.249-39.31-39.336-7.957 7.964 39.3 39.327-5.507 5.505-14.611-.028.028-16.047-7.251-7.24-4.011 3.835v3.414l-.027 16.02h-.083l.046.01h.018v11.304l11.262-.009v-.019l19.282.028 8.811-8.809 30.425 30.564.003-.56v.451l.009.009 12.206 12.249-7.048 7.038 7.985 7.955 25.496-25.462 42.017.046h11.261l.046-53.393 10.646-10.626 7.462 7.488 7.967-7.955-7.462-7.488 13.391-13.359.033-15.993-21.363 21.37-7.452-7.46z"/>
  <path d="M228.477 210.046v2.763l4.249 4.248 7.022-7.02.036-29.462 8.187-8.158v-15.91l-19.439 19.388-.055 34.151zm3.956 32.322 15.538-15.517v-15.919l-23.505 23.48 7.967 7.956zm-99.177-79.361 8.287 8.285 7.012-7.01-4.029-3.909.037-36.399h-.009v-1.542l-11.271.01v1.532h.019l-.037 36.399-.009 2.634zm73.928 65.11-33.527-.046v-.009h-2.515l-4.378 4.377 6.893 6.899 28.837.037 8.508 8.543h15.896l-19.714-19.792v-.009zm-59.159 11.226 8.577 8.594h15.924l-16.544-16.558-7.957 7.964zm-29.752-20.214-7.966-7.964-7.462 7.432-13.997-14.002-.055.055-46.697-.046.046-46.658h.009l-13.786-13.809 20.265-20.168.01-.009h-.14l22.589-22.446 12.528 12.543 11.014.037-.009-11.259-6.315-.027-9.251-9.258 39.346-39.3-7.967-7.955-39.336 39.29-5.507-5.505.027-14.608 16.053.028 7.241-7.249-3.836-4.01h-3.415l-16.024-.027v-.083l-.009.046v.018H54.321l.01 11.259h.018l-.028 19.278 8.811 8.808-30.572 30.417.56.003h-.45l-.009.009-12.253 12.203-7.039-7.046-7.957 7.982 25.468 25.491-.046 42.005v11.259l53.407.046 10.628 10.643-7.489 7.46 7.957 7.964 7.489-7.459 13.397 13.42 16.004.063-21.416-21.42 7.462-7.451z"/>
  <path d="M37.901 228.42h-2.763l-4.25 4.248 7.022 7.019 29.47.037 8.159 8.185h15.915l-19.393-19.434-34.16-.055zm-32.33 3.954 15.52 15.535h15.924L13.529 224.41l-7.958 7.964zm79.381-99.151-8.288 8.285 7.013 7.01 3.909-4.028 36.41.037v-.009h1.541l-.009-11.268h-1.533v.018l-36.409-.036-2.634-.009zm-65.126 73.909.045-33.519h.01v-2.514l-4.378-4.376-6.902 6.89-.037 28.83-8.545 8.506v15.892l19.797-19.709h.01zm-11.23-59.144L0 156.563v15.92l16.563-16.54-7.967-7.955zm20.219-29.745 7.967-7.964-7.434-7.46 14.005-13.992-.055-.056.046-46.685 46.67.046v.009l13.813-13.782L124 48.619l.009.009v-.139l22.452 22.583-12.546 12.525-.037 11.011 11.261-.009.028-6.313 9.26-9.249 39.31 39.336 7.957-7.965-39.3-39.327 5.507-5.505 14.611.028-.028 16.048 7.251 7.239 4.011-3.835v-3.413l.027-16.021h.083l-.046-.009h-.019V54.308l-11.261.01v.018l-19.283-.028-8.811 8.809-30.424-30.564-.003.56v-.45l-.009-.009-12.207-12.25 7.049-7.038-7.985-7.955-25.496 25.462-42.017-.046H32.083l-.046 53.393-10.646 10.626-7.462-7.488-7.967 7.956 7.462 7.487-13.391 13.36v7.799L0 132.132l21.363-21.348 7.452 7.459z"/>
  <path d="M19.523 37.892V35.13l-4.25-4.248-7.021 7.019-.036 29.463-8.187 8.157v15.91l19.439-19.388.055-34.151zM15.567 5.571.029 21.087v15.919l23.504-23.48-7.966-7.955zm99.177 79.361-8.288-8.286-7.012 7.01 4.03 3.909-.037 36.4h.009v1.541l11.27-.009v-1.533h-.018l.037-36.399.009-2.633zm-73.928-65.11 33.527.045v.009h2.515l4.377-4.376-6.892-6.9-28.838-.037L36.998.02H21.101l19.715 19.792v.01zM99.975 8.595 91.397.001H75.473L92.018 16.56l7.957-7.965z"/>
</svg>
