<svg xmlns="http://www.w3.org/2000/svg" viewBox="0 0 248 248">
  <circle cx="124.197" cy="123.815" r="7.686"/>
  <path d="M118.514 169.774s-11.05-3.536-11.05-10.314c0-5.3 5.157-3.536 5.157-3.536a3.59 3.59 0 0 0-1.032 2.652c0 1.474.884 3.242 4.126 3.242a5.361 5.361 0 0 0 4.715-5.452c0-4.715-4.568-7.367-9.283-7.367a9.644 9.644 0 0 0-9.429 10.019c0 11.787 15.912 14.439 15.912 14.439a2.1 2.1 0 0 1-.737-2.063 1.962 1.962 0 0 1 1.621-1.62Z"/>
  <path d="M123.082 169.037a3.574 3.574 0 0 0-2.21-4.42 2.369 2.369 0 0 0 1.328-1.917 11.75 11.75 0 0 0-.59-3.389s-.589 4.125-5.893 4.125c-6.63 0-5.452-6.335-5.452-6.335a2.674 2.674 0 0 0-1.178 2.5c0 5.893 8.381 7.212 10.313 7.366 3.682.302 3.682 2.07 3.682 2.07Zm-27.11 4.863c3.241 0 5.156-2.5 5.156-5.746a15.315 15.315 0 0 0-1.915-6.483 2.9 2.9 0 0 1 0-2.946 3.4 3.4 0 0 0-2.357 1.031c-.884 1.031-.442 3.094-.442 3.094a2.322 2.322 0 0 0-1.768.737 4.245 4.245 0 0 0-.442 2.062 2.685 2.685 0 0 1 1.768-.294c1.473.294 3.094 4.862-.737 4.862-1.915 0-3.389-2.063-3.389-4.273 0-3.241.59-6.335 3.094-9.135 2.441-2.727 3.536-2.063 3.536-2.063l-.142-4.547.081-.081h-.083v-.083l-.081.08-4.548-.142s.665 1.1-2.062 3.536c-2.8 2.5-5.894 3.094-9.135 3.094-2.21 0-4.273-1.473-4.273-3.388 0-3.831 4.567-2.21 4.862-.737a2.685 2.685 0 0 1-.3 1.768 4.262 4.262 0 0 0 2.063-.442 2.322 2.322 0 0 0 .737-1.768s2.062.442 3.094-.442a3.4 3.4 0 0 0 1.031-2.357 2.9 2.9 0 0 1-2.947 0 15.3 15.3 0 0 0-6.482-1.916c-3.242 0-5.746 1.916-5.746 5.157 0 3.536 2.357 7.22 6.777 7.22a30.424 30.424 0 0 0 4.125-.295s-4.567 6.335-9.429 7.072c-1.894.287-4.938.243-6.336-1.621a2.015 2.015 0 0 1 0-2.357 3.855 3.855 0 0 0 2.652 1.179 2.557 2.557 0 0 0 2.358-2.5c0-2.5-1.768-2.947-3.389-2.947a5.222 5.222 0 0 0-5.009 4.273 5.65 5.65 0 0 0 4.42 6.777 17.781 17.781 0 0 0 5.6 0s-3.242 4.863-7.073 5.452-4.862-.884-4.862-.884-.432 2.077.3 3.094a3.656 3.656 0 0 0 1.621 1.326 4.941 4.941 0 0 1-2.21 1.768 12.3 12.3 0 0 1 .368 3.879l-.108.107s.036 0 .1-.011l-.011.1.107-.108a12.3 12.3 0 0 1 3.879.368 4.928 4.928 0 0 1 1.768-2.21 3.647 3.647 0 0 0 1.326 1.621c1.017.726 3.094.294 3.094.294s-1.473-1.031-.884-4.862 5.451-7.072 5.451-7.072a17.779 17.779 0 0 0 0 5.6 5.653 5.653 0 0 0 6.778 4.42 5.223 5.223 0 0 0 4.273-5.009c0-1.621-.443-3.389-2.947-3.389a2.556 2.556 0 0 0-2.5 2.357 3.848 3.848 0 0 0 1.179 2.652 2.017 2.017 0 0 1-2.358 0c-1.863-1.4-1.907-4.441-1.62-6.335.736-4.862 7.072-9.43 7.072-9.43a30.449 30.449 0 0 0-.3 4.126c-.005 4.409 3.679 6.767 7.215 6.767Zm5.893-23.28a16.575 16.575 0 0 1 3.536-3.094 18.05 18.05 0 0 1 5.157-2.063 10.576 10.576 0 0 1-7.576-7.575 18.035 18.035 0 0 1-2.062 5.157 16.575 16.575 0 0 1-3.094 3.536l3.318.721Zm14.655-6.777a3.278 3.278 0 0 0 2.9-.637l1.971-7.759-2.972-1.137-3.626 7.127a3.273 3.273 0 0 0 1.727 2.406Zm-7.169-4.743c.026.028.048.058.076.085l.009-.009a3.4 3.4 0 0 0 2.727.47l5.016-6.239-1.016-1.033-.046-.045-.041-.042-1.033-1.015-6.239 5.016a3.4 3.4 0 0 0 .47 2.726l-.01.01c.028.023.058.046.087.076Zm13.267-2.945-.907 7.944a3.275 3.275 0 0 0 2.463 1.65h.148a3.275 3.275 0 0 0 2.463-1.65l-.907-7.944-1.63.013Zm1.617 76.356h.025c2.777-.29 3.364-2.146 3.364-3.4 0-3.389-2.357-6.63-2.357-11.2 0-5.459.294-5.6.294-5.6a3.2 3.2 0 0 1-1.3-1.475v-.07c0 .012-.008.023-.012.035 0-.012-.009-.023-.013-.035v.07a3.19 3.19 0 0 1-1.3 1.475s.3.14.3 5.6c0 4.568-2.357 7.809-2.357 11.2-.007 1.254.579 3.11 3.356 3.4Z"/>
  <path d="M141.326 174.341c-8.987 0-11.492 6.041-11.492 6.041h-11.173s-2.5-6.041-11.492-6.041c-7.809 0-12.965 7.956-12.965 13.408 0 10.313 6.188 9.429 4.714 16.8 1.474 0 2.5.442 3.979-2.21 4.567 2.5 13.112 11.787 5.3 16.649 1.031 0 7.219.884 7.072-6.777s-13.113-16.355-13.113-16.355 2.357.295 3.094-1.473c-3.684-1.473-5.746-3.536-5.452-8.1a8.071 8.071 0 0 1 7.367-7.366c4.715 0 9.724 2.062 9.724 6.63 0 4.864-3.094 5.746-3.094 5.746a5.432 5.432 0 0 0 .295-4.273c-.413-1.048-2.21-2.21-4.715-2.21-2.21 0-4.213 1.769-4.125 5.3.147 5.894 7.367 5.01 7.367 5.01s-.3 2.652.884 3.83a3.624 3.624 0 0 0 3.536.885s-.884-4.715.589-5.894a9.033 9.033 0 0 0 2.8-5.3h7.636a9.035 9.035 0 0 0 2.8 5.3c1.474 1.179.59 5.894.59 5.894a3.624 3.624 0 0 0 3.536-.885c1.179-1.178.884-3.83.884-3.83s7.219.884 7.367-5.01c.088-3.535-1.916-5.3-4.126-5.3-2.505 0-4.3 1.162-4.714 2.21a5.434 5.434 0 0 0 .294 4.273s-3.094-.882-3.094-5.746c0-4.568 5.009-6.63 9.724-6.63a8.071 8.071 0 0 1 7.367 7.366c.295 4.568-1.768 6.631-5.451 8.1.736 1.768 3.094 1.473 3.094 1.473s-12.966 8.693-13.113 16.355 6.041 6.777 7.072 6.777c-7.809-4.862.737-14.144 5.3-16.649 1.474 2.652 2.505 2.21 3.978 2.21-1.473-7.367 4.715-6.483 4.715-16.8.007-5.449-5.15-13.408-12.959-13.408Zm-13.26 11.2h-7.636v-2.21h7.636Zm2.799-12.084s15.913-2.652 15.913-14.439a9.645 9.645 0 0 0-9.43-10.018c-4.715 0-9.282 2.652-9.282 7.367a5.361 5.361 0 0 0 4.715 5.452c3.241 0 4.125-1.768 4.125-3.242a3.592 3.592 0 0 0-1.031-2.652s5.157-1.768 5.157 3.536c0 6.778-11.051 10.314-11.051 10.314a1.962 1.962 0 0 1 1.621 1.62 2.1 2.1 0 0 1-.737 2.062Z"/>
  <path d="M139.411 159.608a2.674 2.674 0 0 0-1.179-2.5s1.179 6.335-5.451 6.335c-5.3 0-5.894-4.125-5.894-4.125a11.759 11.759 0 0 0-.589 3.389 2.367 2.367 0 0 0 1.326 1.915 3.494 3.494 0 0 0-2.063 1.915 3.453 3.453 0 0 0-.147 2.5s0-1.768 3.683-2.063c1.932-.154 10.314-1.474 10.314-7.366Zm-17.803 14.439h5.279a2.132 2.132 0 0 0 1.326-2.063 1.935 1.935 0 0 0-1.326-1.768h-5.279a1.936 1.936 0 0 0-1.326 1.768 2.133 2.133 0 0 0 1.326 2.063Zm2.652 68.807h-.025a2.5 2.5 0 0 0 0 5.007h.025a2.5 2.5 0 0 0 0-5.007Zm0-7.954h-.025a2.946 2.946 0 0 0 0 5.891h.025a2.946 2.946 0 0 0 0-5.891Zm0-9.874h-.025a3.535 3.535 0 0 0 0 7.07h.025a3.535 3.535 0 0 0 0-7.07Zm7.715-81.183a3.276 3.276 0 0 0 1.732-2.406l-3.626-7.127-2.972 1.137 1.971 7.759a3.275 3.275 0 0 0 2.895.637Zm7.805-7.643-6.24-5.016-1.12 1.1-1.1 1.121 5.017 6.239a3.337 3.337 0 0 0 2.818-.552v.006c.017-.017.03-.034.045-.051s.021-.017.03-.026a3.337 3.337 0 0 0 .55-2.821Zm-9.504 84.258c-1.7-1.833-2.652-5.452-2.652-5.452s-.735.7-3.376.7-3.376-.7-3.376-.7-.951 3.619-2.653 5.452a7.275 7.275 0 0 1-3.683 2.357 3.717 3.717 0 0 0 3.389 1.768c2.8 0 4.715-3.683 4.715-3.683h3.216s1.915 3.683 4.715 3.683a3.716 3.716 0 0 0 3.388-1.768 7.279 7.279 0 0 1-3.683-2.357Zm28.88-73.816c11.787 0 14.439-15.912 14.439-15.912a2.1 2.1 0 0 1-2.063.736 1.961 1.961 0 0 1-1.62-1.62S166.376 140.9 159.6 140.9c-5.3 0-3.536-5.157-3.536-5.157a3.59 3.59 0 0 0 2.652 1.032c1.473 0 3.241-.884 3.241-4.126a5.36 5.36 0 0 0-5.451-4.715c-4.715 0-7.367 4.568-7.367 9.283a9.644 9.644 0 0 0 10.017 9.425Z"/>
  <path d="M157.241 138.1a2.674 2.674 0 0 0 2.5 1.178c5.894 0 7.213-8.382 7.367-10.313.3-3.684 2.063-3.684 2.063-3.684a3.574 3.574 0 0 0-4.42 2.21 2.37 2.37 0 0 0-1.916-1.326 11.749 11.749 0 0 0-3.388.59s4.125.589 4.125 5.893c.004 6.627-6.331 5.452-6.331 5.452Zm25.047 40.072a3.656 3.656 0 0 0 1.621-1.326c.726-1.017.294-3.094.294-3.094s-1.031 1.473-4.862.884-7.072-5.451-7.072-5.451a17.779 17.779 0 0 0 5.6 0 5.653 5.653 0 0 0 4.42-6.778 5.223 5.223 0 0 0-5.01-4.273c-1.62 0-3.388.442-3.388 2.947a2.556 2.556 0 0 0 2.357 2.505 3.848 3.848 0 0 0 2.652-1.179 2.015 2.015 0 0 1 0 2.357c-1.4 1.864-4.442 1.908-6.335 1.621-4.862-.737-9.43-7.072-9.43-7.072a30.449 30.449 0 0 0 4.126.3c4.42 0 6.777-3.684 6.777-7.22 0-3.241-2.5-5.157-5.746-5.157a15.312 15.312 0 0 0-6.483 1.916 2.9 2.9 0 0 1-2.947 0 3.4 3.4 0 0 0 1.032 2.357c1.031.884 3.094.442 3.094.442a2.318 2.318 0 0 0 .737 1.768 4.257 4.257 0 0 0 2.062.442 2.688 2.688 0 0 1-.294-1.768c.294-1.473 4.862-3.094 4.862.737 0 1.915-2.063 3.389-4.273 3.389-3.242 0-6.336-.59-9.135-3.094-2.727-2.441-2.063-3.537-2.063-3.537l-4.714.148-.148 4.714s1.1-.664 3.536 2.063c2.5 2.8 3.094 5.894 3.094 9.135 0 2.21-1.473 4.273-3.388 4.273-3.831 0-2.21-4.568-.737-4.862a2.688 2.688 0 0 1 1.768.294 4.257 4.257 0 0 0-.442-2.062 2.322 2.322 0 0 0-1.768-.737s.442-2.063-.442-3.094a3.4 3.4 0 0 0-2.357-1.031 2.9 2.9 0 0 1 0 2.946 15.3 15.3 0 0 0-1.916 6.483c0 3.241 1.916 5.746 5.157 5.746 3.536 0 7.219-2.357 7.219-6.777a30.55 30.55 0 0 0-.294-4.126s6.335 4.568 7.072 9.43c.287 1.894.243 4.938-1.621 6.335a2.015 2.015 0 0 1-2.357 0 3.848 3.848 0 0 0 1.178-2.652 2.555 2.555 0 0 0-2.5-2.357c-2.505 0-2.947 1.768-2.947 3.389a5.222 5.222 0 0 0 4.273 5.009 5.652 5.652 0 0 0 6.777-4.42 17.779 17.779 0 0 0 0-5.6s4.862 3.242 5.452 7.072-.884 4.862-.884 4.862 2.076.432 3.094-.294a3.656 3.656 0 0 0 1.326-1.621 4.935 4.935 0 0 1 1.768 2.21 11.725 11.725 0 0 1 4.072-.348 11.742 11.742 0 0 1 .348-4.074 4.935 4.935 0 0 1-2.215-1.77Zm-34.92-30.941 3.39-.736a16.575 16.575 0 0 1-3.094-3.536 18.05 18.05 0 0 1-2.064-5.159 11.019 11.019 0 0 1-2.8 4.862 11.019 11.019 0 0 1-4.862 2.8 18.038 18.038 0 0 1 5.156 2.063 16.541 16.541 0 0 1 3.536 3.094l.737-3.389Zm-3.387-15.391a3.278 3.278 0 0 0-.637-2.9l-7.76-1.971-1.136 2.972 7.126 3.626a3.275 3.275 0 0 0 2.407-1.727Zm1.906-7.654v-.148a3.275 3.275 0 0 0-1.65-2.463l-7.944.907.013 1.63-.013 1.63 7.944.907a3.275 3.275 0 0 0 1.65-2.463Zm66.762-.086c-.29-2.777-2.146-3.364-3.4-3.364-3.388 0-6.63 2.357-11.2 2.357-5.459 0-5.6-.294-5.6-.294a3.2 3.2 0 0 1-1.476 1.3h-.069c.012 0 .023.008.035.012l-.035.013h.069a3.2 3.2 0 0 1 1.476 1.3s.14-.3 5.6-.3c4.567 0 7.809 2.357 11.2 2.357 1.253 0 3.109-.587 3.4-3.363v-.025Z"/>
  <path d="M212.345 133.087c-7.662.147-16.355 13.113-16.355 13.113s.295-2.357-1.473-3.094c-1.474 3.683-3.536 5.746-8.1 5.451a8.071 8.071 0 0 1-7.367-7.366c0-4.715 2.063-9.725 6.631-9.725 4.864 0 5.746 3.094 5.746 3.094a5.434 5.434 0 0 0-4.273-.294c-1.049.413-2.21 2.21-2.21 4.715 0 2.21 1.769 4.213 5.3 4.125 5.894-.147 5.01-7.367 5.01-7.367s2.652.295 3.83-.884a3.622 3.622 0 0 0 .884-3.536s-4.714.884-5.893-.589a9.033 9.033 0 0 0-5.3-2.8v-7.636a9.033 9.033 0 0 0 5.3-2.8c1.179-1.473 5.893-.589 5.893-.589a3.622 3.622 0 0 0-.884-3.536c-1.178-1.179-3.83-.884-3.83-.884s.884-7.22-5.01-7.367c-3.535-.088-5.3 1.916-5.3 4.126 0 2.5 1.161 4.3 2.21 4.714a5.434 5.434 0 0 0 4.273-.294s-.882 3.094-5.746 3.094c-4.568 0-6.631-5.01-6.631-9.724a8.071 8.071 0 0 1 7.367-7.367c4.568-.3 6.63 1.768 8.1 5.451 1.768-.736 1.473-3.094 1.473-3.094s8.693 12.966 16.355 13.113 6.777-6.041 6.777-7.072c-4.862 7.809-14.144-.737-16.649-5.3 2.652-1.474 2.21-2.5 2.21-3.978-7.367 1.473-6.483-4.715-16.8-4.715-5.452 0-13.408 5.157-13.408 12.966 0 8.987 6.041 11.492 6.041 11.492v11.17s-6.041 2.5-6.041 11.493c0 7.809 7.956 12.965 13.408 12.965 10.313 0 9.429-6.188 16.8-4.715 0-1.473.442-2.5-2.21-3.978 2.5-4.567 11.787-13.113 16.649-5.3 0-1.037.884-7.225-6.777-7.078Zm-28.878-8.962v-3.831h2.21v7.636h-2.21Zm-11.935-7.367a2.1 2.1 0 0 1 2.063.736s-2.652-15.912-14.439-15.912a9.645 9.645 0 0 0-10.019 9.43c0 4.714 2.652 9.282 7.367 9.282a5.36 5.36 0 0 0 5.451-4.715c0-3.241-1.768-4.125-3.241-4.125a3.592 3.592 0 0 0-2.652 1.031s-1.768-5.157 3.536-5.157c6.778 0 10.314 11.05 10.314 11.05a1.961 1.961 0 0 1 1.62-1.62Z"/>
  <path d="M167.112 119.262c-.154-1.931-1.473-10.313-7.367-10.313a2.673 2.673 0 0 0-2.5 1.179s6.335-1.179 6.335 5.451c0 5.3-4.125 5.893-4.125 5.893a11.749 11.749 0 0 0 3.388.59 2.37 2.37 0 0 0 1.916-1.326 3.572 3.572 0 0 0 4.42 2.21s-1.772 0-2.067-3.684Zm7.072 7.49v-5.28a2.131 2.131 0 0 0-2.062-1.326 1.935 1.935 0 0 0-1.768 1.326v5.28a1.935 1.935 0 0 0 1.768 1.326 2.131 2.131 0 0 0 2.062-1.326ZM248 124.1a2.5 2.5 0 0 0-5.007 0v.025a2.5 2.5 0 0 0 5.007 0v-.025Zm-7.073 0a2.946 2.946 0 0 0-5.891 0v.025a2.946 2.946 0 0 0 5.891 0v-.025Zm-8.693 0a3.535 3.535 0 0 0-7.07 0v.025a3.535 3.535 0 0 0 7.07 0v-.025Zm-96.65-2.849 7.76-1.971a2.7 2.7 0 0 0-1.77-4.627l-7.126 3.626Zm85.453 2.849v-1.6s3.684-1.915 3.684-4.715a3.717 3.717 0 0 0-1.768-3.389 7.277 7.277 0 0 1-2.358 3.684c-1.832 1.7-5.451 2.652-5.451 2.652s.695.735.7 3.376-.7 3.376-.7 3.376 3.619.951 5.451 2.652a7.277 7.277 0 0 1 2.358 3.684 3.717 3.717 0 0 0 1.768-3.389c0-2.8-3.684-4.715-3.684-4.715V124.1Zm-90.968-45.564s11.051 3.536 11.051 10.314c0 5.3-5.157 3.536-5.157 3.536a3.592 3.592 0 0 0 1.031-2.652c0-1.474-.884-3.242-4.125-3.242a5.361 5.361 0 0 0-4.715 5.452c0 4.715 4.567 7.367 9.282 7.367a9.645 9.645 0 0 0 9.43-10.019c0-11.787-15.913-14.439-15.913-14.439a2.1 2.1 0 0 1 .737 2.063 1.961 1.961 0 0 1-1.621 1.62Z"/>
  <path d="M125.5 79.273a3.572 3.572 0 0 0 2.21 4.42 2.369 2.369 0 0 0-1.326 1.915 11.759 11.759 0 0 0 .591 3.392s.59-4.125 5.894-4.125c6.63 0 5.451 6.335 5.451 6.335a2.674 2.674 0 0 0 1.179-2.5c0-5.893-8.382-7.212-10.314-7.366-3.685-.303-3.685-2.071-3.685-2.071Zm27.112-4.862c-3.241 0-5.157 2.5-5.157 5.746a15.3 15.3 0 0 0 1.916 6.483 2.9 2.9 0 0 1 0 2.946 3.4 3.4 0 0 0 2.357-1.031c.884-1.031.442-3.094.442-3.094a2.322 2.322 0 0 0 1.768-.737 4.257 4.257 0 0 0 .442-2.062 2.688 2.688 0 0 1-1.768.294c-1.473-.294-3.094-4.862.737-4.862 1.915 0 3.388 2.063 3.388 4.273 0 3.241-.589 6.335-3.094 9.135-2.44 2.727-3.536 2.063-3.536 2.063l.142 4.548-.08.08h.083v.083l.08-.08 4.548.142s-.664-1.1 2.063-3.536c2.8-2.505 5.893-3.094 9.135-3.094 2.21 0 4.273 1.473 4.273 3.388 0 3.831-4.568 2.21-4.862.737a2.688 2.688 0 0 1 .294-1.768 4.257 4.257 0 0 0-2.062.442 2.318 2.318 0 0 0-.737 1.768s-2.063-.442-3.094.442a3.4 3.4 0 0 0-1.032 2.357 2.9 2.9 0 0 1 2.947 0 15.3 15.3 0 0 0 6.483 1.916c3.241 0 5.746-1.916 5.746-5.157 0-3.536-2.357-7.22-6.777-7.22a30.449 30.449 0 0 0-4.126.3s4.568-6.335 9.43-7.072c1.893-.287 4.937-.243 6.335 1.621a2.015 2.015 0 0 1 0 2.357 3.852 3.852 0 0 0-2.652-1.179 2.556 2.556 0 0 0-2.357 2.5c0 2.5 1.768 2.947 3.388 2.947a5.223 5.223 0 0 0 5.01-4.273 5.652 5.652 0 0 0-4.42-6.777 17.779 17.779 0 0 0-5.6 0s3.241-4.863 7.072-5.452 4.862.884 4.862.884.432-2.077-.294-3.094a3.656 3.656 0 0 0-1.621-1.326 4.935 4.935 0 0 1 2.21-1.768 12.3 12.3 0 0 1-.368-3.879l.108-.107-.1.011.011-.1-.107.108a12.3 12.3 0 0 1-3.879-.368 4.935 4.935 0 0 1-1.768 2.21 3.656 3.656 0 0 0-1.326-1.621c-1.017-.726-3.094-.294-3.094-.294s1.473 1.031.884 4.862-5.452 7.072-5.452 7.072a17.779 17.779 0 0 0 0-5.6 5.652 5.652 0 0 0-6.777-4.42 5.222 5.222 0 0 0-4.273 5.009c0 1.621.442 3.389 2.947 3.389a2.556 2.556 0 0 0 2.5-2.357 3.852 3.852 0 0 0-1.179-2.652 2.015 2.015 0 0 1 2.357 0c1.864 1.4 1.908 4.441 1.621 6.335-.737 4.862-7.072 9.43-7.072 9.43a30.55 30.55 0 0 0 .294-4.126c.01-4.415-3.673-6.772-7.209-6.772Zm-5.894 23.279a16.541 16.541 0 0 1-3.536 3.094 18.038 18.038 0 0 1-5.156 2.063 10.572 10.572 0 0 1 7.575 7.575 18.05 18.05 0 0 1 2.063-5.157 16.575 16.575 0 0 1 3.094-3.536l-3.318-.721Zm-14.655 6.777a3.275 3.275 0 0 0-2.895.637l-1.971 7.759 2.972 1.137 3.626-7.126a3.274 3.274 0 0 0-1.732-2.407Zm7.17 4.747c-.026-.028-.049-.058-.077-.085l-.009.009a3.4 3.4 0 0 0-2.726-.47l-5.017 6.239 1.016 1.033.047.045.041.042 1.032 1.015 6.24-5.016a3.4 3.4 0 0 0-.47-2.726l.009-.009c-.027-.028-.057-.051-.086-.077Zm-13.267 2.941.907-7.944a3.275 3.275 0 0 0-2.463-1.65h-.148a3.275 3.275 0 0 0-2.463 1.65l.907 7.944 1.63-.013ZM124.348 35.8h-.025c-2.777.29-3.363 2.146-3.363 3.4 0 3.389 2.357 6.631 2.357 11.2 0 5.459-.295 5.6-.295 5.6a3.189 3.189 0 0 1 1.3 1.476v.069c0-.012.009-.023.013-.035 0 .012.009.023.012.035v-.075a3.194 3.194 0 0 1 1.3-1.476s-.294-.14-.294-5.6c0-4.567 2.357-7.809 2.357-11.2.002-1.249-.585-3.105-3.362-3.394Z"/>
  <path d="M107.257 73.969c8.988 0 11.492-6.041 11.492-6.041h11.173s2.5 6.041 11.492 6.041c7.809 0 12.966-7.956 12.966-13.408 0-10.313-6.188-9.429-4.715-16.8-1.473 0-2.5-.442-3.978 2.21-4.567-2.505-13.113-11.787-5.3-16.649-1.031 0-7.22-.884-7.072 6.777s13.113 16.355 13.113 16.355-2.358-.3-3.094 1.473c3.683 1.473 5.746 3.536 5.451 8.1a8.071 8.071 0 0 1-7.367 7.366c-4.714 0-9.724-2.062-9.724-6.63 0-4.864 3.094-5.746 3.094-5.746a5.434 5.434 0 0 0-.294 4.273c.412 1.048 2.21 2.21 4.714 2.21 2.21 0 4.214-1.769 4.126-5.3-.148-5.894-7.367-5.01-7.367-5.01s.3-2.652-.884-3.83a3.622 3.622 0 0 0-3.536-.884s.884 4.714-.59 5.893a9.035 9.035 0 0 0-2.8 5.3h-7.636a9.033 9.033 0 0 0-2.8-5.3c-1.473-1.179-.589-5.893-.589-5.893a3.622 3.622 0 0 0-3.536.884c-1.179 1.178-.884 3.83-.884 3.83s-7.22-.884-7.367 5.01c-.088 3.535 1.915 5.3 4.125 5.3 2.5 0 4.3-1.162 4.715-2.21a5.432 5.432 0 0 0-.3-4.273s3.095.882 3.095 5.746c0 4.568-5.01 6.63-9.725 6.63a8.072 8.072 0 0 1-7.367-7.366c-.294-4.568 1.768-6.631 5.452-8.1-.737-1.768-3.094-1.473-3.094-1.473s12.965-8.693 13.113-16.355-6.041-6.777-7.072-6.777c7.808 4.862-.737 14.144-5.305 16.649-1.473-2.652-2.5-2.21-3.978-2.21 1.474 7.367-4.714 6.483-4.714 16.8.002 5.452 5.158 13.408 12.967 13.408Zm13.261-11.2h7.636v2.21h-7.636Zm-2.8 12.084s-15.912 2.652-15.912 14.439a9.644 9.644 0 0 0 9.429 10.019c4.715 0 9.283-2.652 9.283-7.367a5.361 5.361 0 0 0-4.715-5.452c-3.242 0-4.126 1.768-4.126 3.242a3.59 3.59 0 0 0 1.032 2.652s-5.157 1.768-5.157-3.536c0-6.778 11.05-10.314 11.05-10.314a1.961 1.961 0 0 1-1.62-1.62 2.1 2.1 0 0 1 .736-2.063Z"/>
  <path d="M109.173 88.7a2.674 2.674 0 0 0 1.178 2.5s-1.178-6.335 5.452-6.335c5.3 0 5.893 4.125 5.893 4.125a11.75 11.75 0 0 0 .59-3.389 2.369 2.369 0 0 0-1.326-1.915 3.574 3.574 0 0 0 2.21-4.42s0 1.768-3.684 2.063c-1.932.161-10.313 1.48-10.313 7.371Zm17.802-14.437H121.7a2.133 2.133 0 0 0-1.326 2.063 1.936 1.936 0 0 0 1.326 1.768h5.279a1.935 1.935 0 0 0 1.326-1.768 2.132 2.132 0 0 0-1.33-2.063Zm-2.652-68.807h.025a2.5 2.5 0 0 0 0-5.007h-.025a2.5 2.5 0 0 0 0 5.007Zm0 7.956h.025a2.946 2.946 0 0 0 0-5.891h-.025a2.946 2.946 0 0 0 0 5.891Zm0 9.872h.025a3.535 3.535 0 0 0 0-7.07h-.025a3.535 3.535 0 0 0 0 7.07Zm-2.848 89.579L119.5 105.1a2.7 2.7 0 0 0-4.627 1.77L118.5 114Zm-12.675-.75 6.239 5.016 1.121-1.1 1.1-1.121-5.016-6.239a3.337 3.337 0 0 0-2.818.552l-.006-.006-.045.051c-.016.017-.02.017-.03.027a3.337 3.337 0 0 0-.545 2.82Zm9.507-84.261c1.7 1.833 2.653 5.452 2.653 5.452s.734-.7 3.376-.7 3.376.7 3.376.7.951-3.619 2.652-5.452a7.275 7.275 0 0 1 3.684-2.357 3.719 3.719 0 0 0-3.389-1.768c-2.8 0-4.715 3.683-4.715 3.683h-3.216s-1.916-3.683-4.715-3.683a3.717 3.717 0 0 0-3.389 1.768 7.275 7.275 0 0 1 3.683 2.357Zm-28.879 73.816c-11.787 0-14.439 15.912-14.439 15.912a2.1 2.1 0 0 1 2.062-.736 1.961 1.961 0 0 1 1.621 1.62s3.536-11.05 10.314-11.05c5.3 0 3.536 5.157 3.536 5.157a3.592 3.592 0 0 0-2.652-1.031c-1.474 0-3.242.883-3.242 4.125a5.361 5.361 0 0 0 5.452 4.715c4.714 0 7.366-4.568 7.366-9.283a9.643 9.643 0 0 0-10.018-9.429Z"/>
  <path d="M85.007 115.665c0-6.63 6.336-5.452 6.336-5.452a2.674 2.674 0 0 0-2.505-1.178c-5.893 0-7.212 8.382-7.367 10.313-.294 3.684-2.062 3.684-2.062 3.684a3.455 3.455 0 0 0 2.5-.148 3.491 3.491 0 0 0 1.916-2.062 2.369 2.369 0 0 0 1.915 1.326 11.757 11.757 0 0 0 3.389-.59s-4.122-.589-4.122-5.893ZM66.3 70.138a3.656 3.656 0 0 0-1.621 1.326c-.727 1.017-.3 3.094-.3 3.094s1.032-1.473 4.862-.884 7.073 5.451 7.073 5.451a17.781 17.781 0 0 0-5.6 0A5.652 5.652 0 0 0 66.3 85.9a5.222 5.222 0 0 0 5.009 4.273c1.621 0 3.389-.442 3.389-2.947a2.557 2.557 0 0 0-2.358-2.5 3.85 3.85 0 0 0-2.656 1.174 2.015 2.015 0 0 1 0-2.357c1.4-1.864 4.442-1.908 6.336-1.621 4.862.74 9.429 7.078 9.429 7.078a30.424 30.424 0 0 0-4.125-.3c-4.42 0-6.777 3.684-6.777 7.22 0 3.241 2.5 5.157 5.746 5.157a15.3 15.3 0 0 0 6.482-1.916 2.9 2.9 0 0 1 2.947 0 3.4 3.4 0 0 0-1.031-2.357c-1.032-.884-3.094-.442-3.094-.442a2.322 2.322 0 0 0-.737-1.762 4.262 4.262 0 0 0-2.063-.442 2.685 2.685 0 0 1 .3 1.768c-.3 1.473-4.862 3.094-4.862-.737 0-1.915 2.063-3.389 4.273-3.389 3.241 0 6.335.59 9.135 3.094 2.727 2.441 2.062 3.537 2.062 3.537l4.715-.148.147-4.714s-1.095.664-3.536-2.063c-2.5-2.8-3.094-5.894-3.094-9.135 0-2.21 1.474-4.273 3.389-4.273 3.831 0 2.21 4.568.737 4.862a2.688 2.688 0 0 1-1.768-.294 4.257 4.257 0 0 0 .442 2.062 2.322 2.322 0 0 0 1.768.737s-.442 2.063.442 3.094a3.4 3.4 0 0 0 2.353 1.027 2.9 2.9 0 0 1 0-2.946 15.315 15.315 0 0 0 1.915-6.483c0-3.241-1.915-5.746-5.156-5.746-3.536 0-7.22 2.357-7.22 6.777a30.449 30.449 0 0 0 .3 4.126s-6.336-4.568-7.072-9.43c-.287-1.894-.243-4.938 1.62-6.335a2.017 2.017 0 0 1 2.358 0 3.848 3.848 0 0 0-1.183 2.651 2.556 2.556 0 0 0 2.505 2.357c2.5 0 2.947-1.768 2.947-3.389a5.223 5.223 0 0 0-4.273-5.009 5.653 5.653 0 0 0-6.778 4.42 17.779 17.779 0 0 0 0 5.6s-4.862-3.242-5.451-7.072.884-4.862.884-4.862-2.077-.432-3.094.294a3.647 3.647 0 0 0-1.326 1.621 4.928 4.928 0 0 1-1.768-2.21 11.73 11.73 0 0 1-4.073.348 11.742 11.742 0 0 1-.348 4.074 4.941 4.941 0 0 1 2.213 1.766Zm34.916 30.941-3.39.736a16.575 16.575 0 0 1 3.094 3.536 18.035 18.035 0 0 1 2.062 5.157 11.027 11.027 0 0 1 2.8-4.862 11.019 11.019 0 0 1 4.862-2.8 18.05 18.05 0 0 1-5.157-2.063 16.575 16.575 0 0 1-3.536-3.094l-.736 3.389Zm3.384 15.391a3.273 3.273 0 0 0 .637 2.9l7.763 1.967 1.137-2.972-7.127-3.626a3.273 3.273 0 0 0-2.41 1.731Zm-1.9 7.654v.148a3.275 3.275 0 0 0 1.65 2.463l7.944-.907-.013-1.63.013-1.63-7.944-.907a3.275 3.275 0 0 0-1.65 2.463Zm-66.765.086c.29 2.777 2.145 3.364 3.4 3.364 3.389 0 6.63-2.357 11.2-2.357 5.459 0 5.6.294 5.6.294a3.2 3.2 0 0 1 1.476-1.3h.069l-.034-.012.034-.013h-.069a3.2 3.2 0 0 1-1.476-1.3s-.139.3-5.6.3c-4.568 0-7.809-2.357-11.2-2.357-1.253 0-3.108.587-3.4 3.363v.025Z"/>
  <path d="M74.105 141.277c0-8.988-6.041-11.493-6.041-11.493v-11.172s6.041-2.5 6.041-11.493c0-7.808-7.957-12.965-13.408-12.965-10.314 0-9.43 6.188-16.8 4.715 0 1.473-.443 2.5 2.21 3.978-2.5 4.567-11.787 13.113-16.649 5.3 0 1.031-.884 7.219 6.777 7.072s16.358-13.109 16.358-13.109-.294 2.357 1.474 3.094c1.473-3.683 3.536-5.746 8.1-5.451a8.071 8.071 0 0 1 7.367 7.366c0 4.715-2.063 9.725-6.63 9.725-4.864 0-5.746-3.094-5.746-3.094a5.433 5.433 0 0 0 4.273.294c1.048-.413 2.21-2.21 2.21-4.715 0-2.21-1.77-4.213-5.3-4.125-5.893.147-5.009 7.367-5.009 7.367s-2.652-.3-3.831.884a3.625 3.625 0 0 0-.884 3.536s4.715-.884 5.894.589a9.031 9.031 0 0 0 5.3 2.8v7.636a9.031 9.031 0 0 0-5.3 2.8c-1.179 1.473-5.894.589-5.894.589a3.625 3.625 0 0 0 .884 3.536c1.179 1.179 3.831.884 3.831.884s-.884 7.22 5.009 7.367c3.535.088 5.305-1.915 5.305-4.126 0-2.5-1.162-4.3-2.21-4.714a5.433 5.433 0 0 0-4.273.294s.882-3.094 5.746-3.094c4.567 0 6.63 5.01 6.63 9.725a8.071 8.071 0 0 1-7.367 7.366c-4.567.295-6.63-1.768-8.1-5.451-1.768.737-1.474 3.094-1.474 3.094S43.9 133.32 36.239 133.173s-6.777 6.041-6.777 7.072c4.862-7.809 14.144.737 16.649 5.3-2.653 1.474-2.21 2.5-2.21 3.978 7.366-1.473 6.482 4.715 16.8 4.715 5.447.004 13.404-5.153 13.404-12.961Zm-8.988-17.092v3.831h-2.21v-7.636h2.21Zm24.311 22.543a9.644 9.644 0 0 0 10.018-9.43c0-4.714-2.652-9.282-7.366-9.282a5.361 5.361 0 0 0-5.452 4.715c0 3.241 1.768 4.125 3.242 4.125a3.592 3.592 0 0 0 2.652-1.031s1.768 5.157-3.536 5.157c-6.778 0-10.314-11.05-10.314-11.05a1.961 1.961 0 0 1-1.621 1.62 2.1 2.1 0 0 1-2.062-.736s2.652 15.912 14.439 15.912Z"/>
  <path d="M89.133 126.838a11.757 11.757 0 0 0-3.389-.59 2.369 2.369 0 0 0-1.915 1.326 3.494 3.494 0 0 0-1.916-2.063 3.457 3.457 0 0 0-2.5-.147s1.768 0 2.062 3.684c.155 1.931 1.474 10.313 7.367 10.313a2.674 2.674 0 0 0 2.505-1.179s-6.336 1.179-6.336-5.451c-.004-5.304 4.122-5.893 4.122-5.893Zm-14.733-5.28v5.28a2.133 2.133 0 0 0 2.063 1.326 1.936 1.936 0 0 0 1.768-1.326v-5.28a1.936 1.936 0 0 0-1.768-1.326 2.133 2.133 0 0 0-2.063 1.326Zm-68.808 2.627a2.5 2.5 0 0 0-5.007 0v.025a2.5 2.5 0 0 0 5.007 0v-.025Zm7.956 0a2.946 2.946 0 0 0-5.891 0v.025a2.946 2.946 0 0 0 5.891 0v-.025Zm9.872 0a3.535 3.535 0 0 0-7.07 0v.025a3.535 3.535 0 0 0 7.07 0v-.025Zm83.589 9.472 7.127-3.626-1.136-2.972-7.759 1.971a2.7 2.7 0 0 0 1.769 4.627ZM32.742 124.2c0-2.641.7-3.376.7-3.376s-3.62-.951-5.452-2.652a7.27 7.27 0 0 1-2.357-3.684 3.717 3.717 0 0 0-1.768 3.389c0 2.8 3.683 4.715 3.683 4.715v3.216s-3.683 1.916-3.683 4.715a3.717 3.717 0 0 0 1.768 3.389 7.27 7.27 0 0 1 2.357-3.684c1.832-1.7 5.452-2.652 5.452-2.652s-.698-.737-.7-3.376Z"/>
</svg>
