<?xml version="1.0" encoding="utf-8"?>
<!-- Generator: Adobe Illustrator 26.0.3, SVG Export Plug-In . SVG Version: 6.00 Build 0)  -->
<svg version="1.1" id="Layer_1" xmlns="http://www.w3.org/2000/svg" xmlns:xlink="http://www.w3.org/1999/xlink" x="0px" y="0px"
	 viewBox="0 0 248 248" style="enable-background:new 0 0 248 248;" xml:space="preserve">
<g>
	<path d="M137.3,120.6c-3.9,0-6.4,2-6.4,2l-1.1-2.2c2-3.1,9-3.9,9-3.9s-1.2-3.8-0.8-6l0.3-0.3c-0.1,0-0.1,0-0.2,0c0,0,0,0,0,0l0,0
		c-2.2,0.4-6-0.8-6-0.8s-0.8,7-3.9,9l-2.2-1.1c0,0,2-2.5,2-6.4c0-4.2-3.5-6.3-3.5-6.3H124c0,0-3.5,2.1-3.5,6.3c0,3.9,2,6.4,2,6.4
		l-2.2,1.1c-3.1-2-3.9-9-3.9-9s-3.8,1.2-6,0.8l0,0c0,0,0,0,0,0c-0.1,0-0.1,0-0.2,0l0.3,0.3c0.4,2.2-0.8,6-0.8,6s7,0.8,9,3.9
		l-1.1,2.2c0,0-2.5-2-6.4-2c-4.2,0-6.3,3.5-6.3,3.5h0c0,0,2.1,3.5,6.3,3.5c3.9,0,6.4-2,6.4-2l1.1,2.2c-2,3.1-9,3.9-9,3.9
		s1.2,3.8,0.8,6l0,0c0,0,0,0,0,0c0,0.1,0,0.1,0,0.2l0.3-0.3c2.2-0.4,6,0.8,6,0.8s0.8-7,3.9-9l2.2,1.1c0,0-2,2.5-2,6.4
		c0,3.4,2.3,5.4,3.2,6.1h0.3c0.9-0.7,3.2-2.7,3.2-6.1c0-3.9-2-6.4-2-6.4l2.2-1.1c3.1,2,3.9,9,3.9,9s3.8-1.2,6-0.8l0.3,0.3
		c0-0.1,0-0.1,0-0.2c0,0,0,0,0,0l0,0c-0.4-2.2,0.8-6,0.8-6s-7-0.8-9-3.9l1.1-2.2c0,0,2.5,2,6.4,2c4.2,0,6.3-3.5,6.3-3.5h0
		C143.6,124.1,141.5,120.6,137.3,120.6z"/>
	<path d="M190.2,172.1c0,0,2.3-0.8,2.5-3.6c0.3-3.4-3.6-4.8-3.6-4.8v-3.1c0,0-2,0.1-2.8,1.7c-0.6,1.1-0.3,3.4-0.3,3.4s0,0.3-3.4,0.6
		c-4.5,0.3-8.1-2.8-8.1-2.8s6.8,1.2,10.1-4.2c3.4-5.6-1.4-10.4-1.4-10.4s4.5-0.8,4.5-2.8c-4.2,0-6.2-3.9-8.1-4.8
		c-1.8-0.8-2,0.3-3.4,0.3c-1.1,0-1.4-1.1-3.1-1.1c-2.2,0-3.6,2.2-8.4,2.2s-4.8-4.2-4.8-4.2s-3.6,4.5-0.3,7.6c2.2,2,6.2,2,6.2,2
		s-0.5,4.1,1.4,5.6c1.7,1.4,3.4,1.4,4.5,0.8c-4.2-2-2-4.5,0-4.5c1.4,0,2,1.7,3.4,1.7c0.6,0,1.1-0.3,2-0.3c0.8,0,0.8,0.6,1.1,0.6
		c0.6,0,0.8-0.3,1.4,0c0.5,0.3,1.4,1.1,1.4,2.8c0,2.2-0.6,4.5-6.2,4.5c-5.6,0-15.1-9.5-18.5-11.5c-3.4-2-6.2-2.8-6.2-2.8
		s-1.2-5.7,1.1-11.2c3.1-7.3,6.7-5.3,6.7-5.3s-1.8,1.5-1.7,2.5c0.3,2.2,2.8,3.8,4.5,3.1c5.3-2.2,1.4-7,1.4-7h11.2l0.1-2.8h0l0-0.1
		l0-0.1h0l-0.1-2.8h-11.2c0,0,3.9-4.8-1.4-7c-1.7-0.7-4.2,0.8-4.5,3.1c-0.1,1,1.7,2.5,1.7,2.5s-3.6,2-6.7-5.3
		c-2.3-5.5-1.1-11.2-1.1-11.2s2.8-0.8,6.2-2.8c3.4-2,12.9-11.5,18.5-11.5c5.6,0,6.2,2.2,6.2,4.5c0,1.7-0.9,2.6-1.4,2.8
		c-0.6,0.3-0.8,0-1.4,0c-0.3,0-0.3,0.6-1.1,0.6c-0.8,0-1.4-0.3-2-0.3c-1.4,0-2,1.7-3.4,1.7c-2,0-4.2-2.5,0-4.5
		c-1.1-0.6-2.8-0.6-4.5,0.8c-1.9,1.5-1.4,5.6-1.4,5.6s-4-0.1-6.2,2c-3.4,3.1,0.3,7.6,0.3,7.6s0-4.2,4.8-4.2s6.2,2.2,8.4,2.2
		c1.7,0,2-1.1,3.1-1.1c1.4,0,1.6,1.1,3.4,0.3c2-0.8,3.9-4.8,8.1-4.8c0-2-4.5-2.8-4.5-2.8s4.8-4.8,1.4-10.4
		c-3.2-5.4-10.1-4.2-10.1-4.2s3.6-3.1,8.1-2.8c3.4,0.2,3.4,0.6,3.4,0.6s-0.3,2.2,0.3,3.4c0.8,1.6,2.8,1.7,2.8,1.7v-3.1
		c0,0,3.9-1.4,3.6-4.8c-0.2-2.8-2.5-3.6-2.5-3.6s6.4-2.5,6.7-6.4c0.4-5-1.8-6.1-2.5-8.1c-0.6-1.7-0.3-3.6-0.3-3.6s-1.7,0.3-2.8,1.7
		c-0.9,1.1-0.8,3.9-0.8,3.9s-3.6-0.8-5.9,2c-1.7,2.2-0.2,4.7,0.8,5.3c1.4,0.8,3.9,0.6,4.5-0.8c0.8-2-0.6-3.4-0.6-3.4
		s3.1-1.1,3.1,3.1c0,4.2-11.2,4.7-20.2,10.9c-6.4,4.5-9.2,9-14.3,12.9c-3.1,2.4-5.9,3.3-6.7,3.5c0.1-0.3,0.9-3.5,3.6-6.9
		c3.9-5,8.4-7.8,12.9-14.3c6.3-9,6.7-20.2,10.9-20.2s3.1,3.1,3.1,3.1s-1.4-1.4-3.4-0.6c-1.4,0.6-1.7,3.1-0.8,4.5
		c0.6,1.1,3.2,2.6,5.3,0.8c2.8-2.2,2-5.9,2-5.9s2.8,0,3.9-0.8c1.4-1.1,1.7-2.8,1.7-2.8s-2,0.3-3.6-0.3c-2-0.7-3.1-2.9-8.1-2.5
		c-3.9,0.3-6.4,6.7-6.4,6.7s-0.8-2.3-3.6-2.5c-3.4-0.3-4.8,3.6-4.8,3.6h-3.1c0,0,0.1,2,1.7,2.8c1.1,0.6,3.4,0.3,3.4,0.3
		s0.3,0,0.6,3.4c0.3,4.5-2.8,8.1-2.8,8.1s1.2-6.8-4.2-10.1c-5.6-3.4-10.4,1.4-10.4,1.4s-0.8-4.5-2.8-4.5c0,4.2-3.9,6.2-4.8,8.1
		c-0.8,1.8,0.3,2,0.3,3.4c0,1.1-1.1,1.4-1.1,3.1c0,2.2,2.2,3.6,2.2,8.4c0,4.8-4.2,4.8-4.2,4.8s4.5,3.6,7.6,0.3c2-2.2,2-6.2,2-6.2
		s4.1,0.5,5.6-1.4c1.4-1.7,1.4-3.4,0.8-4.5c-2,4.2-4.5,2-4.5,0c0-1.4,1.7-2,1.7-3.4c0-0.6-0.3-1.1-0.3-2c0-0.8,0.6-0.8,0.6-1.1
		c0-0.6-0.3-0.8,0-1.4c0.3-0.5,1.1-1.4,2.8-1.4c2.2,0,4.5,0.6,4.5,6.2c0,5.6-9.5,15.1-11.5,18.5c-2,3.4-2.8,6.2-2.8,6.2
		s-5.7,1.2-11.2-1.1c-7.3-3.1-5.3-6.7-5.3-6.7s1.5,1.8,2.5,1.7c2.2-0.3,3.8-2.8,3.1-4.5c-2.2-5.3-7-1.4-7-1.4V74.6l-2.9-0.1v0
		l-0.1,0l-0.1,0v0l-2.9,0.1v11.2c0,0-4.8-3.9-7,1.4c-0.7,1.7,0.8,4.2,3.1,4.5c1,0.1,2.5-1.7,2.5-1.7s2,3.6-5.3,6.7
		c-5.5,2.3-11.2,1.1-11.2,1.1s-0.8-2.8-2.8-6.2c-2-3.4-11.5-12.9-11.5-18.5c0-5.6,2.2-6.2,4.5-6.2c1.7,0,2.6,0.9,2.8,1.4
		c0.3,0.6,0,0.8,0,1.4c0,0.3,0.6,0.3,0.6,1.1c0,0.8-0.3,1.4-0.3,2c0,1.4,1.7,2,1.7,3.4c0,2-2.5,4.2-4.5,0c-0.6,1.1-0.6,2.8,0.8,4.5
		c1.5,1.9,5.6,1.4,5.6,1.4s-0.1,4,2,6.2c3.1,3.4,7.6-0.3,7.6-0.3s-4.2,0-4.2-4.8c0-4.8,2.2-6.2,2.2-8.4c0-1.7-1.1-2-1.1-3.1
		c0-1.4,1.1-1.6,0.3-3.4c-0.8-2-4.8-3.9-4.8-8.1c-2,0-2.8,4.5-2.8,4.5s-4.8-4.8-10.4-1.4c-5.4,3.2-4.2,10.1-4.2,10.1
		s-3.1-3.6-2.8-8.1c0.2-3.4,0.6-3.4,0.6-3.4s2.2,0.3,3.4-0.3c1.6-0.8,1.7-2.8,1.7-2.8h-3.1c0,0-1.4-3.9-4.8-3.6
		c-2.8,0.2-3.6,2.5-3.6,2.5s-2.5-6.4-6.4-6.7c-5-0.4-6.1,1.8-8.1,2.5c-1.7,0.6-3.6,0.3-3.6,0.3s0.3,1.7,1.7,2.8
		c1.1,0.9,3.9,0.8,3.9,0.8s-0.8,3.6,2,5.9c2.2,1.7,4.7,0.2,5.3-0.8c0.8-1.4,0.6-3.9-0.8-4.5c-2-0.8-3.4,0.6-3.4,0.6
		s-1.1-3.1,3.1-3.1s4.7,11.2,10.9,20.2c4.5,6.4,9,9.2,12.9,14.3c2.7,3.4,3.5,6.6,3.6,6.9c-0.8-0.2-3.6-1.1-6.7-3.5
		c-5-3.9-7.8-8.4-14.3-12.9c-9-6.3-20.2-6.7-20.2-10.9c0-4.2,3.1-3.1,3.1-3.1s-1.4,1.4-0.6,3.4c0.6,1.4,3.1,1.7,4.5,0.8
		c1.1-0.6,2.6-3.2,0.8-5.3c-2.2-2.8-5.9-2-5.9-2s0-2.8-0.8-3.9c-1.1-1.4-2.8-1.7-2.8-1.7s0.3,2-0.3,3.6c-0.7,2-2.9,3.1-2.5,8.1
		C51.5,73.5,58,76,58,76s-2.3,0.8-2.5,3.6c-0.3,3.4,3.6,4.8,3.6,4.8v3.1c0,0,2-0.1,2.8-1.7c0.6-1.1,0.3-3.4,0.3-3.4s0-0.3,3.4-0.6
		c4.5-0.3,8.1,2.8,8.1,2.8s-6.8-1.2-10.1,4.2C60.2,94.5,65,99.3,65,99.3s-4.5,0.8-4.5,2.8c4.2,0,6.2,3.9,8.1,4.8
		c1.8,0.8,2-0.3,3.4-0.3c1.1,0,1.4,1.1,3.1,1.1c2.2,0,3.6-2.2,8.4-2.2s4.8,4.2,4.8,4.2s3.6-4.5,0.3-7.6c-2.2-2-6.2-2-6.2-2
		s0.5-4.1-1.4-5.6c-1.7-1.4-3.4-1.4-4.5-0.8c4.2,2,2,4.5,0,4.5c-1.4,0-2-1.7-3.4-1.7c-0.6,0-1.1,0.3-2,0.3c-0.8,0-0.8-0.6-1.1-0.6
		c-0.6,0-0.8,0.3-1.4,0c-0.5-0.3-1.4-1.1-1.4-2.8c0-2.2,0.6-4.5,6.2-4.5c5.6,0,15.1,9.5,18.5,11.5c3.4,2,6.2,2.8,6.2,2.8
		s1.2,5.7-1.1,11.2c-3.1,7.3-6.7,5.3-6.7,5.3s1.8-1.5,1.7-2.5c-0.3-2.2-2.8-3.8-4.5-3.1c-5.3,2.2-1.4,7-1.4,7H74.8l-0.1,2.8h0l0,0.1
		l0,0.1h0l0.1,2.8H86c0,0-3.9,4.8,1.4,7c1.7,0.7,4.2-0.8,4.5-3.1c0.1-1-1.7-2.5-1.7-2.5s3.6-2,6.7,5.3c2.3,5.5,1.1,11.2,1.1,11.2
		s-2.8,0.8-6.2,2.8c-3.4,2-12.9,11.5-18.5,11.5c-5.6,0-6.2-2.2-6.2-4.5c0-1.7,0.9-2.6,1.4-2.8c0.6-0.3,0.8,0,1.4,0
		c0.3,0,0.3-0.6,1.1-0.6c0.8,0,1.4,0.3,2,0.3c1.4,0,2-1.7,3.4-1.7c2,0,4.2,2.5,0,4.5c1.1,0.6,2.8,0.6,4.5-0.8
		c1.9-1.5,1.4-5.6,1.4-5.6s4,0.1,6.2-2c3.4-3.1-0.3-7.6-0.3-7.6s0,4.2-4.8,4.2s-6.2-2.2-8.4-2.2c-1.7,0-2,1.1-3.1,1.1
		c-1.4,0-1.6-1.1-3.4-0.3c-2,0.8-3.9,4.8-8.1,4.8c0,2,4.5,2.8,4.5,2.8s-4.8,4.8-1.4,10.4c3.2,5.4,10.1,4.2,10.1,4.2
		s-3.6,3.1-8.1,2.8c-3.4-0.2-3.4-0.6-3.4-0.6s0.3-2.2-0.3-3.4c-0.8-1.6-2.8-1.7-2.8-1.7v3.1c0,0-3.9,1.4-3.6,4.8
		c0.2,2.8,2.5,3.6,2.5,3.6s-6.4,2.5-6.7,6.4c-0.4,5,1.8,6.1,2.5,8.1c0.6,1.7,0.3,3.6,0.3,3.6s1.7-0.3,2.8-1.7
		c0.9-1.1,0.8-3.9,0.8-3.9s3.6,0.8,5.9-2c1.7-2.2,0.2-4.7-0.8-5.3c-1.4-0.8-3.9-0.6-4.5,0.8c-0.8,2,0.6,3.4,0.6,3.4
		s-3.1,1.1-3.1-3.1c0-4.2,11.2-4.7,20.2-10.9c6.4-4.5,9.2-9,14.3-12.9c3.4-2.7,6.6-3.5,6.9-3.6c-0.2,0.8-1.1,3.6-3.5,6.7
		c-3.9,5-8.4,7.8-12.9,14.3c-6.3,9-6.7,20.2-10.9,20.2c-4.2,0-3.1-3.1-3.1-3.1s1.4,1.4,3.4,0.6c1.4-0.6,1.7-3.1,0.8-4.5
		c-0.6-1.1-3.2-2.6-5.3-0.8c-2.8,2.2-2,5.9-2,5.9s-2.8,0-3.9,0.8c-1.4,1.1-1.7,2.8-1.7,2.8s2-0.3,3.6,0.3c2,0.7,3.1,2.9,8.1,2.5
		c3.9-0.3,6.4-6.7,6.4-6.7s0.8,2.3,3.6,2.5c3.4,0.3,4.8-3.6,4.8-3.6h3.1c0,0-0.1-2-1.7-2.8c-1.1-0.6-3.4-0.3-3.4-0.3s-0.3,0-0.6-3.4
		c-0.3-4.5,2.8-8.1,2.8-8.1s-1.2,6.8,4.2,10.1c5.6,3.4,10.4-1.4,10.4-1.4s0.8,4.5,2.8,4.5c0-4.2,3.9-6.2,4.8-8.1
		c0.8-1.8-0.3-2-0.3-3.4c0-1.1,1.1-1.4,1.1-3.1c0-2.2-2.2-3.6-2.2-8.4s4.2-4.8,4.2-4.8s-4.5-3.6-7.6-0.3c-2,2.2-2,6.2-2,6.2
		s-4.1-0.5-5.6,1.4c-1.4,1.7-1.4,3.4-0.8,4.5c2-4.2,4.5-2,4.5,0c0,1.4-1.7,2-1.7,3.4c0,0.6,0.3,1.1,0.3,2c0,0.8-0.6,0.8-0.6,1.1
		c0,0.6,0.3,0.8,0,1.4c-0.3,0.5-1.1,1.4-2.8,1.4c-2.2,0-4.5-0.6-4.5-6.2c0-5.6,9.5-15.1,11.5-18.5c2-3.4,2.8-6.2,2.8-6.2
		s5.7-1.2,11.2,1.1c7.3,3.1,5.3,6.7,5.3,6.7s-1.5-1.8-2.5-1.7c-2.2,0.3-3.8,2.8-3.1,4.5c2.2,5.3,7,1.4,7,1.4v11.2l2.5,0.1v0l0.3,0
		l0.3,0v0l2.5-0.1v-11.2c0,0,4.8,3.9,7-1.4c0.7-1.7-0.8-4.2-3.1-4.5c-1-0.1-2.5,1.7-2.5,1.7s-2-3.6,5.3-6.7
		c5.5-2.3,11.2-1.1,11.2-1.1s0.8,2.8,2.8,6.2c2,3.4,11.5,12.9,11.5,18.5c0,5.6-2.2,6.2-4.5,6.2c-1.7,0-2.6-0.9-2.8-1.4
		c-0.3-0.6,0-0.8,0-1.4c0-0.3-0.6-0.3-0.6-1.1c0-0.8,0.3-1.4,0.3-2c0-1.4-1.7-2-1.7-3.4c0-2,2.5-4.2,4.5,0c0.6-1.1,0.6-2.8-0.8-4.5
		c-1.5-1.9-5.6-1.4-5.6-1.4s0.1-4-2-6.2c-3.1-3.4-7.6,0.3-7.6,0.3s4.2,0,4.2,4.8s-2.2,6.2-2.2,8.4c0,1.7,1.1,2,1.1,3.1
		c0,1.4-1.1,1.6-0.3,3.4c0.8,2,4.8,3.9,4.8,8.1c2,0,2.8-4.5,2.8-4.5s4.8,4.8,10.4,1.4c5.4-3.2,4.2-10.1,4.2-10.1s3.1,3.6,2.8,8.1
		c-0.2,3.4-0.6,3.4-0.6,3.4s-2.2-0.3-3.4,0.3c-1.6,0.8-1.7,2.8-1.7,2.8h3.1c0,0,1.4,3.9,4.8,3.6c2.8-0.2,3.6-2.5,3.6-2.5
		s2.5,6.4,6.4,6.7c5,0.4,6.1-1.8,8.1-2.5c1.7-0.6,3.6-0.3,3.6-0.3s-0.3-1.7-1.7-2.8c-1.1-0.9-3.9-0.8-3.9-0.8s0.8-3.6-2-5.9
		c-2.2-1.7-4.7-0.2-5.3,0.8c-0.8,1.4-0.6,3.9,0.8,4.5c2,0.8,3.4-0.6,3.4-0.6s1.1,3.1-3.1,3.1c-4.2,0-4.7-11.2-10.9-20.2
		c-4.5-6.4-9-9.2-12.9-14.3c-2.4-3.1-3.3-5.9-3.5-6.7c0.3,0.1,3.5,0.9,6.9,3.6c5,3.9,7.8,8.4,14.3,12.9c9,6.3,20.2,6.7,20.2,10.9
		c0,4.2-3.1,3.1-3.1,3.1s1.4-1.4,0.6-3.4c-0.6-1.4-3.1-1.7-4.5-0.8c-1.1,0.6-2.6,3.2-0.8,5.3c2.2,2.8,5.9,2,5.9,2s0,2.8,0.8,3.9
		c1.1,1.4,2.8,1.7,2.8,1.7s-0.3-2,0.3-3.6c0.7-2,2.9-3.1,2.5-8.1C196.7,174.7,190.2,172.1,190.2,172.1z M146.2,125.3
		c0,1.4-0.8,3.9-2,7.8c-1,3.5-0.9,9.1-0.8,10.2l0,0c0,0-6.5-0.3-10.4,0.8c-3.9,1.1-6.4,2-7.8,2c-0.6,0-0.9,0-1.1,0.1
		c-0.2-0.1-0.5-0.1-1.1-0.1c-1.4,0-3.9-0.8-7.8-2c-3.9-1.1-10.4-0.8-10.4-0.8l0,0c0-1.1,0.2-6.7-0.8-10.2c-1.1-3.9-2-6.4-2-7.8
		c0-0.7-0.1-1.1-0.2-1.3c0.1-0.2,0.2-0.5,0.2-1.3c0-1.4,0.8-3.9,2-7.8c1.1-3.9,0.8-10.4,0.8-10.4l0,0c1.1,0,6.7,0.2,10.2-0.8
		c3.9-1.1,6.4-2,7.8-2c0.9,0,1.2-0.1,1.3-0.2c0.1,0.1,0.5,0.2,1.3,0.2c1.4,0,3.9,0.8,7.8,2c3.5,1,9.1,0.9,10.2,0.8l0,0
		c0,0-0.3,6.5,0.8,10.4c1.1,3.9,2,6.4,2,7.8c0,0.7,0.1,1.1,0.2,1.3C146.3,124.2,146.2,124.6,146.2,125.3z"/>
	<path d="M72.6,123.4c0-8.3-5.5-13-8.9-15.2c-3.6-2.4-8-3-8-3s1.7,1.4,1.4,3.9c-0.3,2.5-1.9,3-1.9,3S67,113.7,67,124.2
		c0,5.3-4.4,10.8-9.1,10.8c-3.9,0-5.8-2.5-5.8-2.5s2.1-1.4,1.7-5c-0.3-2.5-2.8-2.5-2.8-2.5s0.6,0.8,0.6,2.2c0,2.5-1.7,2.8-1.7,2.8
		s-1.1-1.4-1.1-3.6c0-1.9,1.7-6.1,5.8-6.1s4.4,5,4.4,5h5V122h-2.5c0,0-3-5.3-7.8-5.3s-7.5,2.8-8.9,6.6c-1.4,3.9,0.6,8.6,0.6,8.6
		s-6.9-2.5-6.6-8.9c0.3-6.4,8.3-10.5,8.3-10.5s-1.4-0.8-1.9-3.3c-0.5-2.2,0.8-3.9,0.8-3.9s-3.6,0.8-7.8,4.2
		c-4.3,3.4-6.4,7.2-6.4,7.2s-0.8-5-6.4-3.9c4.2,8.3-4.4,13.6-10,13.6c-5.8,0-6.6-4.4-6.6-4.4s1.5,1,3.6,0.8c1.5-0.1,1.9-2.5,1.9-2.5
		s0.6-3.6-3.3-3.9c-3.9-0.3-4.4,5-4.4,5s-0.8-1.1-2.2-1.4c0,0-4.4,0-3.9,5c1.7-0.3,3.9-0.3,5,0.6c3.1,2.3,6.6,5,11.4,5
		c10.5,0,15.8-7.8,15.8-7.8s0.3,4.4,3.9,9.4c4.6,6.4,12.2,3.3,12.2,3.3s1.1,4.4,9.1,4.4S72.6,133.6,72.6,123.4z"/>
	<circle cx="51" cy="108.2" r="3.6"/>
	<path d="M125.4,175.8c-8.3,0-13,5.5-15.2,8.9c-2.4,3.6-3,8-3,8s1.4-1.7,3.9-1.4c2.5,0.3,3,1.9,3,1.9s1.6-11.9,12.2-11.9
		c5.3,0,10.8,4.4,10.8,9.1c0,3.9-2.5,5.8-2.5,5.8s-1.4-2.1-5-1.7c-2.5,0.3-2.5,2.8-2.5,2.8s0.8-0.6,2.2-0.6c2.5,0,2.8,1.7,2.8,1.7
		s-1.4,1.1-3.6,1.1c-1.9,0-6.1-1.7-6.1-5.8s5-4.4,5-4.4v-5H124v2.5c0,0-5.3,3-5.3,7.8s2.8,7.5,6.6,8.9s8.6-0.6,8.6-0.6
		s-2.5,6.9-8.9,6.6s-10.5-8.3-10.5-8.3s-0.8,1.4-3.3,1.9c-2.2,0.5-3.9-0.8-3.9-0.8s0.8,3.6,4.2,7.8c3.4,4.3,7.2,6.4,7.2,6.4
		s-5,0.8-3.9,6.4c8.3-4.2,13.6,4.4,13.6,10c0,5.8-4.4,6.6-4.4,6.6s1-1.5,0.8-3.6c-0.1-1.5-2.5-1.9-2.5-1.9s-3.6-0.6-3.9,3.3
		c-0.3,3.9,5,4.4,5,4.4s-1.1,0.8-1.4,2.2c0,0,0,4.4,5,3.9c-0.3-1.7-0.3-3.9,0.6-5c2.3-3.1,5-6.6,5-11.4c0-10.5-7.8-15.8-7.8-15.8
		s4.4-0.3,9.4-3.9c6.4-4.6,3.3-12.2,3.3-12.2s4.4-1.1,4.4-9.1S135.6,175.8,125.4,175.8z"/>
	<circle cx="110.1" cy="197.4" r="3.6"/>
	<path d="M248,123.1c-1.7,0.3-3.9,0.3-5-0.6c-3.1-2.3-6.6-5-11.4-5c-10.5,0-15.8,7.8-15.8,7.8s-0.3-4.4-3.9-9.4
		c-4.6-6.4-12.2-3.3-12.2-3.3s-1.1-4.4-9.1-4.4c-8,0-14.7,6.4-14.7,16.6c0,8.3,5.5,13,8.9,15.2c3.6,2.4,8,3,8,3s-1.7-1.4-1.4-3.9
		c0.3-2.5,1.9-3,1.9-3s-11.9-1.6-11.9-12.2c0-5.3,4.4-10.8,9.1-10.8c3.9,0,5.8,2.5,5.8,2.5s-2.1,1.4-1.7,5c0.3,2.5,2.8,2.5,2.8,2.5
		s-0.6-0.8-0.6-2.2c0-2.5,1.7-2.8,1.7-2.8s1.1,1.4,1.1,3.6c0,1.9-1.7,6.1-5.8,6.1s-4.4-5-4.4-5h-5v3.3h2.5c0,0,3,5.3,7.8,5.3
		c4.7,0,7.5-2.8,8.9-6.6c1.4-3.9-0.6-8.6-0.6-8.6s6.9,2.5,6.6,8.9c-0.3,6.4-8.3,10.5-8.3,10.5s1.4,0.8,1.9,3.3
		c0.5,2.2-0.8,3.9-0.8,3.9s3.6-0.8,7.8-4.2c4.3-3.4,6.4-7.2,6.4-7.2s0.8,5,6.4,3.9c-4.2-8.3,4.4-13.6,10-13.6c5.8,0,6.6,4.4,6.6,4.4
		s-1.5-1-3.6-0.8c-1.5,0.1-1.9,2.5-1.9,2.5s-0.6,3.6,3.3,3.9c3.9,0.3,4.4-5,4.4-5s0.8,1.1,2.2,1.4
		C244.1,128.1,248.5,128.1,248,123.1z"/>
	<circle cx="197.5" cy="140" r="3.6"/>
	<path d="M123.1,72.4c8.3,0,13-5.5,15.2-8.9c2.4-3.6,3-8,3-8s-1.4,1.7-3.9,1.4c-2.5-0.3-3-1.9-3-1.9s-1.6,11.9-12.2,11.9
		c-5.3,0-10.8-4.4-10.8-9.1c0-3.9,2.5-5.8,2.5-5.8s1.4,2.1,5,1.7c2.5-0.3,2.5-2.8,2.5-2.8s-0.8,0.6-2.2,0.6c-2.5,0-2.8-1.7-2.8-1.7
		s1.4-1.1,3.6-1.1c1.9,0,6.1,1.7,6.1,5.8s-5,4.4-5,4.4v5h3.3v-2.5c0,0,5.3-3,5.3-7.8s-2.8-7.5-6.6-8.9c-3.9-1.4-8.6,0.6-8.6,0.6
		s2.5-6.9,8.9-6.6s10.5,8.3,10.5,8.3s0.8-1.4,3.3-1.9c2.2-0.5,3.9,0.8,3.9,0.8s-0.8-3.6-4.2-7.8c-3.4-4.3-7.2-6.4-7.2-6.4
		s5-0.8,3.9-6.4c-8.3,4.2-13.6-4.4-13.6-10c0-5.8,4.4-6.6,4.4-6.6s-1,1.5-0.8,3.6c0.1,1.5,2.5,1.9,2.5,1.9s3.6,0.6,3.9-3.3
		s-5-4.4-5-4.4s1.1-0.8,1.4-2.2c0,0,0-4.4-5-3.9c0.3,1.7,0.3,3.9-0.6,5c-2.3,3.1-5,6.6-5,11.4c0,10.5,7.8,15.8,7.8,15.8
		s-4.4,0.3-9.4,3.9c-6.4,4.6-3.3,12.2-3.3,12.2s-4.4,1.1-4.4,9.1S112.9,72.4,123.1,72.4z"/>
	<circle cx="138.4" cy="50.8" r="3.6"/>
</g>
</svg>
