<svg xmlns="http://www.w3.org/2000/svg" viewBox="0 0 248 248">
  <path d="M59.623 123.979h-.006v.042h.006c.49 4.684 3.619 5.673 5.732 5.673 5.716 0 11.182-3.976 18.886-3.976 9.208 0 9.443.5 9.443.5a5.4 5.4 0 0 1 2.489-2.194h.116c-.019-.006-.038-.015-.058-.021.02-.006.039-.015.058-.021h-.116a5.4 5.4 0 0 1-2.489-2.194s-.235.5-9.443.5c-7.7 0-13.17-3.976-18.886-3.976-2.113-.006-5.242.988-5.732 5.667Z"/>
  <path d="M124 152.818c.009 13.163 13.421 21.855 22.613 21.855 17.4 0 15.9-10.437 28.328-7.952 0-2.485.746-4.225-3.727-6.71 4.225-7.7 19.88-22.116 28.08-8.946 0-1.739 1.491-12.176-11.431-11.928s-27.583 22.117-27.583 22.117.5-3.976-2.485-5.219c-2.485 6.213-5.964 9.692-13.667 9.195-8.2-.5-12.425-8.2-12.425-12.425 0-7.952 3.479-16.4 11.182-16.4 8.2 0 9.692 5.218 9.692 5.218a9.17 9.17 0 0 0-7.207-.5c-1.768.7-3.727 3.728-3.727 7.952 0 3.728 2.983 7.107 8.946 6.958 9.94-.248 8.449-12.425 8.449-12.425s4.472.5 6.461-1.491a6.112 6.112 0 0 0 1.491-5.964s-7.952 1.491-9.94-.994c-3.186-3.981-8.946-4.721-8.946-4.721V117.56s5.76-.74 8.946-4.721c1.988-2.485 9.94-.994 9.94-.994a6.112 6.112 0 0 0-1.491-5.964c-1.989-1.988-6.461-1.491-6.461-1.491s1.491-12.177-8.449-12.425c-5.963-.149-8.946 3.23-8.946 6.958 0 4.224 1.959 7.255 3.727 7.952a9.17 9.17 0 0 0 7.207-.5s-1.488 5.218-9.692 5.218c-7.7 0-11.182-8.449-11.182-16.4 0-4.224 4.224-11.928 12.425-12.425 7.7-.5 11.182 2.982 13.667 9.2 2.982-1.243 2.485-5.219 2.485-5.219s14.661 21.868 27.583 22.117 11.431-10.189 11.431-11.928c-8.2 13.17-23.855-1.243-28.08-8.946 4.473-2.485 3.727-4.225 3.727-6.71-12.424 2.485-10.933-7.952-28.328-7.952-9.192 0-22.6 8.692-22.613 21.855-.009-13.163-13.421-21.855-22.613-21.855-17.395 0-15.9 10.437-28.328 7.952 0 2.485-.746 4.225 3.727 6.71-4.225 7.7-19.88 22.116-28.08 8.946 0 1.739-1.491 12.176 11.431 11.928s27.583-22.12 27.583-22.12-.5 3.976 2.485 5.219c2.485-6.213 5.964-9.692 13.667-9.2 8.2.5 12.425 8.2 12.425 12.425 0 7.952-3.479 16.4-11.182 16.4-8.2 0-9.692-5.218-9.692-5.218a9.17 9.17 0 0 0 7.207.5c1.768-.7 3.727-3.728 3.727-7.952 0-3.728-2.983-7.107-8.946-6.958-9.94.248-8.449 12.425-8.449 12.425s-4.472-.5-6.461 1.491a6.112 6.112 0 0 0-1.491 5.964s7.952-1.491 9.94.994c3.186 3.981 8.946 4.721 8.946 4.721v12.88s-5.76.74-8.946 4.721c-1.988 2.485-9.94.994-9.94.994a6.112 6.112 0 0 0 1.491 5.964c1.989 1.988 6.461 1.491 6.461 1.491s-1.491 12.177 8.449 12.425c5.963.149 8.946-3.23 8.946-6.958 0-4.224-1.959-7.255-3.727-7.952a9.17 9.17 0 0 0-7.207.5s1.488-5.218 9.692-5.218c7.7 0 11.182 8.449 11.182 16.4 0 4.224-4.224 11.928-12.425 12.425-7.7.5-11.182-2.982-13.667-9.195-2.982 1.243-2.485 5.219-2.485 5.219s-14.661-21.868-27.583-22.117-11.431 10.189-11.431 11.928c8.2-13.17 23.855 1.243 28.08 8.946-4.473 2.485-3.727 4.225-3.727 6.71 12.425-2.485 10.933 7.952 28.328 7.952 9.192.001 22.604-8.691 22.613-21.854Zm18.885-35.258v12.88h-3.727v-12.88Zm-37.77 12.88v-12.88h3.727v12.88Zm8.7 2.982v-18.844s10.176-4.222 10.185-19.363c.009 15.141 10.188 19.363 10.188 19.363v18.844s-10.179 4.222-10.188 19.363c-.009-15.141-10.188-19.363-10.188-19.363ZM8.447 124.021v-.042a4.223 4.223 0 0 0-8.445 0H0v.042a4.223 4.223 0 0 0 8.445 0Zm13.419 0v-.042a4.968 4.968 0 0 0-9.936 0v.042a4.968 4.968 0 0 0 9.936 0Zm16.649 0v-.042a5.962 5.962 0 0 0-11.924 0v.042a5.962 5.962 0 0 0 11.924 0Z"/>
  <path d="M55.415 129.694s-1.173-1.239-1.177-5.694 1.177-5.694 1.177-5.694-6.1-1.6-9.194-4.473c-3.479-3.231-3.976-6.213-3.976-6.213a6.269 6.269 0 0 0-2.982 5.716c0 4.721 6.212 7.952 6.212 7.952v5.424s-6.212 3.231-6.212 7.952a6.269 6.269 0 0 0 2.982 5.716s.5-2.982 3.976-6.213c3.09-2.867 9.194-4.473 9.194-4.473Zm132.962-5.673h.006v-.042h-.006c-.49-4.684-3.619-5.673-5.732-5.673-5.716 0-11.182 3.976-18.886 3.976-9.208 0-9.443-.5-9.443-.5a5.4 5.4 0 0 1-2.489 2.194h-.116c.019.006.038.015.058.021-.02.006-.039.015-.058.021h.116a5.4 5.4 0 0 1 2.489 2.194s.235-.5 9.443-.5c7.7 0 13.17 3.976 18.886 3.976 2.113.006 5.242-.983 5.732-5.667Zm51.176-.042v.042a4.223 4.223 0 0 0 8.445 0v-.042a4.223 4.223 0 0 0-8.445 0Zm-13.419 0v.042a4.968 4.968 0 0 0 9.936 0v-.042a4.968 4.968 0 0 0-9.936 0Zm-16.649 0v.042a5.962 5.962 0 0 0 11.924 0v-.042a5.962 5.962 0 0 0-11.924 0Zm-16.9-5.673s1.173 1.239 1.177 5.694-1.177 5.694-1.177 5.694 6.1 1.6 9.194 4.473c3.479 3.231 3.976 6.213 3.976 6.213a6.269 6.269 0 0 0 2.982-5.716c0-4.721-6.212-7.952-6.212-7.952v-5.424s6.212-3.231 6.212-7.952a6.269 6.269 0 0 0-2.982-5.716s-.5 2.982-3.976 6.213c-3.09 2.867-9.194 4.473-9.194 4.473Z"/>
</svg>
