<svg xmlns="http://www.w3.org/2000/svg" viewBox="0 0 248 248">
  <path d="M183.189 105.728c-11.07 0-24.55 2.788-35.326 6.98a26.4 26.4 0 0 0-47.735.019c-10.775-4.19-24.25-6.976-35.317-6.976-11.088 0-38.73 5.466-38.73 22.489 0 7.184 7.183 13.9 17.491 13.9s16.085-6.247 21.551-10c3.181-2.181 10.62-4.841 14.993-1.406a9.479 9.479 0 0 1 3.592 8.434s2.967-2.811 2.967-9.371-7.028-11.244-11.557-9.995c-3.19.88-5.778 6.872-5.778 6.872s.156-4.217-1.874-6.247c-1.874-1.87-5.466-.777-5.466-.777s3.261 5.034.312 9.527a19.965 19.965 0 0 1-8.589 7.027s3.748-2.03 3.28-7.5-5.623-7.184-9.995-6.715-6.91 6.58-5 10c2.186 3.9 6.872 2.811 6.872 2.811s-.781 2.5-4.686 2.5c-3.592 0-11.244-2.343-11.244-10.932 0-9.371 15.458-17.023 31.391-17.023 11.542 0 24.733 3.3 34.406 6.934a26.4 26.4 0 1 0 50.5-.02c9.673-3.633 22.867-6.937 34.412-6.937 15.933 0 31.391 7.652 31.391 17.023 0 8.589-7.652 10.932-11.244 10.932-3.905 0-4.686-2.5-4.686-2.5s4.686 1.093 6.872-2.811c1.912-3.415-.625-9.527-5-10s-9.526 1.249-9.995 6.715 3.28 7.5 3.28 7.5a19.965 19.965 0 0 1-8.589-7.027c-2.949-4.493.312-9.527.312-9.527s-3.592-1.093-5.466.781c-2.03 2.03-1.874 6.247-1.874 6.247s-2.588-5.992-5.778-6.872c-4.529-1.249-11.557 3.436-11.557 9.995s2.967 9.371 2.967 9.371a9.479 9.479 0 0 1 3.592-8.434c4.373-3.435 11.812-.775 14.993 1.406 5.466 3.748 11.244 10 21.551 10s17.491-6.716 17.491-13.9c0-17.027-27.642-22.493-38.73-22.493ZM103.4 124a20.556 20.556 0 0 1 .751-5.5 33.33 33.33 0 0 1 7.2 4.118c9.214 7.809 9.37 20.927 9.37 20.927l.091.81A20.633 20.633 0 0 1 103.4 124Zm17.166-1.539c1.977 5.684 1.91 11.67 2.03 13.431a25.733 25.733 0 0 0-5.466-12.65c-2.345-2.932-6.5-5.741-11.669-8.218A20.626 20.626 0 0 1 123.8 103.4c-.822 1.551-4.2 7.316-9.328 8.126a37.685 37.685 0 0 1 6.092 10.935Zm3.644-19.061a20.625 20.625 0 0 1 18.321 11.6c-5.169 2.475-9.315 5.283-11.659 8.213a25.733 25.733 0 0 0-5.466 12.65c.12-1.761.053-7.747 2.03-13.431a37.685 37.685 0 0 1 6.09-10.932c-5.104-.8-8.472-6.513-9.316-8.1Zm2.976 40.952.094-.834s.156-13.118 9.37-20.927a33.321 33.321 0 0 1 7.195-4.115 20.59 20.59 0 0 1-16.659 25.876Z"/>
  <path d="M245.97 115.1a2.012 2.012 0 0 0-.671.116 6.166 6.166 0 0 0-4.014-1.677c-1.926 0-3.307 1.381-4.643 2.717-1.251 1.253-2.434 2.436-3.947 2.436a8.589 8.589 0 0 1-5.14-1.637c1.874-.753 7.253-3.452 7.639-9.763-9.214 5.153-14.68 6.559-22.333 4.216 8.121 3.28 12.806 11.869 13.431 15.461 2.067-2.285 1.557-6.085 1.058-8.18a10.228 10.228 0 0 0 5.345 1.465c2.161 0 3.7-1.537 5.052-2.894 1.162-1.162 2.259-2.26 3.538-2.26a4.539 4.539 0 0 1 2.845 1.175 2.029 2.029 0 1 0 1.84-1.175Zm-210.831-3.571c-7.653 2.343-13.119.937-22.333-4.216.386 6.311 5.765 9.01 7.639 9.763a8.589 8.589 0 0 1-5.14 1.637c-1.513 0-2.7-1.183-3.948-2.436-1.335-1.336-2.716-2.717-4.642-2.717a6.166 6.166 0 0 0-4.015 1.677 2.031 2.031 0 1 0 1.17 1.063 4.539 4.539 0 0 1 2.845-1.175c1.279 0 2.376 1.1 3.538 2.26 1.355 1.357 2.891 2.894 5.052 2.894a10.228 10.228 0 0 0 5.345-1.465c-.5 2.095-1.009 5.9 1.058 8.18.625-3.594 5.31-12.185 13.431-15.465Z"/>
</svg>
