<svg xmlns="http://www.w3.org/2000/svg" viewBox="0 0 248 68.391">
  <path d="M110.386 32.7c0-5.2-2.8-15-12.6-15-9 0-9.4 6.2-9.4 9.2a6.447 6.447 0 0 0 6.8 6.4c6.6 0 5.2-8.4 5.2-8.4a8.371 8.371 0 0 1 2.729 8.4c-1.128 5.6-6.724 9.6-12.127 9.6-6.4 0-15.4-5.4-17.2-14.8-1.363-7.116 2.674-10.462 2.674-10.462s-4.884-1.719-8.074.464c-3.8 2.6-3 7.8-3 7.8s-9.6-14.6-25-14.6c-17.8 0-25.2 14.2-25.2 22.4 0 13.2 7.6 23.4 19.8 23.4 13.6 0 14-12.2 14-12.2s3 7.6 7.8 4.2c-1.2-1.2-1.2-4.2-.2-6s4.455-2.782 8-1.6c4.2 1.4 14 9 25 9 14.999-.008 20.798-9.002 20.798-17.802Zm-56.593.8a10.911 10.911 0 0 0-5 6s-2-8.2-8-8.2c-4.6 0-9 2-9 6.8 0 8.2 7.2 7.4 7.2 7.4s-3.4 1.4-5.8.8c-3.552-.888-8-3.6-8-12.4 0-9 10.8-12.4 15.4-12.4 10.6 0 20 11.4 20 11.4s-4-.8-6.8.6Zm64.192-11.9c1.6 3.6 6 3.614 6 3.614s4.4-.015 6-3.614c2.761-6.213 5.173-8.053 8.8-10.4 3.4-2.2 10.2-2.6 10.2-2.6s-2.4-7.2-8.6-4.6c-2.474 1.037-3.2 2.8-4.4 3.4-2.107 1.054-3.8 1-5.4 2.4-1.5 1.317-1.8 5-2.2 5.2s-1.6.2-1.8-.2.8-2.2 1.2-3a12.948 12.948 0 0 0 1-5.2c0-1.6-4.8-6.6-4.8-6.6s-4.8 5-4.8 6.6a12.954 12.954 0 0 0 1 5.2c.4.8 1.4 2.6 1.2 3s-1.4.4-1.8.2-.695-3.882-2.2-5.2c-1.6-1.4-3.292-1.346-5.4-2.4-1.2-.6-1.925-2.362-4.4-3.4-6.2-2.6-8.6 4.6-8.6 4.6s6.8.4 10.2 2.6c3.627 2.344 6.039 4.184 8.8 10.4Z"/>
  <circle cx="123.984" cy="34.196" r="4.599"/>
  <path d="M129.984 46.793c-1.6-3.6-6-3.614-6-3.614s-4.4.015-6 3.614c-2.761 6.213-5.173 8.053-8.8 10.4-3.4 2.2-10.2 2.6-10.2 2.6s2.4 7.2 8.6 4.6c2.475-1.038 3.2-2.8 4.4-3.4 2.107-1.053 3.8-1 5.4-2.4 1.5-1.317 1.8-5 2.2-5.2s1.6-.2 1.8.2-.8 2.2-1.2 3a12.948 12.948 0 0 0-1 5.2c0 1.6 4.8 6.6 4.8 6.6s4.8-5 4.8-6.6a12.954 12.954 0 0 0-1-5.2c-.4-.8-1.4-2.6-1.2-3s1.4-.4 1.8-.2.694 3.882 2.2 5.2c1.6 1.4 3.293 1.346 5.4 2.4 1.2.6 1.925 2.362 4.4 3.4 6.2 2.6 8.6-4.6 8.6-4.6s-6.8-.4-10.2-2.6c-3.627-2.347-6.039-4.187-8.8-10.4ZM5.8 48.32c-2.986-6.517-2.4-9.2-2.4-9.2h.749a.713.713 0 0 0 .713-.721 7.311 7.311 0 0 0 .738-.481c-.272-.846-.529-1.622-.771-2.343l-.019-1.627a.833.833 0 0 0-.823-.822c-.3-.835-.551-1.537-.768-2.117.381-3.446 1.27-10.173 2.581-13.086 1.726-3.833 4.6-3.6 4.6-3.6a6.354 6.354 0 0 0-2.2-2.6c-1.484-.847-3.4.4-3.4.4a2.807 2.807 0 0 0-.8-2c-1-1.2-3.6-3.148-4-5v58.143s4.558-.353 5.2-1.548a34.6 34.6 0 0 0-2.8-9.2l.6-.6a30.5 30.5 0 0 0 8.6 6.4c1.4 0 1.4-1 1.4-1s-5-4.199-7.2-8.998ZM207.605 11.3c-15.4 0-25 14.6-25 14.6s.8-5.2-3-7.8c-3.19-2.183-8.074-.464-8.074-.464s4.037 3.346 2.674 10.462c-1.8 9.4-10.8 14.8-17.2 14.8-5.4 0-11-4-12.128-9.594a8.371 8.371 0 0 1 2.729-8.4s-1.4 8.4 5.2 8.4a6.447 6.447 0 0 0 6.8-6.4c0-3-.4-9.2-9.4-9.2-9.8 0-12.6 9.8-12.6 15 0 8.8 5.8 17.8 20.8 17.8 11 0 20.8-7.6 25-9 3.544-1.182 7-.2 8 1.6s1 4.8-.2 6c4.8 3.4 7.8-4.2 7.8-4.2s.4 12.2 14 12.2c12.2 0 19.8-10.2 19.8-23.4C232.8 25.5 225.4 11.3 207.605 11.3Zm7.2 34.995c-2.4.6-5.8-.8-5.8-.8s7.2.8 7.2-7.4c0-4.8-4.4-6.8-9-6.8-6 0-8 8.2-8 8.2a10.911 10.911 0 0 0-5-6c-2.8-1.4-6.8-.6-6.8-.6s9.4-11.4 20-11.4c4.6 0 15.4 3.4 15.4 12.4-.005 8.805-4.449 11.511-8.005 12.399ZM244 10.124a2.807 2.807 0 0 0-.8 2s-1.916-1.247-3.4-.4a6.354 6.354 0 0 0-2.2 2.6s2.874-.234 4.6 3.6c1.267 2.816 2.137 9.2 2.541 12.728-.245.647-.551 1.48-.915 2.51a.82.82 0 0 0-.636.784l-.013 1.095a207.17 207.17 0 0 0-.951 2.875 7.333 7.333 0 0 0 .932.593.7.7 0 0 0 .692.613h.749s.587 2.682-2.4 9.2c-2.2 4.8-7.2 9-7.2 9s0 1 1.4 1a30.5 30.5 0 0 0 8.6-6.4l.6.6a34.6 34.6 0 0 0-2.8 9.2c.641 1.195 5.2 1.548 5.2 1.548V5.125C247.6 6.976 245 8.925 244 10.124Z"/>
</svg>
