<svg xmlns="http://www.w3.org/2000/svg" data-name="Layer 1" viewBox="0 0 248 248">
  <defs>
    <clipPath id="a">
      <path d="M0 57.666h248v132.667H0z" style="fill:none"/>
    </clipPath>
  </defs>
  <g style="clip-path:url(#a)">
    <path d="M371.523 48.764V115.1a61.882 61.882 0 0 1-61.877-61.883 61.883 61.883 0 0 0-123.766 0 61.88 61.88 0 1 1-123.76 0A61.888 61.888 0 0 0 .237-8.668a61.888 61.888 0 0 0-61.883 61.883 61.882 61.882 0 0 1-61.877 61.885V48.764a61.882 61.882 0 0 0 61.877-61.883A61.888 61.888 0 0 1 .237-75 61.888 61.888 0 0 1 62.12-13.119 61.882 61.882 0 0 0 124 48.764a61.883 61.883 0 0 0 61.88-61.883A61.888 61.888 0 0 1 247.763-75a61.888 61.888 0 0 1 61.883 61.883 61.882 61.882 0 0 0 61.877 61.881Z"/>
    <path d="M371.523 181.432v66.334a61.882 61.882 0 0 1-61.877-61.883 61.883 61.883 0 0 0-123.766 0 61.88 61.88 0 1 1-123.76 0A61.888 61.888 0 0 0 .237 124a61.888 61.888 0 0 0-61.883 61.883 61.882 61.882 0 0 1-61.877 61.883v-66.334a61.882 61.882 0 0 0 61.877-61.883A61.888 61.888 0 0 1 .237 57.666a61.888 61.888 0 0 1 61.883 61.883 61.88 61.88 0 1 0 123.76 0 61.883 61.883 0 0 1 123.766 0 61.882 61.882 0 0 0 61.877 61.883Z"/>
  </g>
</svg>
