<svg xmlns="http://www.w3.org/2000/svg" viewBox="0 0 248 52.811">
  <path d="M183.189 8.133c-11.07 0-24.55 2.788-35.326 6.98a26.4 26.4 0 0 0-47.735.02c-10.775-4.191-24.25-6.977-35.317-6.977-11.088 0-38.73 5.466-38.73 22.489 0 7.184 7.183 13.9 17.491 13.9s16.085-6.245 21.551-9.996c3.181-2.181 10.62-4.841 14.993-1.405a9.478 9.478 0 0 1 3.592 8.433s2.967-2.811 2.967-9.37-7.028-11.245-11.557-10c-3.19.88-5.778 6.871-5.778 6.871s.156-4.216-1.874-6.247c-1.874-1.874-5.466-.78-5.466-.78s3.261 5.033.312 9.526a19.962 19.962 0 0 1-8.589 7.028s3.748-2.03 3.28-7.5-5.623-7.175-9.995-6.705-6.91 6.581-5 10c2.192 3.9 6.874 2.8 6.874 2.8s-.782 2.5-4.682 2.5c-3.592 0-11.244-2.343-11.244-10.932 0-9.37 15.458-17.023 31.391-17.023 11.542 0 24.733 3.3 34.406 6.935a26.4 26.4 0 1 0 50.5-.021c9.673-3.633 22.867-6.937 34.412-6.937 15.933 0 31.391 7.653 31.391 17.023 0 8.589-7.652 10.932-11.244 10.932-3.905 0-4.686-2.5-4.686-2.5s4.686 1.093 6.872-2.811c1.912-3.414-.625-9.526-5-9.995s-9.526 1.25-9.995 6.716 3.28 7.5 3.28 7.5a19.962 19.962 0 0 1-8.589-7.028c-2.949-4.493.312-9.526.312-9.526s-3.592-1.094-5.466.78c-2.03 2.031-1.874 6.247-1.874 6.247s-2.588-5.991-5.778-6.871c-4.529-1.25-11.557 3.436-11.557 9.995s2.967 9.37 2.967 9.37a9.478 9.478 0 0 1 3.592-8.433c4.373-3.436 11.812-.776 14.993 1.405 5.466 3.748 11.244 9.995 21.551 9.995s17.491-6.715 17.491-13.9c-.006-17.021-27.648-22.488-38.736-22.488ZM103.4 26.405a20.543 20.543 0 0 1 .751-5.5 33.33 33.33 0 0 1 7.2 4.118c9.214 7.808 9.37 20.927 9.37 20.927l.091.81A20.635 20.635 0 0 1 103.4 26.405Zm17.166-1.538c1.977 5.683 1.91 11.67 2.03 13.43a25.731 25.731 0 0 0-5.466-12.649c-2.345-2.932-6.5-5.742-11.669-8.218A20.627 20.627 0 0 1 123.8 5.808c-.822 1.551-4.2 7.317-9.328 8.127a37.672 37.672 0 0 1 6.092 10.932Zm3.644-19.058a20.624 20.624 0 0 1 18.321 11.6c-5.169 2.476-9.315 5.284-11.659 8.214a25.731 25.731 0 0 0-5.466 12.649c.12-1.76.053-7.747 2.03-13.43a37.672 37.672 0 0 1 6.09-10.932c-5.104-.804-8.472-6.517-9.316-8.101Zm2.976 40.951.094-.833s.156-13.119 9.37-20.927a33.279 33.279 0 0 1 7.195-4.115 20.589 20.589 0 0 1-16.659 25.875Z"/>
  <path d="M245.97 17.5a2.012 2.012 0 0 0-.671.116 6.161 6.161 0 0 0-4.014-1.678c-1.926 0-3.307 1.382-4.643 2.718-1.251 1.252-2.434 2.436-3.947 2.436a8.589 8.589 0 0 1-5.14-1.638c1.874-.752 7.253-3.451 7.639-9.763-9.214 5.154-14.68 6.559-22.333 4.217 8.121 3.279 12.806 11.869 13.431 15.461 2.067-2.285 1.557-6.085 1.058-8.181a10.228 10.228 0 0 0 5.345 1.465c2.161 0 3.7-1.537 5.052-2.893 1.162-1.163 2.259-2.26 3.538-2.26a4.534 4.534 0 0 1 2.845 1.175 2.029 2.029 0 1 0 1.84-1.175ZM35.139 13.935c-7.653 2.342-13.119.937-22.333-4.217.386 6.312 5.765 9.011 7.639 9.763a8.589 8.589 0 0 1-5.14 1.638c-1.513 0-2.7-1.184-3.948-2.436-1.335-1.336-2.716-2.718-4.642-2.718A6.161 6.161 0 0 0 2.7 17.643 2.031 2.031 0 1 0 3.87 18.7a4.534 4.534 0 0 1 2.845-1.175c1.279 0 2.376 1.1 3.538 2.26 1.355 1.356 2.891 2.893 5.052 2.893a10.218 10.218 0 0 0 5.345-1.465c-.5 2.1-1.009 5.9 1.058 8.181.625-3.594 5.31-12.18 13.431-15.459Z"/>
</svg>
