<svg xmlns="http://www.w3.org/2000/svg" data-name="Layer 1" viewBox="0 0 248 248">
  <defs>
    <clipPath id="a">
      <path d="M0 351.486h248v132.667H0z" style="fill:none"/>
    </clipPath>
  </defs>
  <path d="M97.788 107.5c-9 0-9.4 6.2-9.4 9.2a6.446 6.446 0 0 0 6.8 6.4c6.6 0 5.2-8.4 5.2-8.4a8.371 8.371 0 0 1 2.729 8.4c-1.129 5.594-6.724 9.594-12.128 9.594-6.4 0-15.4-5.4-17.2-14.8-1.363-7.117 2.674-10.462 2.674-10.462s-4.884-1.72-8.074.463c-3.8 2.6-3 7.8-3 7.8s-9.6-14.6-25-14.6c-17.8 0-25.2 14.2-25.2 22.4 0 13.2 7.6 23.4 19.8 23.4 13.6 0 14-12.2 14-12.2s3 7.6 7.8 4.2c-1.2-1.2-1.2-4.2-.2-6s4.455-2.781 8-1.6c4.2 1.4 14 9 25 9 15 0 20.8-9 20.8-17.8-.003-5.195-2.803-14.995-12.601-14.995Zm-43.995 15.8a10.911 10.911 0 0 0-5 6s-2-8.2-8-8.2c-4.6 0-9 2-9 6.8 0 8.2 7.2 7.4 7.2 7.4s-3.4 1.4-5.8.8c-3.552-.888-8-3.6-8-12.4 0-9 10.8-12.4 15.4-12.4 10.6 0 20 11.4 20 11.4s-4-.8-6.8.6Zm86.589-29.495c-2.474 1.038-3.2 2.8-4.4 3.4-2.107 1.053-3.8 1-5.4 2.4-1.5 1.316-1.8 5-2.2 5.2s-1.6.2-1.8-.2.8-2.2 1.2-3a12.948 12.948 0 0 0 1-5.2c0-1.6-4.8-6.6-4.8-6.6s-4.8 5-4.8 6.6a12.954 12.954 0 0 0 1 5.2c.4.8 1.4 2.6 1.2 3s-1.4.4-1.8.2-.695-3.882-2.2-5.2c-1.6-1.4-3.292-1.346-5.4-2.4-1.2-.6-1.925-2.362-4.4-3.4-6.2-2.6-8.6 4.6-8.6 4.6s6.8.4 10.2 2.6c3.625 2.346 6.038 4.185 8.8 10.4 1.6 3.6 6 3.614 6 3.614s4.4-.014 6-3.614c2.761-6.213 5.173-8.053 8.8-10.4 3.4-2.2 10.2-2.6 10.2-2.6s-2.401-7.199-8.6-4.6Z"/>
  <circle cx="123.984" cy="124" r="4.599"/>
  <path d="M140.382 154.2c-2.474-1.038-3.2-2.8-4.4-3.4-2.107-1.053-3.8-1-5.4-2.4-1.5-1.316-1.8-5-2.2-5.2s-1.6-.2-1.8.2.8 2.2 1.2 3a12.948 12.948 0 0 1 1 5.2c0 1.6-4.8 6.6-4.8 6.6s-4.8-5-4.8-6.6a12.954 12.954 0 0 1 1-5.2c.4-.8 1.4-2.6 1.2-3s-1.4-.4-1.8-.2-.695 3.882-2.2 5.2c-1.6 1.4-3.292 1.346-5.4 2.4-1.2.6-1.925 2.362-4.4 3.4-6.2 2.6-8.6-4.6-8.6-4.6s6.8-.4 10.2-2.6c3.625-2.346 6.038-4.185 8.8-10.4 1.6-3.6 6-3.614 6-3.614s4.4.014 6 3.614c2.761 6.213 5.173 8.053 8.8 10.4 3.4 2.2 10.2 2.6 10.2 2.6s-2.401 7.194-8.6 4.6ZM0 153.071s4.558-.354 5.2-1.549a34.6 34.6 0 0 0-2.8-9.2l.6-.6a30.513 30.513 0 0 0 8.6 6.4c1.4 0 1.4-1 1.4-1s-5-4.2-7.2-9c-2.986-6.517-2.4-9.2-2.4-9.2h.749a.711.711 0 0 0 .712-.72l-.052-4.456a.833.833 0 0 0-.833-.823H3s1-11.2 2.8-15.2c1.726-3.834 4.6-3.6 4.6-3.6a6.348 6.348 0 0 0-2.2-2.6c-1.484-.848-3.4.4-3.4.4a2.805 2.805 0 0 0-.8-2c-1-1.2-3.6-3.148-4-5"/>
  <path d="M.4 129.268a8.268 8.268 0 0 0 5.2-1.549c-2-6.2-3.2-9-3.2-9m135.214 3.781c0 8.8 5.8 17.8 20.8 17.8 11 0 20.8-7.6 25-9 3.544-1.181 7-.2 8 1.6s1 4.8-.2 6c4.8 3.4 7.8-4.2 7.8-4.2s.4 12.2 14 12.2c12.2 0 19.8-10.2 19.8-23.4 0-8.2-7.4-22.4-25.2-22.4-15.4 0-25 14.6-25 14.6s.8-5.2-3-7.8c-3.19-2.183-8.074-.463-8.074-.463s4.037 3.345 2.674 10.462c-1.8 9.4-10.8 14.8-17.2 14.8-5.4 0-11-4-12.128-9.594a8.371 8.371 0 0 1 2.729-8.4s-1.4 8.4 5.2 8.4a6.446 6.446 0 0 0 6.8-6.4c0-3-.4-9.2-9.4-9.2-9.801-.005-12.601 9.795-12.601 14.995Zm49.794.2s9.4-11.4 20-11.4c4.6 0 15.4 3.4 15.4 12.4 0 8.8-4.447 11.51-8 12.4-2.4.6-5.8-.8-5.8-.8s7.2.8 7.2-7.4c0-4.8-4.4-6.8-9-6.8-6 0-8 8.2-8 8.2a10.911 10.911 0 0 0-5-6c-2.801-1.4-6.8-.6-6.8-.6ZM248 153.071s-4.558-.354-5.2-1.549a34.6 34.6 0 0 1 2.8-9.2l-.6-.6a30.513 30.513 0 0 1-8.6 6.4c-1.4 0-1.4-1-1.4-1s5-4.2 7.2-9c2.986-6.517 2.4-9.2 2.4-9.2h-.749a.711.711 0 0 1-.712-.72l.052-4.456a.833.833 0 0 1 .833-.823H245s-1-11.2-2.8-15.2c-1.726-3.834-4.6-3.6-4.6-3.6a6.348 6.348 0 0 1 2.2-2.6c1.484-.848 3.4.4 3.4.4a2.805 2.805 0 0 1 .8-2c1-1.2 3.6-3.148 4-5"/>
  <path d="M247.6 129.268a8.268 8.268 0 0 1-5.2-1.549c2-6.2 3.2-9 3.2-9"/>
  <path d="M247.426 129.268a8.269 8.269 0 0 1-5.2-1.549c2-6.2 3.2-9 3.2-9"/>
  <path d="M371.523 342.584v66.334a61.882 61.882 0 0 1-61.877-61.883 61.883 61.883 0 1 0-123.766 0 61.88 61.88 0 1 1-123.76 0A61.887 61.887 0 0 0 .237 285.152a61.888 61.888 0 0 0-61.883 61.883 61.882 61.882 0 0 1-61.877 61.883v-66.334A61.882 61.882 0 0 0-61.646 280.7 61.888 61.888 0 0 1 .237 218.818 61.887 61.887 0 0 1 62.12 280.7a61.88 61.88 0 1 0 123.76 0 61.883 61.883 0 1 1 123.766 0 61.882 61.882 0 0 0 61.877 61.884Z" style="clip-path:url(#a)"/>
</svg>
