<?xml version="1.0" encoding="utf-8"?>
<!-- Generator: Adobe Illustrator 26.0.3, SVG Export Plug-In . SVG Version: 6.00 Build 0)  -->
<svg version="1.1" id="Layer_1" xmlns="http://www.w3.org/2000/svg" xmlns:xlink="http://www.w3.org/1999/xlink" x="0px" y="0px"
	 viewBox="0 0 248 248" style="enable-background:new 0 0 248 248;" xml:space="preserve">
<path d="M158-0.2c-19.5,0-45.6,8.7-60.1,31.1C84.4,51.9,48,53.4,46.6,28c-18.8-4.3-22.4,9.4-22.4,19.5c0,18.1,22.4,27.5,31.8,27.5
	c15.2,0,28.2-14.5,28.2-14.5s-0.7,31.8,10.1,49.9c15.2,25.3,39.8,38.3,42.7,44.1c2.9,5.8,5.1,23.9-12.3,21.7
	c1.4,9.4,12.3,18.1,26,8.7c11.6-10.1,1.4-28.9,1.4-28.9s29.7,3.6,44.9,29.7c21.4,36.6-5.1,44.1-5.1,44.1s3.5-12-2.2-16.6
	c-8-6.5-23.2-5.1-23.2,15.2c0,16.6,22.4,19.5,27.5,19.5c7.2,0,29.7-7.2,29.7-38.3c0-24.6-4.1-49.4-57.9-74.5
	c-44.9-21-48.5-36.9-48.5-61.5c0-21.7,18.1-42,36.9-42c18.8,0,31.8,8.7,35.5,23.2c3.3,13.3-5.8,20.3-5.8,20.3s1.4-26.8-21.7-26.8
	c-15.3,0-25.3,11.6-25.3,28.9c0,19.5,13.7,33.3,42.7,33.3c29.7,0,42.7-29.7,42.7-53.5C222.4,38.2,203.6-0.2,158-0.2z"/>
</svg>
