<svg xmlns="http://www.w3.org/2000/svg" viewBox="0 0 248.422 67.108">
  <path d="M23.7 20.179s-8.447 0-12.2-2.816c-4.43-3.322-2.346-7.273-2.346-7.273s.716 4.223 4.693 4.223c5.4 0 6.57-2.553 6.57-6.57A8.927 8.927 0 0 0 11.263 0C3.285 0 0 6.739 0 11.263c0 7.274 3.52 17.363 22.056 17.6s83.533 0 83.533 0l4.4 4.693-4.4 4.693s-65-.235-83.533 0S0 48.571 0 55.845c0 4.523 3.285 11.263 11.263 11.263a8.927 8.927 0 0 0 9.151-7.744c0-4.016-1.173-6.57-6.57-6.57-3.977 0-4.693 4.224-4.693 4.224s-2.084-3.951 2.349-7.274c3.755-2.816 12.2-2.816 12.2-2.816h84.94l12.905-13.374-12.9-13.375Zm202.665 18.068c-18.537-.235-83.532 0-83.532 0l-4.4-4.693 4.4-4.693s65 .235 83.532 0 22.057-10.324 22.057-17.6C248.422 6.739 245.137 0 237.159 0a8.926 8.926 0 0 0-9.151 7.743c0 4.017 1.173 6.57 6.57 6.57 3.976 0 4.692-4.223 4.692-4.223s2.084 3.951-2.346 7.273c-3.754 2.816-12.2 2.816-12.2 2.816h-84.942l-12.905 13.375 12.905 13.374h84.941s8.447 0 12.2 2.816c4.43 3.323 2.346 7.274 2.346 7.274s-.716-4.224-4.692-4.224c-5.4 0-6.57 2.554-6.57 6.57a8.926 8.926 0 0 0 9.151 7.744c7.978 0 11.263-6.74 11.263-11.263.001-7.274-3.521-17.364-22.056-17.598Z"/>
</svg>
