<svg xmlns="http://www.w3.org/2000/svg" viewBox="0 0 123.52 248">
  <path d="M61.788 111.674a22.927 22.927 0 0 0 0 24.341 22.927 22.927 0 0 0 0-24.341Zm0 36.512a31.109 31.109 0 0 1-12.988 6.178l3.8 35.087a22.164 22.164 0 0 1 8.834 7.489.149.149 0 0 0 .248 0 22.168 22.168 0 0 1 7.442-6.769l4.21-36.15a31.144 31.144 0 0 1-11.544-5.835ZM0 0v37.029A65.679 65.679 0 0 1 8.038 26.2 71.41 71.41 0 0 1 60.676 3.072h1.873a71.343 71.343 0 0 1 52.489 23.013 65.67 65.67 0 0 1 8.482 11.531V0Zm20.123 117.75a2198.45 2198.45 0 0 0 3.883 20.016 22.955 22.955 0 0 0 32.083 4.461 31.114 31.114 0 0 1 0-36.765 22.976 22.976 0 0 0-35.966 12.288Zm60.37-25.092 2.812-19.119s-11.944-7.166-20.9-7.166-21.5 7.165-21.5 7.166l2.814 19.135A31.049 31.049 0 0 1 61.788 99.5a31.045 31.045 0 0 1 18.7-6.845Zm19.174 44.985c1.223-6.4 2.5-13.222 3.742-20.048a22.974 22.974 0 0 0-35.921-12.132 31.114 31.114 0 0 1 0 36.765 22.959 22.959 0 0 0 32.179-4.584Z"/>
  <path d="M105.735 104.486c2.322-13.453 4.222-25.77 4.885-33.387.969-11.133-2.934-22.1-10.989-30.89a51.082 51.082 0 0 0-37.082-16.236h-1.873A51.159 51.159 0 0 0 23.469 40.3C15.458 49.068 11.6 59.994 12.6 71.062c.7 7.691 2.676 20.053 5.106 33.594a31.359 31.359 0 0 1 12.854-9.723l-1.3-8.854a7.129 7.129 0 0 1-6.867-7.166 6.62 6.62 0 0 1 6.867-6.569s2.092-11.794 15.826-15.675c13.137-3.583 15.526-7.614 18.514-14.183 2.986 6.569 2.986 9.405 16.721 14.183 14.926 4.777 16.121 16.271 16.122 16.273a5.864 5.864 0 0 1 5.374 5.971c0 5.375-5.374 6.569-7.763 5.972s-1.254 8.4-1.474 9.877a31.34 31.34 0 0 1 13.155 9.724Zm7.599 71.866a946.536 946.536 0 0 0-1.889 9.107c-3.181 15.594-5.928 29.062-12.386 39.755-8.012 13.265-20.3 19.714-37.551 19.714-16.665 0-29.038-6.417-36.777-19.073-6.274-10.259-8.861-23.294-11.6-37.094-.648-3.269-1.319-6.649-2.043-10.006-.4-1.868-5.982-28.011-11.088-54.9V248h123.52V123.847c-4.723 25.84-9.8 50.629-10.167 52.417Z"/>
  <path d="M33.632 184.692c.31 1.561.613 3.057.914 4.511a21.861 21.861 0 0 1 8.748-1.819c.429 0 .855.016 1.278.04l-3.507-32.4a30.99 30.99 0 0 1-14.434-4.2c2.761 13.569 4.833 23.271 4.891 23.543.757 3.507 1.445 6.973 2.11 10.325Zm27.876 39.335c15.6.023 20.9-6.977 25.977-26.873-8.851-5.681-21.081.315-22.012 10.76a3.936 3.936 0 0 1-7.819.163 14.439 14.439 0 0 0-14.36-13.1c-2.571 0-5.224.333-7.078 1.864 4.684 19.885 9.705 27.186 25.292 27.186Zm27.728-34.522a600.68 600.68 0 0 0 1.73-8.223c.611-3 1.243-6.094 1.921-9.26.142-.695 1.894-9.264 4.253-21.313a31.008 31.008 0 0 1-15.855 4.344c-.087 0-.173-.006-.26-.007l-3.784 32.494a22.15 22.15 0 0 1 2.577-.155 21.867 21.867 0 0 1 9.418 2.121Z"/>
</svg>
