<svg xmlns="http://www.w3.org/2000/svg" viewBox="0 0 248 248">
  <path d="M158.007-.181c-19.536 0-45.584 8.683-60.055 31.113C84.426 51.9 48.026 53.363 46.579 28.038c-18.812-4.341-22.43 9.406-22.43 19.536 0 18.089 22.43 27.5 31.836 27.5C71.18 75.069 84.2 60.6 84.2 60.6s-.723 31.837 10.13 49.926c15.195 25.324 39.8 38.348 42.69 44.137s5.065 23.877-12.3 21.707c1.447 9.406 12.3 18.089 26.048 8.682 11.577-10.129 1.447-28.942 1.447-28.942s29.666 3.618 44.86 29.666c21.362 36.62-5.064 44.137-5.064 44.137s3.457-12.037-2.171-16.642c-7.959-6.512-23.154-5.065-23.154 15.195 0 16.642 22.43 19.536 27.5 19.536 7.236 0 29.666-7.236 29.666-38.349 0-24.6-4.089-49.364-57.885-74.526-44.86-20.983-48.478-36.9-48.478-61.5 0-21.707 18.075-41.966 36.9-41.966s31.837 8.683 35.455 23.154c3.334 13.337-5.789 20.259-5.789 20.259S185.5 48.3 162.349 48.3c-15.264 0-25.325 11.562-25.325 28.942 0 19.536 13.748 33.284 42.69 33.284 29.666 0 42.69-29.666 42.69-53.544C222.4 38.168 203.592-.181 158.007-.181Z"/>
</svg>
