<svg xmlns="http://www.w3.org/2000/svg" viewBox="0 0 248 132.667">
  <path d="M124 57.432A61.875 61.875 0 0 0 185.7 0H62.3A61.873 61.873 0 0 0 124 57.432Z"/>
  <path d="M247.763 0a61.887 61.887 0 0 0-61.883 61.883 61.88 61.88 0 1 1-123.76 0A61.887 61.887 0 0 0 .237 0C.158 0 .079.006 0 .006V66.34c.079 0 .158-.006.237-.006a61.887 61.887 0 0 1 61.883 61.883c0 1.5.072 2.979.177 4.45H185.7c.1-1.471.177-2.952.177-4.45a61.887 61.887 0 0 1 61.883-61.883c.079 0 .158.006.237.006V.006c-.076 0-.155-.006-.234-.006Z"/>
</svg>
