<svg xmlns="http://www.w3.org/2000/svg" viewBox="0 0 248 248">
  <path d="M235.78 124c9.72-2.743 12.22-10.973 12.22-13.98 0-2.541-1.452-13.8-9.8-13.8-10.167 0-10.893 7.625-7.625 11.619 2.311 2.824 8.351 1.089 8.351 1.089s-3.772 13.262-22.149 2.542c-13.077-7.622-14.891-22.51-14.891-22.51s9.441 5.084 14.524-.726c4.72-6.9.363-12.345-4.357-13.071 1.089 8.714-7.989 7.625-10.893 6.172s-9.441-13.8-22.15-21.423c-9.077-5.446-25.054-5.083-25.054-5.083s7.262-6.536 7.262-14.161c0-4.721-4.72-15.977-13.8-15.977-5.083 0-11.982 1.816-9.8 11.256 12.709.726 11.974 18.993 1.453 25.781C130.06 67.54 125.474 77.073 124 85.674c-1.474-8.6-6.06-18.134-15.069-23.946-10.521-6.788-11.256-25.055 1.453-25.781 2.178-9.44-4.721-11.256-9.8-11.256-9.078 0-13.8 11.256-13.8 15.977 0 7.625 7.262 14.161 7.262 14.161s-15.977-.363-25.054 5.083C56.281 67.537 49.745 79.883 46.84 81.335s-11.982 2.542-10.893-6.172c-4.72.726-9.077 6.172-4.357 13.071 5.083 5.81 14.524.726 14.524.726s-1.814 14.888-14.887 22.513c-18.377 10.72-22.149-2.542-22.149-2.542s6.04 1.735 8.351-1.089c3.271-3.994 2.542-11.619-7.629-11.619-8.352 0-9.8 11.256-9.8 13.8 0 3.007 2.5 11.237 12.22 13.98C2.5 126.743 0 134.973 0 137.98c0 2.541 1.452 13.8 9.8 13.8 10.167 0 10.893-7.625 7.625-11.619-2.311-2.824-8.351-1.089-8.351-1.089s3.772-13.262 22.149-2.542c13.077 7.622 14.891 22.51 14.891 22.51s-9.441-5.084-14.524.726c-4.72 6.9-.363 12.345 4.357 13.071-1.089-8.714 7.989-7.625 10.893-6.172s9.441 13.8 22.15 21.423c9.077 5.446 25.054 5.083 25.054 5.083s-7.262 6.536-7.262 14.161c0 4.721 4.72 15.977 13.8 15.977 5.083 0 11.982-1.816 9.8-11.256-12.709-.726-11.974-18.993-1.453-25.781 9.009-5.812 13.6-15.345 15.069-23.946 1.474 8.6 6.06 18.134 15.069 23.946 10.521 6.788 11.256 25.055-1.453 25.781-2.178 9.44 4.721 11.256 9.8 11.256 9.078 0 13.8-11.256 13.8-15.977 0-7.625-7.262-14.161-7.262-14.161s15.977.363 25.054-5.083c12.709-7.625 19.245-19.971 22.15-21.423s11.982-2.542 10.893 6.172c4.72-.726 9.077-6.172 4.357-13.071-5.083-5.81-14.524-.726-14.524-.726s1.815-14.888 14.887-22.513c18.377-10.72 22.149 2.542 22.149 2.542s-6.04-1.735-8.351 1.089c-3.268 3.994-2.542 11.619 7.625 11.619 8.352 0 9.8-11.256 9.8-13.8.008-3.004-2.492-11.234-12.212-13.977ZM87.508 176.469c-12.345 0-20.334-1.816-30.864-24.328C47.437 132.456 38.336 126.035 29.3 124c9.04-2.035 18.141-8.456 27.348-28.141 10.53-22.512 18.519-24.328 30.864-24.328 10.893 0 21.06 9.071 21.06 18.519s-4.357 15.976-11.619 17.792a9.775 9.775 0 0 1-10.167-2.905s13.435.726 13.435-10.893c0-7.66-5.8-12.709-14.524-12.709-9.8 0-16.7 6.9-16.7 21.423 0 13.464 12.175 20.1 23.366 21.242-11.191 1.146-23.366 7.778-23.366 21.242 0 14.524 6.9 21.423 16.7 21.423 8.722 0 14.524-5.049 14.524-12.709 0-11.619-13.435-10.893-13.435-10.893a9.775 9.775 0 0 1 10.167-2.905c7.262 1.816 11.619 8.352 11.619 17.792S98.4 176.469 87.508 176.469ZM124 149.71A31.575 31.575 0 0 0 98.262 124 31.575 31.575 0 0 0 124 98.29 31.575 31.575 0 0 0 149.738 124 31.575 31.575 0 0 0 124 149.71Zm67.356 2.431c-10.53 22.512-18.519 24.328-30.864 24.328-10.893 0-21.06-9.071-21.06-18.519s4.357-15.976 11.619-17.792a9.775 9.775 0 0 1 10.167 2.905s-13.435-.726-13.435 10.893c0 7.66 5.8 12.709 14.524 12.709 9.8 0 16.7-6.9 16.7-21.423 0-13.464-12.175-20.1-23.366-21.242 11.191-1.146 23.366-7.778 23.366-21.242 0-14.524-6.9-21.423-16.7-21.423-8.722 0-14.524 5.049-14.524 12.709 0 11.619 13.435 10.893 13.435 10.893a9.775 9.775 0 0 1-10.167 2.905c-7.262-1.816-11.619-8.352-11.619-17.792s10.167-18.519 21.06-18.519c12.345 0 20.334 1.816 30.864 24.328 9.207 19.685 18.308 26.106 27.348 28.141-9.04 2.035-18.141 8.456-27.348 28.141Z"/>
</svg>
