<svg xmlns="http://www.w3.org/2000/svg" viewBox="0 0 199.702 248.181">
  <path d="M133.858 0C114.322 0 88.274 8.683 73.8 31.113c-13.523 20.965-49.923 22.43-51.37-2.894C3.618 23.877 0 37.625 0 47.755 0 65.844 22.43 75.25 31.837 75.25c15.194 0 28.218-14.471 28.218-14.471s-.723 31.837 10.13 49.926c15.195 25.324 39.8 38.348 42.69 44.137s5.065 23.877-12.3 21.706c1.447 9.407 12.3 18.089 26.048 8.683 11.577-10.13 1.447-28.942 1.447-28.942s29.666 3.618 44.861 29.666c21.361 36.619-5.065 44.137-5.065 44.137s3.457-12.037-2.171-16.642c-7.959-6.512-23.154-5.065-23.154 15.2 0 16.642 22.431 19.536 27.5 19.536 7.236 0 29.666-7.236 29.666-38.349 0-24.6-4.089-49.364-57.884-74.526C96.957 114.322 93.339 98.4 93.339 73.8c0-21.707 18.075-41.966 36.9-41.966 18.812 0 31.836 8.682 35.454 23.154 3.334 13.337-5.788 20.259-5.788 20.259s1.447-26.772-21.707-26.772c-15.264 0-25.325 11.562-25.325 28.943 0 19.536 13.748 33.284 42.69 33.284 29.666 0 42.69-29.666 42.69-53.544C198.255 38.349 179.443 0 133.858 0Z"/>
</svg>
