<?xml version="1.0" encoding="utf-8"?>
<!-- Generator: Adobe Illustrator 26.0.3, SVG Export Plug-In . SVG Version: 6.00 Build 0)  -->
<svg version="1.1" id="Layer_1" xmlns="http://www.w3.org/2000/svg" xmlns:xlink="http://www.w3.org/1999/xlink" x="0px" y="0px"
	 viewBox="0 0 248 248" style="enable-background:new 0 0 248 248;" xml:space="preserve">
<path d="M235.8,124c9.7-2.7,12.2-11,12.2-14c0-2.5-1.5-13.8-9.8-13.8c-10.2,0-10.9,7.6-7.6,11.6c2.3,2.8,8.4,1.1,8.4,1.1
	s-3.8,13.3-22.1,2.5c-13.1-7.6-14.9-22.5-14.9-22.5s9.4,5.1,14.5-0.7c4.7-6.9,0.4-12.3-4.4-13.1c1.1,8.7-8,7.6-10.9,6.2
	c-2.9-1.5-9.4-13.8-22.1-21.4c-9.1-5.4-25.1-5.1-25.1-5.1s7.3-6.5,7.3-14.2c0-4.7-4.7-16-13.8-16c-5.1,0-12,1.8-9.8,11.3
	c12.7,0.7,12,19,1.5,25.8c-9,5.8-13.6,15.3-15.1,23.9c-1.5-8.6-6.1-18.1-15.1-23.9c-10.5-6.8-11.3-25.1,1.5-25.8
	c2.2-9.4-4.7-11.3-9.8-11.3c-9.1,0-13.8,11.3-13.8,16c0,7.6,7.3,14.2,7.3,14.2s-16-0.4-25.1,5.1c-12.7,7.6-19.2,20-22.1,21.4
	c-2.9,1.5-12,2.5-10.9-6.2c-4.7,0.7-9.1,6.2-4.4,13.1C36.7,94,46.1,89,46.1,89s-1.8,14.9-14.9,22.5c-18.4,10.7-22.1-2.5-22.1-2.5
	s6,1.7,8.4-1.1c3.3-4,2.5-11.6-7.6-11.6C1.5,96.2,0,107.5,0,110c0,3,2.5,11.2,12.2,14C2.5,126.7,0,135,0,138
	c0,2.5,1.5,13.8,9.8,13.8c10.2,0,10.9-7.6,7.6-11.6c-2.3-2.8-8.4-1.1-8.4-1.1s3.8-13.3,22.1-2.5c13.1,7.6,14.9,22.5,14.9,22.5
	s-9.4-5.1-14.5,0.7c-4.7,6.9-0.4,12.3,4.4,13.1c-1.1-8.7,8-7.6,10.9-6.2c2.9,1.5,9.4,13.8,22.1,21.4c9.1,5.4,25.1,5.1,25.1,5.1
	s-7.3,6.5-7.3,14.2c0,4.7,4.7,16,13.8,16c5.1,0,12-1.8,9.8-11.3c-12.7-0.7-12-19-1.5-25.8c9-5.8,13.6-15.3,15.1-23.9
	c1.5,8.6,6.1,18.1,15.1,23.9c10.5,6.8,11.3,25.1-1.5,25.8c-2.2,9.4,4.7,11.3,9.8,11.3c9.1,0,13.8-11.3,13.8-16
	c0-7.6-7.3-14.2-7.3-14.2s16,0.4,25.1-5.1c12.7-7.6,19.2-20,22.1-21.4c2.9-1.5,12-2.5,10.9,6.2c4.7-0.7,9.1-6.2,4.4-13.1
	c-5.1-5.8-14.5-0.7-14.5-0.7s1.8-14.9,14.9-22.5c18.4-10.7,22.1,2.5,22.1,2.5s-6-1.7-8.4,1.1c-3.3,4-2.5,11.6,7.6,11.6
	c8.4,0,9.8-11.3,9.8-13.8C248,135,245.5,126.7,235.8,124z M87.5,176.5c-12.3,0-20.3-1.8-30.9-24.3C47.4,132.5,38.3,126,29.3,124
	c9-2,18.1-8.5,27.3-28.1c10.5-22.5,18.5-24.3,30.9-24.3c10.9,0,21.1,9.1,21.1,18.5c0,9.4-4.4,16-11.6,17.8
	c-6.7,1.7-10.2-2.9-10.2-2.9s13.4,0.7,13.4-10.9c0-7.7-5.8-12.7-14.5-12.7c-9.8,0-16.7,6.9-16.7,21.4c0,13.5,12.2,20.1,23.4,21.2
	c-11.2,1.1-23.4,7.8-23.4,21.2c0,14.5,6.9,21.4,16.7,21.4c8.7,0,14.5-5,14.5-12.7c0-11.6-13.4-10.9-13.4-10.9s3.5-4.6,10.2-2.9
	c7.3,1.8,11.6,8.4,11.6,17.8C108.6,167.4,98.4,176.5,87.5,176.5z M124,149.7c-2.9-16.6-16.9-24.5-25.7-25.7
	c8.9-1.2,22.8-9.1,25.7-25.7c2.9,16.6,16.9,24.5,25.7,25.7C140.9,125.2,126.9,133.1,124,149.7z M191.4,152.1
	c-10.5,22.5-18.5,24.3-30.9,24.3c-10.9,0-21.1-9.1-21.1-18.5c0-9.4,4.4-16,11.6-17.8c6.7-1.7,10.2,2.9,10.2,2.9s-13.4-0.7-13.4,10.9
	c0,7.7,5.8,12.7,14.5,12.7c9.8,0,16.7-6.9,16.7-21.4c0-13.5-12.2-20.1-23.4-21.2c11.2-1.1,23.4-7.8,23.4-21.2
	c0-14.5-6.9-21.4-16.7-21.4c-8.7,0-14.5,5-14.5,12.7c0,11.6,13.4,10.9,13.4,10.9s-3.5,4.6-10.2,2.9c-7.3-1.8-11.6-8.4-11.6-17.8
	c0-9.4,10.2-18.5,21.1-18.5c12.3,0,20.3,1.8,30.9,24.3c9.2,19.7,18.3,26.1,27.3,28.1C209.7,126,200.6,132.5,191.4,152.1z"/>
</svg>
