<?xml version="1.0" encoding="utf-8"?>
<!-- Generator: Adobe Illustrator 26.0.3, SVG Export Plug-In . SVG Version: 6.00 Build 0)  -->
<svg version="1.1" id="Layer_1" xmlns="http://www.w3.org/2000/svg" xmlns:xlink="http://www.w3.org/1999/xlink" x="0px" y="0px"
	 viewBox="0 0 248 248" style="enable-background:new 0 0 248 248;" xml:space="preserve">
<g>
	<circle cx="124.2" cy="123.8" r="7.7"/>
	<path d="M118.5,169.8c0,0-11.1-3.5-11.1-10.3c0-5.3,5.2-3.5,5.2-3.5s-1,0.9-1,2.7c0,1.5,0.9,3.2,4.1,3.2c0.9,0,4.7-1.2,4.7-5.5
		c0-4.7-4.6-7.4-9.3-7.4c-2.7,0-9.4,2.1-9.4,10c0,11.8,15.9,14.4,15.9,14.4s-1-0.7-0.7-2.1C117.2,169.9,118.5,169.8,118.5,169.8z"/>
	<path d="M123.1,169c0,0,0.4-1-0.1-2.5c-0.6-1.5-2.1-1.9-2.1-1.9s1.1-0.4,1.3-1.9c0.1-1-0.6-3.4-0.6-3.4s-0.6,4.1-5.9,4.1
		c-6.6,0-5.5-6.3-5.5-6.3s-1.2,0.6-1.2,2.5c0,5.9,8.4,7.2,10.3,7.4C123.1,167.3,123.1,169,123.1,169z"/>
	<path d="M96,173.9c3.2,0,5.2-2.5,5.2-5.7c0-2.8-1.5-5.7-1.9-6.5c-0.9-1.7,0-2.9,0-2.9s-1.5,0-2.4,1c-0.9,1-0.4,3.1-0.4,3.1
		s-1-0.1-1.8,0.7c-0.5,0.5-0.4,2.1-0.4,2.1s0.8-0.5,1.8-0.3c1.5,0.3,3.1,4.9-0.7,4.9c-1.9,0-3.4-2.1-3.4-4.3c0-3.2,0.6-6.3,3.1-9.1
		c2.4-2.7,3.5-2.1,3.5-2.1l-0.1-4.5l0.1-0.1l-0.1,0l0-0.1l-0.1,0.1l-4.5-0.1c0,0,0.7,1.1-2.1,3.5c-2.8,2.5-5.9,3.1-9.1,3.1
		c-2.2,0-4.3-1.5-4.3-3.4c0-3.8,4.6-2.2,4.9-0.7c0.2,1-0.3,1.8-0.3,1.8s1.5,0,2.1-0.4c0.8-0.7,0.7-1.8,0.7-1.8s2.1,0.4,3.1-0.4
		c1-0.9,1-2.4,1-2.4s-1.3,0.9-2.9,0c-0.8-0.4-3.7-1.9-6.5-1.9c-3.2,0-5.7,1.9-5.7,5.2c0,3.5,2.4,7.2,6.8,7.2c2.2,0,4.1-0.3,4.1-0.3
		s-4.6,6.3-9.4,7.1c-1.9,0.3-4.9,0.2-6.3-1.6c-0.9-1.2,0-2.4,0-2.4s1.3,1.3,2.7,1.2c1.3-0.1,2.4-1.2,2.4-2.5c0-2.5-1.8-2.9-3.4-2.9
		c-2.1,0-4.6,1.6-5,4.3c-0.6,3.8,1.6,6,4.4,6.8c2.1,0.5,5.6,0,5.6,0s-3.2,4.9-7.1,5.5c-3.8,0.6-4.9-0.9-4.9-0.9s-0.4,2.1,0.3,3.1
		c0.7,1,1.6,1.3,1.6,1.3s-1,1.5-2.2,1.8c0.5,1.9,0.4,3.4,0.4,3.9l-0.1,0.1c0,0,0,0,0.1,0c0,0.1,0,0.1,0,0.1l0.1-0.1
		c0.5,0,2-0.1,3.9,0.4c0.3-1.2,1.8-2.2,1.8-2.2s0.3,0.9,1.3,1.6c1,0.7,3.1,0.3,3.1,0.3s-1.5-1-0.9-4.9c0.6-3.8,5.5-7.1,5.5-7.1
		s-0.5,3.5,0,5.6c0.7,2.8,2.9,5,6.8,4.4c2.7-0.4,4.3-2.9,4.3-5c0-1.6-0.4-3.4-2.9-3.4c-1.3,0-2.4,1-2.5,2.4
		c-0.2,1.4,1.2,2.7,1.2,2.7s-1.2,0.9-2.4,0c-1.9-1.4-1.9-4.4-1.6-6.3c0.7-4.9,7.1-9.4,7.1-9.4s-0.3,1.9-0.3,4.1
		C88.8,171.5,92.4,173.9,96,173.9z"/>
	<path d="M101.9,150.6c0,0,1-1.4,3.5-3.1c1.9-1.3,5.2-2.1,5.2-2.1s-2.6-0.6-4.8-2.8c-2.2-2.2-2.8-4.8-2.8-4.8s-0.7,3.2-2.1,5.2
		c-1.7,2.5-3.1,3.5-3.1,3.5l3.3,0.7L101.9,150.6z"/>
	<path d="M116.5,143.8c1.4,0.6,2.9-0.6,2.9-0.6l2-7.8l-3-1.1l-3.6,7.1C114.8,141.4,115.1,143.3,116.5,143.8z"/>
	<path d="M109.4,139.1C109.4,139.1,109.4,139.2,109.4,139.1L109.4,139.1c1.2,1,2.8,0.5,2.8,0.5l5-6.2l-1-1l0,0l0,0l0,0l0,0l-1-1
		l-6.2,5C108.8,136.3,108.4,137.9,109.4,139.1L109.4,139.1C109.3,139,109.3,139.1,109.4,139.1z"/>
	<path d="M122.6,136.2l-0.9,7.9c0,0,0.9,1.6,2.5,1.6h0.1c1.5,0,2.5-1.6,2.5-1.6l-0.9-7.9l-1.6,0L122.6,136.2z"/>
	<path d="M124.2,212.5L124.2,212.5C124.2,212.5,124.2,212.5,124.2,212.5C124.3,212.5,124.3,212.5,124.2,212.5L124.2,212.5
		c2.8-0.3,3.4-2.1,3.4-3.4c0-3.4-2.4-6.6-2.4-11.2c0-5.5,0.3-5.6,0.3-5.6s-1-0.6-1.3-1.5v-0.1c0,0,0,0,0,0c0,0,0,0,0,0v0.1
		c-0.3,0.9-1.3,1.5-1.3,1.5s0.3,0.1,0.3,5.6c0,4.6-2.4,7.8-2.4,11.2C120.9,210.4,121.5,212.2,124.2,212.5z"/>
	<path d="M141.3,174.3c-9,0-11.5,6-11.5,6h-5.6h0h-5.6c0,0-2.5-6-11.5-6c-7.8,0-13,8-13,13.4c0,10.3,6.2,9.4,4.7,16.8
		c1.5,0,2.5,0.4,4-2.2c4.6,2.5,13.1,11.8,5.3,16.6c1,0,7.2,0.9,7.1-6.8c-0.1-7.7-13.1-16.4-13.1-16.4s2.4,0.3,3.1-1.5
		c-3.7-1.5-5.7-3.5-5.5-8.1c0.3-4.9,4.9-7.4,7.4-7.4c4.7,0,9.7,2.1,9.7,6.6c0,4.9-3.1,5.7-3.1,5.7s1.2-2.1,0.3-4.3
		c-0.4-1-2.2-2.2-4.7-2.2c-2.2,0-4.2,1.8-4.1,5.3c0.1,5.9,7.4,5,7.4,5s-0.3,2.7,0.9,3.8c1.5,1.5,3.5,0.9,3.5,0.9s-0.9-4.7,0.6-5.9
		c2.4-1.9,2.8-5.3,2.8-5.3h3.8h0h3.8c0,0,0.4,3.4,2.8,5.3c1.5,1.2,0.6,5.9,0.6,5.9s2,0.7,3.5-0.9c1.2-1.2,0.9-3.8,0.9-3.8
		s7.2,0.9,7.4-5c0.1-3.5-1.9-5.3-4.1-5.3c-2.5,0-4.3,1.2-4.7,2.2c-0.9,2.2,0.3,4.3,0.3,4.3s-3.1-0.9-3.1-5.7c0-4.6,5-6.6,9.7-6.6
		c2.5,0,7.1,2.5,7.4,7.4c0.3,4.6-1.8,6.6-5.5,8.1c0.7,1.8,3.1,1.5,3.1,1.5s-13,8.7-13.1,16.4c-0.1,7.7,6,6.8,7.1,6.8
		c-7.8-4.9,0.7-14.1,5.3-16.6c1.5,2.7,2.5,2.2,4,2.2c-1.5-7.4,4.7-6.5,4.7-16.8C154.3,182.3,149.1,174.3,141.3,174.3z M128.1,185.5
		h-3.8h0h-3.8v-2.2h3.8h0h3.8V185.5z"/>
	<path d="M130.9,173.5c0,0,15.9-2.7,15.9-14.4c0-8-6.8-10-9.4-10c-4.7,0-9.3,2.7-9.3,7.4c0,4.3,3.8,5.5,4.7,5.5
		c3.2,0,4.1-1.8,4.1-3.2c0-1.8-1-2.7-1-2.7s5.2-1.8,5.2,3.5c0,6.8-11.1,10.3-11.1,10.3s1.3,0.1,1.6,1.6
		C131.9,172.7,130.9,173.5,130.9,173.5z"/>
	<path d="M139.4,159.6c0-1.9-1.2-2.5-1.2-2.5s1.2,6.3-5.5,6.3c-5.3,0-5.9-4.1-5.9-4.1s-0.7,2.4-0.6,3.4c0.2,1.5,1.3,1.9,1.3,1.9
		s-1.5,0.4-2.1,1.9c-0.6,1.5-0.1,2.5-0.1,2.5s0-1.8,3.7-2.1C131,166.8,139.4,165.5,139.4,159.6z"/>
	<path d="M121.6,174h2.6h0h2.6c0,0,1.5-0.6,1.3-2.1c-0.1-1.5-1.3-1.8-1.3-1.8h-2.6h0h-2.6c0,0-1.2,0.3-1.3,1.8
		C120.1,173.4,121.6,174,121.6,174z"/>
	<path d="M124.3,242.9L124.3,242.9C124.3,242.9,124.3,242.9,124.3,242.9C124.2,242.9,124.2,242.9,124.3,242.9L124.3,242.9
		c-1.4,0-2.5,1.1-2.5,2.5c0,1.4,1.1,2.5,2.5,2.5v0c0,0,0,0,0,0c0,0,0,0,0,0v0c1.4,0,2.5-1.1,2.5-2.5
		C126.7,244,125.6,242.9,124.3,242.9z"/>
	<path d="M124.3,234.9L124.3,234.9C124.3,234.9,124.3,234.9,124.3,234.9C124.2,234.9,124.2,234.9,124.3,234.9L124.3,234.9
		c-1.6,0-2.9,1.3-2.9,2.9s1.3,2.9,2.9,2.9v0c0,0,0,0,0,0c0,0,0,0,0,0v0c1.6,0,2.9-1.3,2.9-2.9S125.9,234.9,124.3,234.9z"/>
	<path d="M124.3,225L124.3,225C124.3,225,124.3,225,124.3,225C124.2,225,124.2,225,124.3,225L124.3,225c-2,0-3.5,1.6-3.5,3.5
		c0,1.9,1.6,3.5,3.5,3.5v0c0,0,0,0,0,0c0,0,0,0,0,0v0c1.9,0,3.5-1.6,3.5-3.5C127.8,226.6,126.2,225,124.3,225z"/>
	<path d="M132,143.8c1.4-0.6,1.7-2.4,1.7-2.4l-3.6-7.1l-3,1.1l2,7.8C129.1,143.2,130.5,144.4,132,143.8z"/>
	<path d="M139.8,136.2l-6.2-5l-1.1,1.1l0,0l-1.1,1.1l5,6.2c0,0,1.7,0.5,2.8-0.6l0,0c0,0,0,0,0-0.1c0,0,0,0,0,0l0,0
		C140.2,137.9,139.8,136.2,139.8,136.2z"/>
	<path d="M130.3,220.5c-1.7-1.8-2.7-5.5-2.7-5.5s-0.7,0.7-3.4,0.7c-2.6,0-3.4-0.7-3.4-0.7s-1,3.6-2.7,5.5c-1.9,2.1-3.7,2.4-3.7,2.4
		s0.9,1.8,3.4,1.8c2.8,0,4.7-3.7,4.7-3.7h1.6h0h1.6c0,0,1.9,3.7,4.7,3.7c2.5,0,3.4-1.8,3.4-1.8S132.2,222.5,130.3,220.5z"/>
	<path d="M159.2,146.6c11.8,0,14.4-15.9,14.4-15.9s-0.7,1-2.1,0.7c-1.5-0.3-1.6-1.6-1.6-1.6s-3.5,11.1-10.3,11.1
		c-5.3,0-3.5-5.2-3.5-5.2s0.9,1,2.7,1c1.5,0,3.2-0.9,3.2-4.1c0-0.9-1.2-4.7-5.5-4.7c-4.7,0-7.4,4.6-7.4,9.3
		C149.1,139.9,151.2,146.6,159.2,146.6z"/>
	<path d="M157.2,138.1c0,0,0.6,1.2,2.5,1.2c5.9,0,7.2-8.4,7.4-10.3c0.3-3.7,2.1-3.7,2.1-3.7s-1-0.4-2.5,0.1
		c-1.5,0.6-1.9,2.1-1.9,2.1s-0.4-1.1-1.9-1.3c-1-0.1-3.4,0.6-3.4,0.6s4.1,0.6,4.1,5.9C163.6,139.3,157.2,138.1,157.2,138.1z"/>
	<path d="M182.3,178.2c0,0,0.9-0.3,1.6-1.3c0.7-1,0.3-3.1,0.3-3.1s-1,1.5-4.9,0.9c-3.8-0.6-7.1-5.5-7.1-5.5s3.5,0.5,5.6,0
		c2.8-0.7,5-2.9,4.4-6.8c-0.4-2.7-2.9-4.3-5-4.3c-1.6,0-3.4,0.4-3.4,2.9c0,1.3,1,2.4,2.4,2.5c1.4,0.2,2.7-1.2,2.7-1.2s0.9,1.2,0,2.4
		c-1.4,1.9-4.4,1.9-6.3,1.6c-4.9-0.7-9.4-7.1-9.4-7.1s1.9,0.3,4.1,0.3c4.4,0,6.8-3.7,6.8-7.2c0-3.2-2.5-5.2-5.7-5.2
		c-2.8,0-5.7,1.5-6.5,1.9c-1.7,0.9-2.9,0-2.9,0s0,1.5,1,2.4c1,0.9,3.1,0.4,3.1,0.4s-0.1,1,0.7,1.8c0.5,0.5,2.1,0.4,2.1,0.4
		s-0.5-0.8-0.3-1.8c0.3-1.5,4.9-3.1,4.9,0.7c0,1.9-2.1,3.4-4.3,3.4c-3.2,0-6.3-0.6-9.1-3.1c-2.7-2.4-2.1-3.5-2.1-3.5l-4.7,0.1l0,0
		l-0.1,4.7c0,0,1.1-0.7,3.5,2.1c2.5,2.8,3.1,5.9,3.1,9.1c0,2.2-1.5,4.3-3.4,4.3c-3.8,0-2.2-4.6-0.7-4.9c1-0.2,1.8,0.3,1.8,0.3
		s0-1.5-0.4-2.1c-0.7-0.8-1.8-0.7-1.8-0.7s0.4-2.1-0.4-3.1c-0.9-1-2.4-1-2.4-1s0.9,1.3,0,2.9c-0.4,0.8-1.9,3.7-1.9,6.5
		c0,3.2,1.9,5.7,5.2,5.7c3.5,0,7.2-2.4,7.2-6.8c0-2.2-0.3-4.1-0.3-4.1s6.3,4.6,7.1,9.4c0.3,1.9,0.2,4.9-1.6,6.3
		c-1.2,0.9-2.4,0-2.4,0s1.3-1.3,1.2-2.7c-0.1-1.3-1.2-2.4-2.5-2.4c-2.5,0-2.9,1.8-2.9,3.4c0,2.1,1.6,4.6,4.3,5
		c3.8,0.6,6-1.6,6.8-4.4c0.5-2.1,0-5.6,0-5.6s4.9,3.2,5.5,7.1c0.6,3.8-0.9,4.9-0.9,4.9s2.1,0.4,3.1-0.3c1-0.7,1.3-1.6,1.3-1.6
		s1.5,1,1.8,2.2c2.3-0.6,4.1-0.3,4.1-0.3l0,0c0,0-0.2-1.7,0.3-4.1C183.3,179.6,182.3,178.2,182.3,178.2z"/>
	<path d="M147.4,147.2l3.4-0.7c0,0-1.4-1-3.1-3.5c-1.3-1.9-2.1-5.2-2.1-5.2s-0.6,2.7-2.8,4.9l0,0c-2.2,2.2-4.9,2.8-4.9,2.8
		s3.2,0.7,5.2,2.1c2.5,1.7,3.5,3.1,3.5,3.1L147.4,147.2L147.4,147.2z"/>
	<path d="M144,131.8c0.6-1.4-0.6-2.9-0.6-2.9l-7.8-2l-1.1,3l7.1,3.6C141.6,133.6,143.4,133.3,144,131.8z"/>
	<path d="M145.9,124.2V124c0-1.5-1.6-2.5-1.6-2.5l-7.9,0.9l0,1.6l0,1.6l7.9,0.9C144.2,126.6,145.9,125.7,145.9,124.2z"/>
	<path d="M212.6,124.1c-0.3-2.8-2.1-3.4-3.4-3.4c-3.4,0-6.6,2.4-11.2,2.4c-5.5,0-5.6-0.3-5.6-0.3s-0.6,1-1.5,1.3h-0.1c0,0,0,0,0,0
		c0,0,0,0,0,0h0.1c0.9,0.3,1.5,1.3,1.5,1.3s0.1-0.3,5.6-0.3c4.6,0,7.8,2.4,11.2,2.4C210.5,127.5,212.4,126.9,212.6,124.1
		L212.6,124.1C212.7,124.1,212.7,124.1,212.6,124.1C212.7,124.1,212.7,124.1,212.6,124.1L212.6,124.1z"/>
	<path d="M212.3,133.1c-7.7,0.1-16.4,13.1-16.4,13.1s0.3-2.4-1.5-3.1c-1.5,3.7-3.5,5.7-8.1,5.5c-4.9-0.3-7.4-4.9-7.4-7.4
		c0-4.7,2.1-9.7,6.6-9.7c4.9,0,5.7,3.1,5.7,3.1s-2.1-1.2-4.3-0.3c-1,0.4-2.2,2.2-2.2,4.7c0,2.2,1.8,4.2,5.3,4.1c5.9-0.1,5-7.4,5-7.4
		s2.7,0.3,3.8-0.9c1.5-1.5,0.9-3.5,0.9-3.5s-4.7,0.9-5.9-0.6c-1.9-2.4-5.3-2.8-5.3-2.8v-3.8v0v-3.8c0,0,3.4-0.4,5.3-2.8
		c1.2-1.5,5.9-0.6,5.9-0.6s0.7-2-0.9-3.5c-1.2-1.2-3.8-0.9-3.8-0.9s0.9-7.2-5-7.4c-3.5-0.1-5.3,1.9-5.3,4.1c0,2.5,1.2,4.3,2.2,4.7
		c2.2,0.9,4.3-0.3,4.3-0.3s-0.9,3.1-5.7,3.1c-4.6,0-6.6-5-6.6-9.7c0-2.5,2.5-7.1,7.4-7.4c4.6-0.3,6.6,1.8,8.1,5.5
		c1.8-0.7,1.5-3.1,1.5-3.1s8.7,13,16.4,13.1c7.7,0.1,6.8-6,6.8-7.1c-4.9,7.8-14.1-0.7-16.6-5.3c2.7-1.5,2.2-2.5,2.2-4
		c-7.4,1.5-6.5-4.7-16.8-4.7c-5.5,0-13.4,5.2-13.4,13c0,9,6,11.5,6,11.5v5.6v0v5.6c0,0-6,2.5-6,11.5c0,7.8,8,13,13.4,13
		c10.3,0,9.4-6.2,16.8-4.7c0-1.5,0.4-2.5-2.2-4c2.5-4.6,11.8-13.1,16.6-5.3C219.1,139.1,220,132.9,212.3,133.1z M183.5,124.1
		L183.5,124.1v-3.8h2.2v3.8v0v3.8h-2.2V124.1z"/>
	<path d="M171.5,116.8c1.3-0.3,2.1,0.7,2.1,0.7s-2.7-15.9-14.4-15.9c-8,0-10,6.8-10,9.4c0,4.7,2.7,9.3,7.4,9.3
		c4.3,0,5.5-3.8,5.5-4.7c0-3.2-1.8-4.1-3.2-4.1c-1.8,0-2.7,1-2.7,1s-1.8-5.2,3.5-5.2c6.8,0,10.3,11.1,10.3,11.1
		S170.1,117.1,171.5,116.8z"/>
	<path d="M167.1,119.3c-0.2-1.9-1.5-10.3-7.4-10.3c-1.9,0-2.5,1.2-2.5,1.2s6.3-1.2,6.3,5.5c0,5.3-4.1,5.9-4.1,5.9s2.4,0.7,3.4,0.6
		c1.5-0.2,1.9-1.3,1.9-1.3s0.4,1.5,1.9,2.1c1.5,0.6,2.5,0.1,2.5,0.1S167.4,122.9,167.1,119.3z"/>
	<path d="M174.2,126.8v-2.6v0v-2.6c0,0-0.6-1.5-2.1-1.3c-1.5,0.1-1.8,1.3-1.8,1.3v2.6v0v2.6c0,0,0.3,1.2,1.8,1.3
		C173.6,128.2,174.2,126.8,174.2,126.8z"/>
	<path d="M248,124.1L248,124.1c0-1.4-1.1-2.5-2.5-2.5s-2.5,1.1-2.5,2.5h0c0,0,0,0,0,0c0,0,0,0,0,0h0c0,1.4,1.1,2.5,2.5,2.5
		S248,125.5,248,124.1L248,124.1C248,124.1,248,124.1,248,124.1C248,124.1,248,124.1,248,124.1z"/>
	<path d="M240.9,124.1c0-1.6-1.3-2.9-2.9-2.9c-1.6,0-2.9,1.3-2.9,2.9h0c0,0,0,0,0,0c0,0,0,0,0,0h0c0,1.6,1.3,2.9,2.9,2.9
		C239.6,127,240.9,125.7,240.9,124.1L240.9,124.1C240.9,124.1,240.9,124.1,240.9,124.1C240.9,124.1,240.9,124.1,240.9,124.1
		L240.9,124.1z"/>
	<path d="M232.2,124.1c0-1.9-1.6-3.5-3.5-3.5c-1.9,0-3.5,1.6-3.5,3.5h0c0,0,0,0,0,0c0,0,0,0,0,0h0c0,1.9,1.6,3.5,3.5,3.5
		C230.6,127.6,232.2,126.1,232.2,124.1L232.2,124.1C232.2,124.1,232.2,124.1,232.2,124.1C232.2,124.1,232.2,124.1,232.2,124.1
		L232.2,124.1z"/>
	<path d="M135.6,121.3l7.8-2c0,0,1.2-1.5,0.6-2.9c-0.6-1.4-2.4-1.7-2.4-1.7l-7.1,3.6L135.6,121.3z"/>
	<path d="M221,124.1v-1.6c0,0,3.7-1.9,3.7-4.7c0-2.5-1.8-3.4-1.8-3.4s-0.3,1.8-2.4,3.7c-1.8,1.7-5.5,2.7-5.5,2.7s0.7,0.7,0.7,3.4
		c0,2.6-0.7,3.4-0.7,3.4s3.6,1,5.5,2.7c2.1,1.9,2.4,3.7,2.4,3.7s1.8-0.9,1.8-3.4c0-2.8-3.7-4.7-3.7-4.7V124.1L221,124.1z"/>
	<path d="M130.1,78.5c0,0,11.1,3.5,11.1,10.3c0,5.3-5.2,3.5-5.2,3.5s1-0.9,1-2.7c0-1.5-0.9-3.2-4.1-3.2c-0.9,0-4.7,1.2-4.7,5.5
		c0,4.7,4.6,7.4,9.3,7.4c2.7,0,9.4-2.1,9.4-10c0-11.8-15.9-14.4-15.9-14.4s1,0.7,0.7,2.1C131.4,78.4,130.1,78.5,130.1,78.5z"/>
	<path d="M125.5,79.3c0,0-0.4,1,0.1,2.5c0.6,1.5,2.1,1.9,2.1,1.9s-1.1,0.4-1.3,1.9c-0.1,1,0.6,3.4,0.6,3.4s0.6-4.1,5.9-4.1
		c6.6,0,5.5,6.3,5.5,6.3s1.2-0.6,1.2-2.5c0-5.9-8.4-7.2-10.3-7.4C125.5,81,125.5,79.3,125.5,79.3z"/>
	<path d="M152.6,74.4c-3.2,0-5.2,2.5-5.2,5.7c0,2.8,1.5,5.7,1.9,6.5c0.9,1.7,0,2.9,0,2.9s1.5,0,2.4-1c0.9-1,0.4-3.1,0.4-3.1
		s1,0.1,1.8-0.7c0.5-0.5,0.4-2.1,0.4-2.1s-0.8,0.5-1.8,0.3c-1.5-0.3-3.1-4.9,0.7-4.9c1.9,0,3.4,2.1,3.4,4.3c0,3.2-0.6,6.3-3.1,9.1
		c-2.4,2.7-3.5,2.1-3.5,2.1l0.1,4.5l-0.1,0.1l0.1,0l0,0.1l0.1-0.1l4.5,0.1c0,0-0.7-1.1,2.1-3.5c2.8-2.5,5.9-3.1,9.1-3.1
		c2.2,0,4.3,1.5,4.3,3.4c0,3.8-4.6,2.2-4.9,0.7c-0.2-1,0.3-1.8,0.3-1.8s-1.5,0-2.1,0.4c-0.8,0.7-0.7,1.8-0.7,1.8s-2.1-0.4-3.1,0.4
		c-1,0.9-1,2.4-1,2.4s1.3-0.9,2.9,0c0.8,0.4,3.7,1.9,6.5,1.9c3.2,0,5.7-1.9,5.7-5.2c0-3.5-2.4-7.2-6.8-7.2c-2.2,0-4.1,0.3-4.1,0.3
		s4.6-6.3,9.4-7.1c1.9-0.3,4.9-0.2,6.3,1.6c0.9,1.2,0,2.4,0,2.4s-1.3-1.3-2.7-1.2c-1.3,0.1-2.4,1.2-2.4,2.5c0,2.5,1.8,2.9,3.4,2.9
		c2.1,0,4.6-1.6,5-4.3c0.6-3.8-1.6-6-4.4-6.8c-2.1-0.5-5.6,0-5.6,0s3.2-4.9,7.1-5.5c3.8-0.6,4.9,0.9,4.9,0.9s0.4-2.1-0.3-3.1
		c-0.7-1-1.6-1.3-1.6-1.3s1-1.5,2.2-1.8c-0.5-1.9-0.4-3.4-0.4-3.9l0.1-0.1c0,0,0,0-0.1,0c0-0.1,0-0.1,0-0.1l-0.1,0.1
		c-0.5,0-2,0.1-3.9-0.4c-0.3,1.2-1.8,2.2-1.8,2.2s-0.3-0.9-1.3-1.6c-1-0.7-3.1-0.3-3.1-0.3s1.5,1,0.9,4.9s-5.5,7.1-5.5,7.1
		s0.5-3.5,0-5.6c-0.7-2.8-2.9-5-6.8-4.4c-2.7,0.4-4.3,2.9-4.3,5c0,1.6,0.4,3.4,2.9,3.4c1.3,0,2.4-1,2.5-2.4c0.2-1.4-1.2-2.7-1.2-2.7
		s1.2-0.9,2.4,0c1.9,1.4,1.9,4.4,1.6,6.3c-0.7,4.9-7.1,9.4-7.1,9.4s0.3-1.9,0.3-4.1C159.8,76.8,156.1,74.4,152.6,74.4z"/>
	<path d="M146.7,97.7c0,0-1,1.4-3.5,3.1c-1.9,1.3-5.2,2.1-5.2,2.1s2.6,0.6,4.8,2.8c2.2,2.2,2.8,4.8,2.8,4.8s0.7-3.2,2.1-5.2
		c1.7-2.5,3.1-3.5,3.1-3.5l-3.3-0.7L146.7,97.7z"/>
	<path d="M132.1,104.5c-1.4-0.6-2.9,0.6-2.9,0.6l-2,7.8l3,1.1l3.6-7.1C133.8,106.9,133.5,105,132.1,104.5z"/>
	<path d="M139.2,109.2C139.2,109.2,139.2,109.2,139.2,109.2L139.2,109.2c-1.2-1-2.8-0.5-2.8-0.5l-5,6.2l1,1l0,0l0,0l0,0l0,0l1,1
		l6.2-5C139.8,112,140.2,110.4,139.2,109.2L139.2,109.2C139.3,109.3,139.3,109.2,139.2,109.2z"/>
	<path d="M126,112.2l0.9-7.9c0,0-0.9-1.6-2.5-1.6h-0.1c-1.5,0-2.5,1.6-2.5,1.6l0.9,7.9l1.6,0L126,112.2z"/>
	<path d="M124.3,35.8L124.3,35.8C124.3,35.8,124.3,35.8,124.3,35.8C124.3,35.8,124.3,35.8,124.3,35.8L124.3,35.8
		c-2.8,0.3-3.4,2.1-3.4,3.4c0,3.4,2.4,6.6,2.4,11.2c0,5.5-0.3,5.6-0.3,5.6s1,0.6,1.3,1.5v0.1c0,0,0,0,0,0c0,0,0,0,0,0v-0.1
		c0.3-0.9,1.3-1.5,1.3-1.5s-0.3-0.1-0.3-5.6c0-4.6,2.4-7.8,2.4-11.2C127.7,37.9,127.1,36.1,124.3,35.8z"/>
	<path d="M107.3,74c9,0,11.5-6,11.5-6h5.6h0h5.6c0,0,2.5,6,11.5,6c7.8,0,13-8,13-13.4c0-10.3-6.2-9.4-4.7-16.8c-1.5,0-2.5-0.4-4,2.2
		c-4.6-2.5-13.1-11.8-5.3-16.6c-1,0-7.2-0.9-7.1,6.8c0.1,7.7,13.1,16.4,13.1,16.4s-2.4-0.3-3.1,1.5c3.7,1.5,5.7,3.5,5.5,8.1
		c-0.3,4.9-4.9,7.4-7.4,7.4c-4.7,0-9.7-2.1-9.7-6.6c0-4.9,3.1-5.7,3.1-5.7s-1.2,2.1-0.3,4.3c0.4,1,2.2,2.2,4.7,2.2
		c2.2,0,4.2-1.8,4.1-5.3c-0.1-5.9-7.4-5-7.4-5s0.3-2.7-0.9-3.8c-1.5-1.5-3.5-0.9-3.5-0.9s0.9,4.7-0.6,5.9c-2.4,1.9-2.8,5.3-2.8,5.3
		h-3.8h0h-3.8c0,0-0.4-3.4-2.8-5.3c-1.5-1.2-0.6-5.9-0.6-5.9s-2-0.7-3.5,0.9c-1.2,1.2-0.9,3.8-0.9,3.8s-7.2-0.9-7.4,5
		c-0.1,3.5,1.9,5.3,4.1,5.3c2.5,0,4.3-1.2,4.7-2.2c0.9-2.2-0.3-4.3-0.3-4.3s3.1,0.9,3.1,5.7c0,4.6-5,6.6-9.7,6.6
		c-2.5,0-7.1-2.5-7.4-7.4c-0.3-4.6,1.8-6.6,5.5-8.1c-0.7-1.8-3.1-1.5-3.1-1.5s13-8.7,13.1-16.4c0.1-7.7-6-6.8-7.1-6.8
		c7.8,4.9-0.7,14.1-5.3,16.6c-1.5-2.7-2.5-2.2-4-2.2c1.5,7.4-4.7,6.5-4.7,16.8C94.3,66,99.4,74,107.3,74z M120.5,62.8h3.8h0h3.8V65
		h-3.8h0h-3.8V62.8z"/>
	<path d="M117.7,74.9c0,0-15.9,2.7-15.9,14.4c0,8,6.8,10,9.4,10c4.7,0,9.3-2.7,9.3-7.4c0-4.3-3.8-5.5-4.7-5.5
		c-3.2,0-4.1,1.8-4.1,3.2c0,1.8,1,2.7,1,2.7s-5.2,1.8-5.2-3.5c0-6.8,11.1-10.3,11.1-10.3s-1.3-0.1-1.6-1.6
		C116.7,75.6,117.7,74.9,117.7,74.9z"/>
	<path d="M109.2,88.7c0,1.9,1.2,2.5,1.2,2.5s-1.2-6.3,5.5-6.3c5.3,0,5.9,4.1,5.9,4.1s0.7-2.4,0.6-3.4c-0.2-1.5-1.3-1.9-1.3-1.9
		s1.5-0.4,2.1-1.9c0.6-1.5,0.1-2.5,0.1-2.5s0,1.8-3.7,2.1C117.6,81.5,109.2,82.8,109.2,88.7z"/>
	<path d="M127,74.3h-2.6h0h-2.6c0,0-1.5,0.6-1.3,2.1c0.1,1.5,1.3,1.8,1.3,1.8h2.6h0h2.6c0,0,1.2-0.3,1.3-1.8
		C128.4,74.9,127,74.3,127,74.3z"/>
	<path d="M124.3,5.5L124.3,5.5C124.3,5.5,124.3,5.5,124.3,5.5C124.3,5.5,124.3,5.5,124.3,5.5L124.3,5.5c1.4,0,2.5-1.1,2.5-2.5
		s-1.1-2.5-2.5-2.5v0c0,0,0,0,0,0c0,0,0,0,0,0v0c-1.4,0-2.5,1.1-2.5,2.5S123,5.4,124.3,5.5z"/>
	<path d="M124.3,13.4L124.3,13.4C124.3,13.4,124.3,13.4,124.3,13.4C124.3,13.4,124.3,13.4,124.3,13.4L124.3,13.4
		c1.6,0,2.9-1.3,2.9-2.9s-1.3-2.9-2.9-2.9v0c0,0,0,0,0,0c0,0,0,0,0,0v0c-1.6,0-2.9,1.3-2.9,2.9S122.7,13.4,124.3,13.4z"/>
	<path d="M124.3,23.3L124.3,23.3C124.3,23.3,124.3,23.3,124.3,23.3C124.3,23.3,124.3,23.3,124.3,23.3L124.3,23.3
		c2,0,3.5-1.6,3.5-3.5c0-1.9-1.6-3.5-3.5-3.5v0c0,0,0,0,0,0c0,0,0,0,0,0v0c-1.9,0-3.5,1.6-3.5,3.5C120.8,21.7,122.4,23.3,124.3,23.3
		z"/>
	<path d="M121.5,112.9l-2-7.8c0,0-1.5-1.2-2.9-0.6c-1.4,0.6-1.7,2.4-1.7,2.4l3.6,7.1L121.5,112.9z"/>
	<path d="M108.8,112.1l6.2,5l1.1-1.1l0,0l1.1-1.1l-5-6.2c0,0-1.7-0.5-2.8,0.6l0,0c0,0,0,0,0,0.1c0,0,0,0,0,0l0,0
		C108.4,110.4,108.8,112.1,108.8,112.1z"/>
	<path d="M118.3,27.9c1.7,1.8,2.7,5.5,2.7,5.5s0.7-0.7,3.4-0.7c2.6,0,3.4,0.7,3.4,0.7s1-3.6,2.7-5.5c1.9-2.1,3.7-2.4,3.7-2.4
		s-0.9-1.8-3.4-1.8c-2.8,0-4.7,3.7-4.7,3.7h-1.6h0h-1.6c0,0-1.9-3.7-4.7-3.7c-2.5,0-3.4,1.8-3.4,1.8S116.4,25.8,118.3,27.9z"/>
	<path d="M89.4,101.7c-11.8,0-14.4,15.9-14.4,15.9s0.7-1,2.1-0.7c1.5,0.3,1.6,1.6,1.6,1.6s3.5-11.1,10.3-11.1c5.3,0,3.5,5.2,3.5,5.2
		s-0.9-1-2.7-1c-1.5,0-3.2,0.9-3.2,4.1c0,0.9,1.2,4.7,5.5,4.7c4.7,0,7.4-4.6,7.4-9.3C99.4,108.4,97.4,101.7,89.4,101.7z"/>
	<path d="M85,115.7c0-6.6,6.3-5.5,6.3-5.5s-0.6-1.2-2.5-1.2c-5.9,0-7.2,8.4-7.4,10.3c-0.3,3.7-2.1,3.7-2.1,3.7s1,0.4,2.5-0.1
		c1.5-0.6,1.9-2.1,1.9-2.1s0.4,1.1,1.9,1.3c1,0.1,3.4-0.6,3.4-0.6S85,121,85,115.7z"/>
	<path d="M66.3,70.1c0,0-0.9,0.3-1.6,1.3c-0.7,1-0.3,3.1-0.3,3.1s1-1.5,4.9-0.9c3.8,0.6,7.1,5.5,7.1,5.5s-3.5-0.5-5.6,0
		c-2.8,0.7-5,2.9-4.4,6.8c0.4,2.7,2.9,4.3,5,4.3c1.6,0,3.4-0.4,3.4-2.9c0-1.3-1-2.4-2.4-2.5c-1.4-0.2-2.7,1.2-2.7,1.2
		s-0.9-1.2,0-2.4c1.4-1.9,4.4-1.9,6.3-1.6c4.9,0.7,9.4,7.1,9.4,7.1s-1.9-0.3-4.1-0.3c-4.4,0-6.8,3.7-6.8,7.2c0,3.2,2.5,5.2,5.7,5.2
		c2.8,0,5.7-1.5,6.5-1.9c1.7-0.9,2.9,0,2.9,0s0-1.5-1-2.4c-1-0.9-3.1-0.4-3.1-0.4s0.1-1-0.7-1.8c-0.5-0.5-2.1-0.4-2.1-0.4
		s0.5,0.8,0.3,1.8c-0.3,1.5-4.9,3.1-4.9-0.7c0-1.9,2.1-3.4,4.3-3.4c3.2,0,6.3,0.6,9.1,3.1c2.7,2.4,2.1,3.5,2.1,3.5l4.7-0.1l0,0
		l0.1-4.7c0,0-1.1,0.7-3.5-2.1c-2.5-2.8-3.1-5.9-3.1-9.1c0-2.2,1.5-4.3,3.4-4.3c3.8,0,2.2,4.6,0.7,4.9c-1,0.2-1.8-0.3-1.8-0.3
		s0,1.5,0.4,2.1c0.7,0.8,1.8,0.7,1.8,0.7s-0.4,2.1,0.4,3.1c0.9,1,2.4,1,2.4,1s-0.9-1.3,0-2.9c0.4-0.8,1.9-3.7,1.9-6.5
		c0-3.2-1.9-5.7-5.2-5.7c-3.5,0-7.2,2.4-7.2,6.8c0,2.2,0.3,4.1,0.3,4.1s-6.3-4.6-7.1-9.4c-0.3-1.9-0.2-4.9,1.6-6.3
		c1.2-0.9,2.4,0,2.4,0s-1.3,1.3-1.2,2.7c0.1,1.3,1.2,2.4,2.5,2.4c2.5,0,2.9-1.8,2.9-3.4c0-2.1-1.6-4.6-4.3-5c-3.8-0.6-6,1.6-6.8,4.4
		c-0.5,2.1,0,5.6,0,5.6s-4.9-3.2-5.5-7.1c-0.6-3.8,0.9-4.9,0.9-4.9s-2.1-0.4-3.1,0.3c-1,0.7-1.3,1.6-1.3,1.6s-1.5-1-1.8-2.2
		c-2.3,0.6-4.1,0.3-4.1,0.3l0,0c0,0,0.2,1.7-0.3,4.1C65.3,68.7,66.3,70.1,66.3,70.1z"/>
	<path d="M101.2,101.1l-3.4,0.7c0,0,1.4,1,3.1,3.5c1.3,1.9,2.1,5.2,2.1,5.2s0.6-2.7,2.8-4.9l0,0c2.2-2.2,4.9-2.8,4.9-2.8
		s-3.2-0.7-5.2-2.1c-2.5-1.7-3.5-3.1-3.5-3.1L101.2,101.1L101.2,101.1z"/>
	<path d="M104.6,116.5c-0.6,1.4,0.6,2.9,0.6,2.9l7.8,2l1.1-3l-7.1-3.6C107,114.7,105.2,115,104.6,116.5z"/>
	<path d="M102.7,124.1v0.1c0,1.5,1.6,2.5,1.6,2.5l7.9-0.9l0-1.6l0-1.6l-7.9-0.9C104.3,121.7,102.7,122.6,102.7,124.1z"/>
	<path d="M35.9,124.2c0.3,2.8,2.1,3.4,3.4,3.4c3.4,0,6.6-2.4,11.2-2.4c5.5,0,5.6,0.3,5.6,0.3s0.6-1,1.5-1.3h0.1c0,0,0,0,0,0
		c0,0,0,0,0,0h-0.1c-0.9-0.3-1.5-1.3-1.5-1.3s-0.1,0.3-5.6,0.3c-4.6,0-7.8-2.4-11.2-2.4C38.1,120.8,36.2,121.4,35.9,124.2
		L35.9,124.2C35.9,124.2,35.9,124.2,35.9,124.2C35.9,124.2,35.9,124.2,35.9,124.2L35.9,124.2z"/>
	<path d="M74.1,141.3c0-9-6-11.5-6-11.5v-5.6v0v-5.6c0,0,6-2.5,6-11.5c0-7.8-8-13-13.4-13c-10.3,0-9.4,6.2-16.8,4.7
		c0,1.5-0.4,2.5,2.2,4c-2.5,4.6-11.8,13.1-16.6,5.3c0,1-0.9,7.2,6.8,7.1c7.7-0.1,16.4-13.1,16.4-13.1s-0.3,2.4,1.5,3.1
		c1.5-3.7,3.5-5.7,8.1-5.5c4.9,0.3,7.4,4.9,7.4,7.4c0,4.7-2.1,9.7-6.6,9.7c-4.9,0-5.7-3.1-5.7-3.1s2.1,1.2,4.3,0.3
		c1-0.4,2.2-2.2,2.2-4.7c0-2.2-1.8-4.2-5.3-4.1c-5.9,0.1-5,7.4-5,7.4s-2.7-0.3-3.8,0.9c-1.5,1.5-0.9,3.5-0.9,3.5s4.7-0.9,5.9,0.6
		c1.9,2.4,5.3,2.8,5.3,2.8v3.8v0v3.8c0,0-3.4,0.4-5.3,2.8c-1.2,1.5-5.9,0.6-5.9,0.6s-0.7,2,0.9,3.5c1.2,1.2,3.8,0.9,3.8,0.9
		s-0.9,7.2,5,7.4c3.5,0.1,5.3-1.9,5.3-4.1c0-2.5-1.2-4.3-2.2-4.7c-2.2-0.9-4.3,0.3-4.3,0.3s0.9-3.1,5.7-3.1c4.6,0,6.6,5,6.6,9.7
		c0,2.5-2.5,7.1-7.4,7.4c-4.6,0.3-6.6-1.8-8.1-5.5c-1.8,0.7-1.5,3.1-1.5,3.1s-8.7-13-16.4-13.1c-7.7-0.1-6.8,6-6.8,7.1
		c4.9-7.8,14.1,0.7,16.6,5.3c-2.7,1.5-2.2,2.5-2.2,4c7.4-1.5,6.5,4.7,16.8,4.7C66.1,154.2,74.1,149.1,74.1,141.3z M65.1,124.2
		L65.1,124.2v3.8h-2.2v-3.8v0v-3.8h2.2V124.2z"/>
	<path d="M89.4,146.7c8,0,10-6.8,10-9.4c0-4.7-2.7-9.3-7.4-9.3c-4.3,0-5.5,3.8-5.5,4.7c0,3.2,1.8,4.1,3.2,4.1c1.8,0,2.7-1,2.7-1
		s1.8,5.2-3.5,5.2c-6.8,0-10.3-11.1-10.3-11.1s-0.1,1.3-1.6,1.6c-1.3,0.3-2.1-0.7-2.1-0.7S77.6,146.7,89.4,146.7z"/>
	<path d="M89.1,126.8c0,0-2.4-0.7-3.4-0.6c-1.5,0.2-1.9,1.3-1.9,1.3s-0.4-1.5-1.9-2.1c-1.5-0.6-2.5-0.1-2.5-0.1s1.8,0,2.1,3.7
		c0.2,1.9,1.5,10.3,7.4,10.3c1.9,0,2.5-1.2,2.5-1.2s-6.3,1.2-6.3-5.5C85,127.4,89.1,126.8,89.1,126.8z"/>
	<path d="M74.4,121.6v2.6v0v2.6c0,0,0.6,1.5,2.1,1.3c1.5-0.1,1.8-1.3,1.8-1.3v-2.6v0v-2.6c0,0-0.3-1.2-1.8-1.3
		C75,120.1,74.4,121.6,74.4,121.6z"/>
	<path d="M5.6,124.2c0-1.4-1.1-2.5-2.5-2.5s-2.5,1.1-2.5,2.5h0c0,0,0,0,0,0c0,0,0,0,0,0h0c0,1.4,1.1,2.5,2.5,2.5
		S5.6,125.6,5.6,124.2L5.6,124.2C5.6,124.2,5.6,124.2,5.6,124.2C5.6,124.2,5.6,124.2,5.6,124.2L5.6,124.2z"/>
	<path d="M13.5,124.2c0-1.6-1.3-2.9-2.9-2.9c-1.6,0-2.9,1.3-2.9,2.9h0c0,0,0,0,0,0c0,0,0,0,0,0h0c0,1.6,1.3,2.9,2.9,2.9
		C12.2,127.1,13.5,125.8,13.5,124.2L13.5,124.2C13.5,124.2,13.5,124.2,13.5,124.2C13.5,124.2,13.5,124.2,13.5,124.2L13.5,124.2z"/>
	<path d="M23.4,124.2c0-1.9-1.6-3.5-3.5-3.5c-1.9,0-3.5,1.6-3.5,3.5h0c0,0,0,0,0,0c0,0,0,0,0,0h0c0,1.9,1.6,3.5,3.5,3.5
		C21.8,127.7,23.4,126.2,23.4,124.2L23.4,124.2C23.4,124.2,23.4,124.2,23.4,124.2C23.4,124.2,23.4,124.2,23.4,124.2L23.4,124.2z"/>
	<path d="M107,133.7l7.1-3.6l-1.1-3l-7.8,2c0,0-1.2,1.5-0.6,2.9C105.2,133.4,107,133.7,107,133.7z"/>
	<path d="M32.7,124.2c0-2.6,0.7-3.4,0.7-3.4s-3.6-1-5.5-2.7c-2.1-1.9-2.4-3.7-2.4-3.7s-1.8,0.9-1.8,3.4c0,2.8,3.7,4.7,3.7,4.7v1.6v0
		v1.6c0,0-3.7,1.9-3.7,4.7c0,2.5,1.8,3.4,1.8,3.4s0.3-1.8,2.4-3.7c1.8-1.7,5.5-2.7,5.5-2.7S32.7,126.8,32.7,124.2z"/>
</g>
</svg>
